<svg width="16" height="17" viewBox="0 0 16 17" fill="none" xmlns="http://www.w3.org/2000/svg">
<circle cx="8" cy="8.5" r="8" fill="#83C150"/>
<path fill-rule="evenodd" clip-rule="evenodd" d="M8.99327 4.38338C8.93551 3.88604 8.51284 3.5 8 3.5C7.44772 3.5 7 3.94772 7 4.5V8.5L7.00673 8.61662C7.06449 9.11396 7.48716 9.5 8 9.5C8.55228 9.5 9 9.05228 9 8.5V4.5L8.99327 4.38338ZM9 11.5C9 10.9477 8.55451 10.5 8.00498 10.5L7.87898 10.5067C7.38412 10.5645 7 10.9872 7 11.5C7 12.0523 7.44549 12.5 7.99502 12.5L8.12102 12.4933C8.61588 12.4355 9 12.0128 9 11.5Z" fill="white"/>
</svg>
