<svg width="40" height="40" viewBox="0 0 40 40" fill="none" xmlns="http://www.w3.org/2000/svg">
<path d="M26.3536 14.3536L26.99 14.99L27.6264 14.3536L26.99 13.7172L26.3536 14.3536ZM20.7071 20L20.0707 19.3636L19.4344 20L20.0707 20.6364L20.7071 20ZM25.6465 13.6465L26.2829 13.0101L25.6465 12.3737L25.0101 13.0101L25.6465 13.6465ZM20 19.2929L19.3636 19.9293L20 20.5657L20.6364 19.9293L20 19.2929ZM14.3536 13.6465L14.99 13.0101L14.3536 12.3737L13.7172 13.0101L14.3536 13.6465ZM13.6465 14.3536L13.0101 13.7172L12.3737 14.3536L13.0101 14.99L13.6465 14.3536ZM19.2929 20L19.9293 20.6364L20.5657 20L19.9293 19.3636L19.2929 20ZM13.6465 25.6465L13.0101 25.0101L12.3737 25.6465L13.0101 26.2829L13.6465 25.6465ZM14.3536 26.3536L13.7172 26.99L14.3536 27.6264L14.99 26.99L14.3536 26.3536ZM20 20.7071L20.6364 20.0707L20 19.4344L19.3636 20.0707L20 20.7071ZM25.6465 26.3536L25.0101 26.99L25.6465 27.6264L26.2829 26.99L25.6465 26.3536ZM26.3536 25.6465L26.99 26.2829L27.6264 25.6465L26.99 25.0101L26.3536 25.6465ZM25.7172 13.7172L20.0707 19.3636L21.3435 20.6364L26.99 14.99L25.7172 13.7172ZM25.0101 14.2829L25.7172 14.99L26.99 13.7172L26.2829 13.0101L25.0101 14.2829ZM20.6364 19.9293L26.2829 14.2829L25.0101 13.0101L19.3636 18.6565L20.6364 19.9293ZM20.6364 18.6565L14.99 13.0101L13.7172 14.2829L19.3636 19.9293L20.6364 18.6565ZM13.7172 13.0101L13.0101 13.7172L14.2829 14.99L14.99 14.2829L13.7172 13.0101ZM13.0101 14.99L18.6565 20.6364L19.9293 19.3636L14.2829 13.7172L13.0101 14.99ZM14.2829 26.2829L19.9293 20.6364L18.6565 19.3636L13.0101 25.0101L14.2829 26.2829ZM14.99 25.7172L14.2829 25.0101L13.0101 26.2829L13.7172 26.99L14.99 25.7172ZM19.3636 20.0707L13.7172 25.7172L14.99 26.99L20.6364 21.3435L19.3636 20.0707ZM19.3636 21.3435L25.0101 26.99L26.2829 25.7172L20.6364 20.0707L19.3636 21.3435ZM26.2829 26.99L26.99 26.2829L25.7172 25.0101L25.0101 25.7172L26.2829 26.99ZM26.99 25.0101L21.3435 19.3636L20.0707 20.6364L25.7172 26.2829L26.99 25.0101Z" fill="white"/>
</svg>
