<svg width="33" height="32" viewBox="0 0 33 32" fill="none" xmlns="http://www.w3.org/2000/svg">
<path d="M24.5 13H15.5C14.3954 13 13.5 13.8954 13.5 15V24C13.5 25.1046 14.3954 26 15.5 26H24.5C25.6046 26 26.5 25.1046 26.5 24V15C26.5 13.8954 25.6046 13 24.5 13Z" stroke="#A1A1A1" stroke-width="2" stroke-linecap="round" stroke-linejoin="round"/>
<path d="M9.5 19H8.5C7.96957 19 7.46086 18.7893 7.08579 18.4142C6.71071 18.0391 6.5 17.5304 6.5 17V8C6.5 7.46957 6.71071 6.96086 7.08579 6.58579C7.46086 6.21071 7.96957 6 8.5 6H17.5C18.0304 6 18.5391 6.21071 18.9142 6.58579C19.2893 6.96086 19.5 7.46957 19.5 8V9" stroke="#A1A1A1" stroke-width="2" stroke-linecap="round" stroke-linejoin="round"/>
</svg>
