<svg width="16" height="16" viewBox="0 0 16 16" fill="none" xmlns="http://www.w3.org/2000/svg">
<path d="M2.5 10.3V4.7C2.5 4.58954 2.58954 4.5 2.7 4.5H9.8C9.91046 4.5 10 4.58954 10 4.7V5.8C10 5.91046 10.0895 6 10.2 6H11.9394C11.9789 6 12.0175 6.01169 12.0504 6.03359L13.4109 6.94063C13.4666 6.97772 13.5 7.04017 13.5 7.10704V10.3C13.5 10.4105 13.4105 10.5 13.3 10.5H2.7C2.58954 10.5 2.5 10.4105 2.5 10.3Z" fill="#393939" stroke="#393939"/>
<circle cx="5" cy="11" r="1.5" fill="#393939" stroke="#F4F5F6"/>
<circle cx="11" cy="11" r="1.5" fill="#393939" stroke="#F4F5F6"/>
</svg>
