<svg width="16" height="16" viewBox="0 0 16 16" fill="none" xmlns="http://www.w3.org/2000/svg">
<path fill-rule="evenodd" clip-rule="evenodd" d="M3.99998 2.0415H6.33331C7.80607 2.0415 9.99997 3.23541 9.99997 4.70817L11.4727 4.70817C11.8115 4.70817 12.1375 4.83711 12.3846 5.06879L14.2452 6.8131C14.5141 7.06516 14.6666 7.41727 14.6666 7.78581V11.3748C14.6666 11.7323 14.526 12.0568 14.2971 12.2962C14.1025 11.204 13.1481 10.3748 12 10.3748C11.1512 10.3748 10.4083 10.828 9.99997 11.5056V11.5C9.99997 11.5 9.81442 11.7916 9.74854 12C9.63862 12.3477 9.63862 12.7082 9.63862 12.7082H6.99998C6.99998 11.4195 5.95531 10.3748 4.66665 10.3748C3.56254 10.3748 2.63805 11.1413 2.39544 12.1716C1.75032 11.6849 1.33331 10.9119 1.33331 10.0415V4.70817C1.33331 3.23541 2.52722 2.0415 3.99998 2.0415ZM5.99997 12.7082C5.99997 13.4445 5.40302 14.0415 4.66664 14.0415C3.93026 14.0415 3.3333 13.4445 3.3333 12.7082C3.3333 12.6802 3.33417 12.6524 3.33587 12.6248C3.37889 11.9273 3.95825 11.3748 4.66664 11.3748C5.40302 11.3748 5.99997 11.9718 5.99997 12.7082ZM13.3333 12.7082C13.3333 13.4445 12.7363 14.0415 12 14.0415C11.2636 14.0415 10.6666 13.4445 10.6666 12.7082C10.6666 11.9718 11.2636 11.3748 12 11.3748C12.7363 11.3748 13.3333 11.9718 13.3333 12.7082Z" fill="#393939"/>
</svg>
