<svg width="17" height="15" viewBox="0 0 17 15" fill="none" xmlns="http://www.w3.org/2000/svg">
<path d="M1.41586 1.39074C3.25239 -0.423535 6.1963 -0.461976 8.07979 1.27108L8.25339 1.43846L8.28775 1.40438C9.18987 0.50948 10.4135 0.00672509 11.6893 0.00672509C12.9652 0.00672509 14.1888 0.50948 15.0909 1.40438C15.9931 2.29918 16.5 3.51285 16.5 4.77836C16.5 5.96943 16.051 7.11458 15.246 7.99118L8.7516 14.7878C8.62186 14.9233 8.44176 15 8.25339 15C8.09642 15 7.94518 14.9467 7.82405 14.8506L7.75518 14.7878L1.40212 8.13871C-0.472727 6.27155 -0.466574 3.25038 1.41586 1.39074Z" fill="#E1E1E1"/>
</svg>
