<svg width="38" height="38" viewBox="0 0 38 38" fill="none" xmlns="http://www.w3.org/2000/svg">
<rect width="38" height="38" fill="white"/>
<path d="M8 33V5C8 4.44772 8.44772 4 9 4H29C29.5523 4 30 4.44772 30 5V33C30 33.5523 29.5523 34 29 34H9C8.44772 34 8 33.5523 8 33Z" stroke="#393939"/>
<path d="M20 12V8C20 7.72386 20.2239 7.5 20.5 7.5H27.5C27.7761 7.5 28 7.72386 28 8V12C28 12.2761 27.7761 12.5 27.5 12.5H20.5C20.2239 12.5 20 12.2761 20 12Z" stroke="#393939"/>
<path d="M10.5 7.5H17.5C17.7761 7.5 18 7.72386 18 8V12C18 12.2761 17.7761 12.5 17.5 12.5H10.5C10.2239 12.5 10 12.2761 10 12V8C10 7.72386 10.2239 7.5 10.5 7.5Z" stroke="#393939"/>
<path d="M30 12H8V18H30V12Z" fill="white" stroke="#393939"/>
</svg>
