<svg width="38" height="38" viewBox="0 0 38 38" fill="none" xmlns="http://www.w3.org/2000/svg">
<rect width="38" height="38" fill="white"/>
<rect x="4.5" y="4.5" width="20.1111" height="20.1111" rx="0.5" fill="white" stroke="#393939"/>
<path d="M4.61111 18.1111C4.61111 18.1111 11 17.5 11 13M11 13C11 8.49997 17.6111 4.61108 17.6111 4.61108M11 13C11 17.5 9.11111 19.6111 12.1111 24.6111" stroke="#393939" stroke-linejoin="round"/>
<path d="M4.61111 11.6111C4.61111 11.6111 10.1111 9.61108 10.1111 4.61108" stroke="#393939" stroke-linejoin="round"/>
<path d="M24.6111 4.61108C22.268 7.34475 20.6111 5.61108 18.1111 9.11108C15.6111 12.6111 18.1111 13.6111 15.6111 17.6111C13.1111 21.6111 19.6111 24.6111 19.6111 24.6111" stroke="#393939" stroke-linejoin="round"/>
<path d="M24.6111 11.6111C24.6111 11.6111 23.3611 9.61114 21.1111 15.6111C18.8611 21.6111 24.6111 22.6111 24.6111 22.6111" stroke="#393939" stroke-linejoin="round"/>
<rect x="13.5" y="13.5" width="20.1111" height="20.1111" rx="0.5" fill="white" stroke="#393939"/>
<path d="M13.6111 27.1111C13.6111 27.1111 20 26.5 20 22M20 22C20 17.5 26.6111 13.6111 26.6111 13.6111M20 22C20 26.5 18.1111 28.6111 21.1111 33.6111" stroke="#393939" stroke-linejoin="round"/>
<path d="M13.6111 20.6111C13.6111 20.6111 19.1111 18.6111 19.1111 13.6111" stroke="#393939" stroke-linejoin="round"/>
<path d="M33.6111 13.6111C31.268 16.3448 29.6111 14.6111 27.1111 18.1111C24.6111 21.6111 27.1111 22.6111 24.6111 26.6111C22.1111 30.6111 28.6111 33.6111 28.6111 33.6111" stroke="#393939" stroke-linejoin="round"/>
<path d="M33.6111 20.6111C33.6111 20.6111 32.3611 18.6111 30.1111 24.6111C27.8611 30.6111 33.6111 31.6111 33.6111 31.6111" stroke="#393939" stroke-linejoin="round"/>
</svg>
