<svg width="38" height="38" viewBox="0 0 38 38" fill="none" xmlns="http://www.w3.org/2000/svg">
<g clip-path="url(#clip0_4651_73120)">
<rect width="38" height="38" fill="white"/>
<path fill-rule="evenodd" clip-rule="evenodd" d="M24.3565 5.05476C23.8459 5.15495 23.5101 5.37311 22.7403 6.10469C20.7947 7.95364 6.52744 21.9023 6.41949 22.0611C6.20647 22.3744 6.03683 22.8686 6.00709 23.2622C5.87984 24.948 7.48614 26.3121 9.10278 25.8912C9.70983 25.7332 9.89368 25.5967 11.0614 24.4372C12.0418 23.4637 12.1747 23.3491 12.2066 23.4496C12.2588 23.6139 12.824 24.2016 13.0434 24.3197L13.2303 24.4203L11.9246 25.7322C10.5483 27.1151 10.4286 27.2712 10.2665 27.8932C9.80099 29.6794 11.5166 31.3884 13.307 30.9223C14.0166 30.7376 13.6116 31.1215 22.8872 21.8394C29.5726 15.1493 31.602 13.0893 31.7094 12.884C32.0777 12.1801 32.097 11.3334 31.7612 10.6166C31.61 10.294 31.1038 9.72986 30.8363 9.58584L30.6532 9.48727L30.8913 9.22261C31.3925 8.6654 31.6317 7.99421 31.574 7.30693C31.4234 5.5111 29.4732 4.44523 27.9019 5.30002C27.7584 5.37814 27.4874 5.58455 27.2998 5.75877L26.9586 6.0756L26.6755 5.77896C26.0817 5.15679 25.2152 4.88615 24.3565 5.05476ZM25.6788 6.06128C25.8722 6.16708 26.0734 6.33061 26.1774 6.46629L26.3517 6.69383L19.3238 13.7233C13.6196 19.4288 12.2703 20.8045 12.1596 21.0271C11.9826 21.3832 11.8667 21.8344 11.8667 22.1675C11.8667 22.4294 11.8612 22.4384 11.4503 22.8468L11.0339 23.2605L11.002 23.1077C10.8712 22.4784 10.6916 22.1172 10.3112 21.7186C9.92914 21.3183 9.49928 21.094 8.86553 20.9643C8.69788 20.93 7.81734 21.8067 17.3358 12.5315C20.9063 9.05217 23.8892 6.16509 23.9645 6.11581C24.471 5.78404 25.1338 5.76296 25.6788 6.06128ZM29.7647 5.98212C30.0766 6.12 30.4635 6.50504 30.6094 6.82275C30.783 7.20092 30.7705 7.81381 30.5814 8.19617C30.4617 8.43802 29.3477 9.57467 23.6739 15.2443C17.1761 21.7373 16.9079 21.998 16.8771 21.8503C16.7468 21.2244 16.5829 20.8931 16.1978 20.4774C15.8147 20.0639 15.3922 19.8412 14.729 19.7032C14.5812 19.6724 14.8408 19.4055 21.312 12.9352C25.0172 9.23048 28.1273 6.15015 28.2232 6.09007C28.6574 5.81801 29.2929 5.7735 29.7647 5.98212ZM30.4727 10.3533C31.1233 10.8007 31.3475 11.6864 30.9925 12.4065C30.8833 12.6282 29.4065 14.1296 23.0445 20.4872C15.5425 27.9839 15.2294 28.2894 15.1986 28.1417C15.0673 27.511 14.888 27.1505 14.5075 26.7517C14.1232 26.349 13.7019 26.1301 13.051 25.9947C12.8988 25.9631 12.9021 25.9586 13.5152 25.3442L14.1326 24.7254L14.534 24.6971C14.9817 24.6656 15.4078 24.5244 15.7538 24.293C15.8806 24.2082 19.1356 20.9875 22.987 17.1358C29.1819 10.9406 30.0041 10.1364 30.1157 10.1637C30.185 10.1806 30.3457 10.2659 30.4727 10.3533ZM15.1741 20.7323C15.5288 20.9212 15.689 21.088 15.8934 21.4812C16.0117 21.7087 16.0327 21.8159 16.0337 22.1946C16.0348 22.6027 16.0198 22.668 15.8567 22.9706C15.6582 23.3385 15.4936 23.4974 15.0983 23.7027C14.8698 23.8213 14.7648 23.8418 14.3845 23.8418C14.0043 23.8418 13.8992 23.8213 13.6708 23.7027C13.2755 23.4974 13.1109 23.3385 12.9124 22.9706C12.7492 22.668 12.7343 22.6027 12.7353 22.1946C12.7363 21.8159 12.7574 21.7087 12.8757 21.4812C13.0739 21.1 13.235 20.9266 13.5508 20.7548C13.9209 20.5535 14.0836 20.5172 14.5026 20.5421C14.7742 20.5583 14.9307 20.6026 15.1741 20.7323ZM9.29922 21.9906C9.65391 22.1795 9.81411 22.3463 10.0185 22.7395C10.1368 22.967 10.1579 23.0742 10.1589 23.4528C10.1599 23.861 10.145 23.9263 9.9818 24.2288C9.78331 24.5968 9.61871 24.7556 9.22342 24.961C8.99498 25.0796 8.88992 25.1001 8.50968 25.1001C8.12944 25.1001 8.02437 25.0796 7.79593 24.961C7.40064 24.7556 7.23604 24.5968 7.03755 24.2288C6.87437 23.9263 6.85942 23.861 6.86047 23.4528C6.86147 23.0742 6.88255 22.967 7.00084 22.7395C7.19901 22.3583 7.36015 22.1849 7.67592 22.0131C8.04604 21.8118 8.20875 21.7755 8.62775 21.8004C8.89936 21.8166 9.05583 21.8609 9.29922 21.9906ZM13.4955 27.0237C13.8502 27.2126 14.0104 27.3794 14.2148 27.7726C14.3331 28.0001 14.3542 28.1073 14.3552 28.486C14.3563 28.8941 14.3413 28.9595 14.1781 29.262C13.9796 29.6299 13.815 29.7888 13.4197 29.9941C13.1913 30.1127 13.0862 30.1332 12.706 30.1332C12.3258 30.1332 12.2207 30.1127 11.9923 29.9941C11.597 29.7888 11.4324 29.6299 11.2339 29.262C11.0707 28.9595 11.0557 28.8941 11.0568 28.486C11.0578 28.1073 11.0789 28.0001 11.1972 27.7726C11.3953 27.3914 11.5565 27.218 11.8722 27.0462C12.2424 26.8449 12.4051 26.8086 12.8241 26.8335C13.0957 26.8497 13.2522 26.894 13.4955 27.0237Z" fill="black"/>
<rect width="38" height="38" transform="translate(0 -1)" fill="white"/>
<path d="M21.25 3H23.3409" stroke="white" stroke-linejoin="round"/>
<path d="M26.4995 3.56865L26.4773 3.54545C26.1922 3.24804 25.7168 3.24804 25.4318 3.54545C25.1468 3.84287 24.6714 3.84287 24.3864 3.54545C24.1013 3.24804 23.6259 3.24804 23.3409 3.54545C23.0559 3.84287 22.5805 3.84287 22.2955 3.54545C22.0104 3.24804 21.535 3.24804 21.25 3.54545C20.965 3.84287 20.4896 3.84287 20.2045 3.54545C19.9195 3.24804 19.4441 3.24804 19.1591 3.54545C18.8741 3.84287 18.3987 3.84287 18.1136 3.54545C17.8286 3.24804 17.3532 3.24804 17.0682 3.54545C16.7832 3.84287 16.3078 3.84287 16.0227 3.54545C15.7377 3.24804 15.2623 3.24804 14.9773 3.54545C14.6922 3.84287 14.2168 3.84287 13.9318 3.54545C13.6468 3.24804 13.1714 3.24804 12.8864 3.54545C12.6013 3.84287 12.1259 3.84287 11.8409 3.54545C11.5559 3.24804 11.0805 3.24804 10.7955 3.54545C10.5104 3.84287 10.035 3.84287 9.75 3.54545C9.46497 3.24804 8.98957 3.24804 8.70455 3.54545C8.41952 3.84287 7.94412 3.84287 7.65909 3.54545C7.37406 3.24804 6.89866 3.24804 6.61364 3.54545C6.32861 3.84287 5.85321 3.84287 5.56818 3.54545C5.28316 3.24804 4.80775 3.24804 4.52273 3.54545L4.50049 3.56865C4.2207 3.86061 4.2207 4.32121 4.50049 4.61316L4.52273 4.63636C4.81495 4.94129 4.81495 5.42234 4.52273 5.72727C4.2305 6.0322 4.2305 6.51325 4.52273 6.81818C4.81495 7.12311 4.81495 7.60416 4.52273 7.90909C4.2305 8.21402 4.2305 8.69507 4.52273 9C4.81495 9.30493 4.81495 9.78598 4.52273 10.0909C4.2305 10.3958 4.2305 10.8769 4.52273 11.1818C4.81495 11.4867 4.81495 11.9678 4.52273 12.2727C4.2305 12.5777 4.2305 13.0587 4.52273 13.3636C4.81495 13.6686 4.81495 14.1496 4.52273 14.4545C4.2305 14.7595 4.2305 15.2405 4.52273 15.5455C4.81495 15.8504 4.81495 16.3314 4.52273 16.6364C4.2305 16.9413 4.2305 17.4223 4.52273 17.7273C4.81495 18.0322 4.81495 18.5133 4.52273 18.8182C4.2305 19.1231 4.2305 19.6042 4.52273 19.9091C4.81495 20.214 4.81495 20.6951 4.52273 21C4.2305 21.3049 4.2305 21.786 4.52273 22.0909C4.81495 22.3958 4.81495 22.8769 4.52273 23.1818C4.2305 23.4867 4.2305 23.9678 4.52273 24.2727C4.81495 24.5777 4.81495 25.0587 4.52273 25.3636L4.50049 25.3868C4.2207 25.6788 4.2207 26.1394 4.50049 26.4313L4.52273 26.4545C4.80775 26.752 5.28316 26.752 5.56818 26.4545C5.85321 26.1571 6.32861 26.1571 6.61364 26.4545C6.89866 26.752 7.37406 26.752 7.65909 26.4545C7.94412 26.1571 8.41952 26.1571 8.70455 26.4545C8.98957 26.752 9.46497 26.752 9.75 26.4545C10.035 26.1571 10.5104 26.1571 10.7955 26.4545C11.0805 26.752 11.5559 26.752 11.8409 26.4545C12.1259 26.1571 12.6013 26.1571 12.8864 26.4545C13.1714 26.752 13.6468 26.752 13.9318 26.4545C14.2168 26.1571 14.6922 26.1571 14.9773 26.4545C15.2623 26.752 15.7377 26.752 16.0227 26.4545C16.3078 26.1571 16.7832 26.1571 17.0682 26.4545C17.3532 26.752 17.8286 26.752 18.1136 26.4545C18.3987 26.1571 18.8741 26.1571 19.1591 26.4545C19.4441 26.752 19.9195 26.752 20.2045 26.4545C20.4896 26.1571 20.965 26.1571 21.25 26.4545C21.535 26.752 22.0104 26.752 22.2955 26.4545C22.5805 26.1571 23.0559 26.1571 23.3409 26.4545C23.6259 26.752 24.1013 26.752 24.3864 26.4545C24.6714 26.1571 25.1468 26.1571 25.4318 26.4545C25.7168 26.752 26.1922 26.752 26.4773 26.4545L26.4995 26.4313C26.7793 26.1394 26.7793 25.6788 26.4995 25.3868L26.4773 25.3636C26.185 25.0587 26.185 24.5777 26.4773 24.2727C26.7695 23.9678 26.7695 23.4867 26.4773 23.1818C26.185 22.8769 26.185 22.3958 26.4773 22.0909C26.7695 21.786 26.7695 21.3049 26.4773 21C26.185 20.6951 26.185 20.214 26.4773 19.9091C26.7695 19.6042 26.7695 19.1231 26.4773 18.8182C26.185 18.5133 26.185 18.0322 26.4773 17.7273C26.7695 17.4223 26.7695 16.9413 26.4773 16.6364C26.185 16.3314 26.185 15.8504 26.4773 15.5455C26.7695 15.2405 26.7695 14.7595 26.4773 14.4545C26.185 14.1496 26.185 13.6686 26.4773 13.3636C26.7695 13.0587 26.7695 12.5777 26.4773 12.2727C26.185 11.9678 26.185 11.4867 26.4773 11.1818C26.7695 10.8769 26.7695 10.3958 26.4773 10.0909C26.185 9.78598 26.185 9.30493 26.4773 9C26.7695 8.69507 26.7695 8.21402 26.4773 7.90909C26.185 7.60416 26.185 7.12311 26.4773 6.81818C26.7695 6.51325 26.7695 6.0322 26.4773 5.72727C26.185 5.42234 26.185 4.94129 26.4773 4.63636L26.4995 4.61316C26.7793 4.32121 26.7793 3.86061 26.4995 3.56865Z" fill="white" stroke="#393939" stroke-linejoin="round"/>
<circle cx="8" cy="7" r="1" fill="#393939"/>
<circle cx="8" cy="11" r="1" fill="#393939"/>
<circle cx="8" cy="15" r="1" fill="#393939"/>
<circle cx="8" cy="19" r="1" fill="#393939"/>
<circle cx="8" cy="23" r="1" fill="#393939"/>
<circle cx="11" cy="7" r="1" fill="#393939"/>
<circle cx="11" cy="11" r="1" fill="#393939"/>
<circle cx="11" cy="15" r="1" fill="#393939"/>
<circle cx="11" cy="19" r="1" fill="#393939"/>
<circle cx="11" cy="23" r="1" fill="#393939"/>
<circle cx="14" cy="7" r="1" fill="#393939"/>
<circle cx="14" cy="11" r="1" fill="#393939"/>
<circle cx="14" cy="15" r="1" fill="#393939"/>
<circle cx="14" cy="19" r="1" fill="#393939"/>
<circle cx="17" cy="7" r="1" fill="#393939"/>
<circle cx="17" cy="11" r="1" fill="#393939"/>
<circle cx="17" cy="15" r="1" fill="#393939"/>
<circle cx="17" cy="19" r="1" fill="#393939"/>
<circle cx="20" cy="7" r="1" fill="#393939"/>
<circle cx="20" cy="11" r="1" fill="#393939"/>
<circle cx="20" cy="15" r="1" fill="#393939"/>
<circle cx="20" cy="19" r="1" fill="#393939"/>
<circle cx="23" cy="7" r="1" fill="#393939"/>
<circle cx="23" cy="11" r="1" fill="#393939"/>
<circle cx="23" cy="15" r="1" fill="#393939"/>
<circle cx="23" cy="19" r="1" fill="#393939"/>
<path d="M28.5 11H30.5" stroke="white" stroke-linejoin="round"/>
<path d="M13.5 11.5C13.2239 11.2239 12.7761 11.2239 12.5 11.5C12.2239 11.7761 12.2239 12.2239 12.5 12.5C12.7761 12.7761 12.7761 13.2239 12.5 13.5C12.2239 13.7761 12.2239 14.2239 12.5 14.5C12.7761 14.7761 12.7761 15.2239 12.5 15.5C12.2239 15.7761 12.2239 16.2239 12.5 16.5C12.7761 16.7761 12.7761 17.2239 12.5 17.5C12.2239 17.7761 12.2239 18.2239 12.5 18.5C12.7761 18.7761 12.7761 19.2239 12.5 19.5C12.2239 19.7761 12.2239 20.2239 12.5 20.5C12.7761 20.7761 12.7761 21.2239 12.5 21.5C12.2239 21.7761 12.2239 22.2239 12.5 22.5C12.7761 22.7761 12.7761 23.2239 12.5 23.5C12.2239 23.7761 12.2239 24.2239 12.5 24.5C12.7761 24.7761 12.7761 25.2239 12.5 25.5C12.2239 25.7761 12.2239 26.2239 12.5 26.5C12.7761 26.7761 12.7761 27.2239 12.5 27.5C12.2239 27.7761 12.2239 28.2239 12.5 28.5C12.7761 28.7761 12.7761 29.2239 12.5 29.5C12.2239 29.7761 12.2239 30.2239 12.5 30.5C12.7761 30.7761 12.7761 31.2239 12.5 31.5C12.2239 31.7761 12.2239 32.2239 12.5 32.5C12.7761 32.7761 13.2239 32.7761 13.5 32.5C13.7761 32.2239 14.2239 32.2239 14.5 32.5C14.7761 32.7761 15.2239 32.7761 15.5 32.5C15.7761 32.2239 16.2239 32.2239 16.5 32.5C16.7761 32.7761 17.2239 32.7761 17.5 32.5C17.7761 32.2239 18.2239 32.2239 18.5 32.5C18.7761 32.7761 19.2239 32.7761 19.5 32.5C19.7761 32.2239 20.2239 32.2239 20.5 32.5C20.7761 32.7761 21.2239 32.7761 21.5 32.5C21.7761 32.2239 22.2239 32.2239 22.5 32.5C22.7761 32.7761 23.2239 32.7761 23.5 32.5C23.7761 32.2239 24.2239 32.2239 24.5 32.5C24.7761 32.7761 25.2239 32.7761 25.5 32.5C25.7761 32.2239 26.2239 32.2239 26.5 32.5C26.7761 32.7761 27.2239 32.7761 27.5 32.5C27.7761 32.2239 28.2239 32.2239 28.5 32.5C28.7761 32.7761 29.2239 32.7761 29.5 32.5C29.7761 32.2239 30.2239 32.2239 30.5 32.5C30.7761 32.7761 31.2239 32.7761 31.5 32.5C31.7761 32.2239 32.2239 32.2239 32.5 32.5C32.7761 32.7761 33.2239 32.7761 33.5 32.5C33.7761 32.2239 33.7761 31.7761 33.5 31.5C33.2239 31.2239 33.2239 30.7761 33.5 30.5C33.7761 30.2239 33.7761 29.7761 33.5 29.5C33.2239 29.2239 33.2239 28.7761 33.5 28.5C33.7761 28.2239 33.7761 27.7761 33.5 27.5C33.2239 27.2239 33.2239 26.7761 33.5 26.5C33.7761 26.2239 33.7761 25.7761 33.5 25.5C33.2239 25.2239 33.2239 24.7761 33.5 24.5C33.7761 24.2239 33.7761 23.7761 33.5 23.5C33.2239 23.2239 33.2239 22.7761 33.5 22.5C33.7761 22.2239 33.7761 21.7761 33.5 21.5C33.2239 21.2239 33.2239 20.7761 33.5 20.5C33.7761 20.2239 33.7761 19.7761 33.5 19.5C33.2239 19.2239 33.2239 18.7761 33.5 18.5C33.7761 18.2239 33.7761 17.7761 33.5 17.5C33.2239 17.2239 33.2239 16.7761 33.5 16.5C33.7761 16.2239 33.7761 15.7761 33.5 15.5C33.2239 15.2239 33.2239 14.7761 33.5 14.5C33.7761 14.2239 33.7761 13.7761 33.5 13.5C33.2239 13.2239 33.2239 12.7761 33.5 12.5C33.7761 12.2239 33.7761 11.7761 33.5 11.5C33.2239 11.2239 32.7761 11.2239 32.5 11.5C32.2239 11.7761 31.7761 11.7761 31.5 11.5C31.2239 11.2239 30.7761 11.2239 30.5 11.5C30.2239 11.7761 29.7761 11.7761 29.5 11.5C29.2239 11.2239 28.7761 11.2239 28.5 11.5C28.2239 11.7761 27.7761 11.7761 27.5 11.5C27.2239 11.2239 26.7761 11.2239 26.5 11.5C26.2239 11.7761 25.7761 11.7761 25.5 11.5C25.2239 11.2239 24.7761 11.2239 24.5 11.5C24.2239 11.7761 23.7761 11.7761 23.5 11.5C23.2239 11.2239 22.7761 11.2239 22.5 11.5C22.2239 11.7761 21.7761 11.7761 21.5 11.5C21.2239 11.2239 20.7761 11.2239 20.5 11.5C20.2239 11.7761 19.7761 11.7761 19.5 11.5C19.2239 11.2239 18.7761 11.2239 18.5 11.5C18.2239 11.7761 17.7761 11.7761 17.5 11.5C17.2239 11.2239 16.7761 11.2239 16.5 11.5C16.2239 11.7761 15.7761 11.7761 15.5 11.5C15.2239 11.2239 14.7761 11.2239 14.5 11.5C14.2239 11.7761 13.7761 11.7761 13.5 11.5Z" fill="white" stroke="#393939" stroke-linejoin="round"/>
<path d="M12 28H34" stroke="#393939" stroke-linejoin="round"/>
<path d="M12 24H34" stroke="#393939" stroke-linejoin="round"/>
<path d="M12 20H34" stroke="#393939" stroke-linejoin="round"/>
<path d="M12 16H34" stroke="#393939" stroke-linejoin="round"/>
</g>
<defs>
<clipPath id="clip0_4651_73120">
<rect width="38" height="38" fill="white"/>
</clipPath>
</defs>
</svg>
