<svg width="38" height="38" viewBox="0 0 38 38" fill="none" xmlns="http://www.w3.org/2000/svg">
<g clip-path="url(#clip0_4651_73093)">
<rect width="38" height="38" fill="white"/>
<path d="M6 33V5C6 4.44772 6.44772 4 7 4H31C31.5523 4 32 4.44772 32 5V33C32 33.5523 31.5523 34 31 34H7C6.44772 34 6 33.5523 6 33Z" stroke="#393939"/>
<rect x="9.5" y="7.5" width="8" height="5" rx="0.5" stroke="#393939"/>
<rect x="20.5" y="7.5" width="8" height="5" rx="0.5" stroke="#393939"/>
<path d="M32 12H6V18H32V12Z" fill="white" stroke="#393939"/>
<rect width="38" height="38" transform="translate(1)" fill="white"/>
<rect x="19" y="16" width="6" height="8" fill="white"/>
<path d="M11 6.22472C12.108 6.06821 12.9154 5.21805 13.3586 4.61535C13.5669 4.33212 14.0083 4.27732 14.2632 4.51941C14.9556 5.17684 16.2205 6.22472 17.25 6.22472C18.3259 6.22472 19.4018 5.8432 19.9242 5.62746C20.1214 5.54602 20.3518 5.58382 20.5035 5.73383L22.6691 7.87511C22.8556 8.05947 22.8705 8.356 22.711 8.56409C22.005 9.48492 20.25 12.0123 20.25 14.382C20.25 16.8507 22.1548 20.1755 22.7938 21.2215C22.9136 21.4175 22.8904 21.6688 22.7343 21.8372L20.5245 24.2207C20.3644 24.3935 20.1044 24.433 19.8893 24.3371C19.3971 24.1176 18.439 23.7753 17.25 23.7753C16.067 23.7753 14.884 24.792 14.2416 25.4507C13.9947 25.704 13.5449 25.6744 13.3205 25.401C12.8699 24.8519 12.077 24.0795 11 23.7753C9.78838 23.433 8.69659 23.9202 8.1395 24.2523C7.91205 24.3879 7.60939 24.3652 7.42936 24.171L5.31515 21.8905C5.13737 21.6987 5.134 21.4021 5.29546 21.1964C6.00563 20.2917 7.75 17.7289 7.75 14.382C7.75 11.25 6.22238 9.35383 5.44426 8.59113C5.22325 8.37451 5.2007 8.0038 5.42076 7.78622L7.46173 5.76817C7.62977 5.60203 7.89183 5.57449 8.10285 5.68082C8.64771 5.95536 9.76122 6.3997 11 6.22472Z" fill="white" stroke="#393939" stroke-width="1.15789" stroke-linejoin="round"/>
<path d="M23 14.2247C24.108 14.0682 24.9154 13.2181 25.3586 12.6153C25.5669 12.3321 26.0083 12.2773 26.2632 12.5194C26.9556 13.1768 28.2205 14.2247 29.25 14.2247C30.3259 14.2247 31.4018 13.8432 31.9242 13.6275C32.1214 13.546 32.3518 13.5838 32.5035 13.7338L34.6691 15.8751C34.8556 16.0595 34.8705 16.356 34.711 16.5641C34.005 17.4849 32.25 20.0123 32.25 22.382C32.25 24.8507 34.1548 28.1755 34.7938 29.2215C34.9136 29.4175 34.8904 29.6688 34.7343 29.8372L32.5245 32.2207C32.3644 32.3935 32.1044 32.433 31.8893 32.3371C31.3971 32.1176 30.439 31.7753 29.25 31.7753C28.067 31.7753 26.884 32.792 26.2416 33.4507C25.9947 33.704 25.5449 33.6744 25.3205 33.401C24.8699 32.8519 24.077 32.0795 23 31.7753C21.7884 31.433 20.6966 31.9202 20.1395 32.2523C19.9121 32.3879 19.6094 32.3652 19.4294 32.171L17.3151 29.8905C17.1374 29.6987 17.134 29.4021 17.2955 29.1964C18.0056 28.2917 19.75 25.7289 19.75 22.382C19.75 19.25 18.2224 17.3538 17.4443 16.5911C17.2233 16.3745 17.2007 16.0038 17.4208 15.7862L19.4617 13.7682C19.6298 13.602 19.8918 13.5745 20.1029 13.6808C20.6477 13.9554 21.7612 14.3997 23 14.2247Z" fill="white" stroke="#393939" stroke-width="1.15789" stroke-linejoin="round"/>
<path d="M26 16L26 30" stroke="#393939" stroke-linejoin="round" stroke-dasharray="2 2"/>
<path d="M14 8L14 22" stroke="#393939" stroke-linejoin="round" stroke-dasharray="2 2"/>
</g>
<defs>
<clipPath id="clip0_4651_73093">
<rect width="38" height="38" fill="white"/>
</clipPath>
</defs>
</svg>
