<svg width="38" height="38" viewBox="0 0 38 38" fill="none" xmlns="http://www.w3.org/2000/svg">
<g clip-path="url(#clip0_4651_73175)">
<rect width="38" height="38" fill="white"/>
<path d="M8 33V5C8 4.44772 8.44772 4 9 4H29C29.5523 4 30 4.44772 30 5V33C30 33.5523 29.5523 34 29 34H9C8.44772 34 8 33.5523 8 33Z" stroke="#393939"/>
<path d="M20 12V8C20 7.72386 20.2239 7.5 20.5 7.5H27.5C27.7761 7.5 28 7.72386 28 8V12C28 12.2761 27.7761 12.5 27.5 12.5H20.5C20.2239 12.5 20 12.2761 20 12Z" stroke="#393939"/>
<path d="M10.5 7.5H17.5C17.7761 7.5 18 7.72386 18 8V12C18 12.2761 17.7761 12.5 17.5 12.5H10.5C10.2239 12.5 10 12.2761 10 12V8C10 7.72386 10.2239 7.5 10.5 7.5Z" stroke="#393939"/>
<path d="M30 12H8V18H30V12Z" fill="white" stroke="#393939"/>
<rect width="38" height="38" fill="white"/>
<rect x="4.5" y="4.5" width="20" height="20" rx="0.5" fill="white" stroke="#393939"/>
<path d="M7 8.5H10.5" stroke="#393939" stroke-linecap="round" stroke-linejoin="round"/>
<path d="M13.5 10.5H15.5" stroke="#393939" stroke-linecap="round" stroke-linejoin="round"/>
<path d="M13.5 14.5H15.5" stroke="#393939" stroke-linecap="round" stroke-linejoin="round"/>
<path d="M13.5 18.5H15.5" stroke="#393939" stroke-linecap="round" stroke-linejoin="round"/>
<path d="M18.5 8.5H22" stroke="#393939" stroke-linecap="round" stroke-linejoin="round"/>
<path d="M7 12.5H10.5" stroke="#393939" stroke-linecap="round" stroke-linejoin="round"/>
<path d="M7 16.5H10.5" stroke="#393939" stroke-linecap="round" stroke-linejoin="round"/>
<path d="M7 20.5H10.5" stroke="#393939" stroke-linecap="round" stroke-linejoin="round"/>
<path d="M18.5 16.5H22" stroke="#393939" stroke-linecap="round" stroke-linejoin="round"/>
<path d="M18.5 20.5H22" stroke="#393939" stroke-linecap="round" stroke-linejoin="round"/>
<rect x="13.5" y="13.5" width="20" height="20" rx="0.5" fill="white" stroke="#393939"/>
<path d="M16 17.5H19.5" stroke="#393939" stroke-linecap="round" stroke-linejoin="round"/>
<path d="M22.5 19.5H24.5" stroke="#393939" stroke-linecap="round" stroke-linejoin="round"/>
<path d="M22.5 23.5H24.5" stroke="#393939" stroke-linecap="round" stroke-linejoin="round"/>
<path d="M22.5 27.5H24.5" stroke="#393939" stroke-linecap="round" stroke-linejoin="round"/>
<path d="M27.5 17.5H31" stroke="#393939" stroke-linecap="round" stroke-linejoin="round"/>
<path d="M16 21.5H19.5" stroke="#393939" stroke-linecap="round" stroke-linejoin="round"/>
<path d="M16 25.5H19.5" stroke="#393939" stroke-linecap="round" stroke-linejoin="round"/>
<path d="M16 29.5H19.5" stroke="#393939" stroke-linecap="round" stroke-linejoin="round"/>
<path d="M27.5 21.5H31" stroke="#393939" stroke-linecap="round" stroke-linejoin="round"/>
<path d="M27.5 25.5H31" stroke="#393939" stroke-linecap="round" stroke-linejoin="round"/>
<path d="M27.5 29.5H31" stroke="#393939" stroke-linecap="round" stroke-linejoin="round"/>
</g>
<defs>
<clipPath id="clip0_4651_73175">
<rect width="38" height="38" fill="white"/>
</clipPath>
</defs>
</svg>
