<svg width="80" height="80" viewBox="0 0 80 80" fill="none" xmlns="http://www.w3.org/2000/svg">
<path d="M40 54.5V55.5V57C40 58.1046 39.1046 59 38 59H22C20.8954 59 20 58.1046 20 57V41C20 39.8954 20.8954 39 22 39H30" stroke="#393939" stroke-width="2" stroke-linecap="round"/>
<path d="M26 39V46.6C26 46.7648 26.1882 46.8589 26.32 46.76L29.88 44.09C29.9511 44.0367 30.0489 44.0367 30.12 44.09L34 47" stroke="#393939" stroke-linecap="round"/>
<circle cx="46.5" cy="34.5" r="7" stroke="#393939"/>
<path d="M46.5004 21.9998C46.5004 21.9998 37.5001 20.5 34.5002 31C31.6721 40.8984 44.8411 55.6847 46.3592 57.3464C46.438 57.4326 46.5693 57.4243 46.6477 57.3376C55.7915 47.2386 60.9867 39.9548 58.5 31.5" stroke="#393939" stroke-width="2" stroke-linecap="round"/>
<path fill-rule="evenodd" clip-rule="evenodd" d="M50.8108 20.5002C50.8108 16.8113 53.8126 13.8105 57.5005 13.8105C61.1884 13.8105 64.1892 16.8113 64.1892 20.5002C64.1892 24.1881 61.1884 27.1889 57.5005 27.1889C53.8126 27.1889 50.8108 24.1881 50.8108 20.5002ZM57.5005 12C52.8141 12 49 15.8131 49 20.5005C49 25.1869 52.8141 29 57.5005 29C62.1869 29 66 25.1869 66 20.5005C66 15.8131 62.1869 12 57.5005 12ZM55.9142 17.3284L57.5 18.9142L59.0858 17.3284C59.5237 16.8905 60.2337 16.8905 60.6716 17.3284C61.1095 17.7663 61.1095 18.4763 60.6716 18.9142L59.0858 20.5L60.6716 22.0858C61.1095 22.5237 61.1095 23.2337 60.6716 23.6716C60.2337 24.1095 59.5237 24.1095 59.0858 23.6716L57.5 22.0858L55.9142 23.6716C55.4763 24.1095 54.7663 24.1095 54.3284 23.6716C53.8905 23.2337 53.8905 22.5237 54.3284 22.0858L55.9142 20.5L54.3284 18.9142C53.8905 18.4763 53.8905 17.7663 54.3284 17.3284C54.7663 16.8905 55.4763 16.8905 55.9142 17.3284Z" fill="#F30000"/>
</svg>
