<svg width="80" height="80" viewBox="0 0 80 80" fill="none" xmlns="http://www.w3.org/2000/svg">
<path d="M40 55.5V57C40 58.1046 39.1046 59 38 59H22C20.8954 59 20 58.1046 20 57V41C20 39.8954 20.8954 39 22 39H30" stroke="#A1A1A1" stroke-width="2" stroke-linecap="round"/>
<path d="M26 39V46.6C26 46.7648 26.1882 46.8589 26.32 46.76L29.88 44.09C29.9511 44.0367 30.0489 44.0367 30.12 44.09L34 47" stroke="#A1A1A1" stroke-linecap="round"/>
<circle cx="46.5" cy="34.5" r="7" stroke="#A1A1A1"/>
<path d="M60 34C60 37.5715 58.0064 42.2441 55.2127 46.7473C52.652 50.875 49.518 54.7039 46.9489 57.1779C44.0114 54.7312 40.8801 50.9099 38.4227 46.7646C35.7682 42.2867 34 37.5989 34 34C34 26.8203 39.8203 21 47 21C54.1797 21 60 26.8203 60 34Z" stroke="#A1A1A1" stroke-width="2"/>
</svg>
