<svg width="60" height="69" viewBox="0 0 60 69" fill="none" xmlns="http://www.w3.org/2000/svg">
<g filter="url(#filter0_d_758_49717)">
<path d="M50 26C50 37.0457 37.5 46.5 30 54C22.5 46.5 10 37.0457 10 26C10 14.9543 18.9543 6 30 6C41.0457 6 50 14.9543 50 26Z" fill="#686868"/>
<path d="M29.2929 54.7071L30 55.4142L30.7071 54.7071C31.9402 53.4741 33.3389 52.1618 34.8079 50.7836C37.6977 48.0725 40.8595 45.1061 43.5678 41.985C47.6711 37.2563 51 31.8965 51 26C51 14.402 41.598 5 30 5C18.402 5 9 14.402 9 26C9 31.8965 12.3289 37.2563 16.4322 41.985C19.1405 45.1061 22.3023 48.0725 25.1921 50.7836C26.6611 52.1618 28.0598 53.4741 29.2929 54.7071Z" stroke="white" stroke-width="2"/>
</g>
<path d="M34.3137 20.1485C35.0453 19.4434 36.2386 19.4367 36.9789 20.1334C37.6623 20.7766 37.7209 21.7944 37.1504 22.5018L36.9947 22.6717L29.5451 29.8512C28.8725 30.4994 27.809 30.5578 27.0662 30.0202L26.8875 29.8734L23.0295 26.2837C22.285 25.591 22.2711 24.4546 22.9985 23.7455C23.6699 23.091 24.7382 23.0294 25.4842 23.5687L25.6635 23.716L28.1798 26.0588L34.3137 20.1485Z" fill="white"/>
<defs>
<filter id="filter0_d_758_49717" x="0" y="0" width="60" height="68.8281" filterUnits="userSpaceOnUse" color-interpolation-filters="sRGB">
<feFlood flood-opacity="0" result="BackgroundImageFix"/>
<feColorMatrix in="SourceAlpha" type="matrix" values="0 0 0 0 0 0 0 0 0 0 0 0 0 0 0 0 0 0 127 0" result="hardAlpha"/>
<feOffset dy="4"/>
<feGaussianBlur stdDeviation="4"/>
<feColorMatrix type="matrix" values="0 0 0 0 0 0 0 0 0 0 0 0 0 0 0 0 0 0 0.2 0"/>
<feBlend mode="normal" in2="BackgroundImageFix" result="effect1_dropShadow_758_49717"/>
<feBlend mode="normal" in="SourceGraphic" in2="effect1_dropShadow_758_49717" result="shape"/>
</filter>
</defs>
</svg>
