<svg width="52" height="60" viewBox="0 0 52 60" fill="none" xmlns="http://www.w3.org/2000/svg">
<g filter="url(#filter0_d_1737_35306)">
<path d="M42 22C42 30.8366 32 38.4 26 44.4C20 38.4 10 30.8366 10 22C10 13.1634 17.1634 6 26 6C34.8366 6 42 13.1634 42 22Z" fill="#686868"/>
<path d="M25.2929 45.1071L26 45.8142L26.7071 45.1071C27.6846 44.1296 28.7986 43.0844 29.9712 41.9842C32.2876 39.8108 34.8326 37.423 37.0053 34.9191C40.2961 31.1267 43 26.7919 43 22C43 12.6112 35.3888 5 26 5C16.6112 5 9 12.6112 9 22C9 26.7919 11.7039 31.1267 14.9947 34.9191C17.1674 37.423 19.7124 39.8108 22.0288 41.9842C23.2014 43.0844 24.3154 44.1296 25.2929 45.1071Z" stroke="white" stroke-width="2"/>
</g>
<path d="M30.3137 17.1485C31.0453 16.4434 32.2386 16.4367 32.9789 17.1334C33.6623 17.7766 33.7209 18.7944 33.1504 19.5018L32.9947 19.6717L25.5451 26.8512C24.8725 27.4994 23.809 27.5578 23.0662 27.0202L22.8875 26.8734L19.0295 23.2837C18.285 22.591 18.2711 21.4546 18.9985 20.7455C19.6699 20.091 20.7382 20.0294 21.4842 20.5687L21.6635 20.716L24.1798 23.0588L30.3137 17.1485Z" fill="white"/>
<defs>
<filter id="filter0_d_1737_35306" x="0" y="0" width="52" height="59.2285" filterUnits="userSpaceOnUse" color-interpolation-filters="sRGB">
<feFlood flood-opacity="0" result="BackgroundImageFix"/>
<feColorMatrix in="SourceAlpha" type="matrix" values="0 0 0 0 0 0 0 0 0 0 0 0 0 0 0 0 0 0 127 0" result="hardAlpha"/>
<feOffset dy="4"/>
<feGaussianBlur stdDeviation="4"/>
<feColorMatrix type="matrix" values="0 0 0 0 0 0 0 0 0 0 0 0 0 0 0 0 0 0 0.2 0"/>
<feBlend mode="normal" in2="BackgroundImageFix" result="effect1_dropShadow_1737_35306"/>
<feBlend mode="normal" in="SourceGraphic" in2="effect1_dropShadow_1737_35306" result="shape"/>
</filter>
</defs>
</svg>
