<svg width="80" height="80" viewBox="0 0 80 80" fill="none" xmlns="http://www.w3.org/2000/svg">
<path fill-rule="evenodd" clip-rule="evenodd" d="M31 27H48V28H31V27ZM31 31H48V32H31V31ZM48 35H31V36H48V35Z" fill="#393939"/>
<path d="M56.5 38.5V36" stroke="#393939" stroke-width="2" stroke-linecap="round" stroke-linejoin="round"/>
<path d="M56.5 35.5V38.5C56.5 38.7761 56.7239 39 57 39H59.5C59.7761 39 60 39.2239 60 39.5V62.5C60 62.7761 59.7761 63 59.5 63H19.5C19.2239 63 19 62.7761 19 62.5V39.5C19 39.2239 19.2239 39 19.5 39H22.5C22.7761 39 23 38.7761 23 38.5V19.5C23 19.2239 23.2239 19 23.5 19H46" stroke="#393939" stroke-width="2" stroke-linecap="round"/>
<path fill-rule="evenodd" clip-rule="evenodd" d="M50.788 23.3936C50.788 19.7511 53.7521 16.788 57.3936 16.788C61.0351 16.788 63.9981 19.7511 63.9981 23.3936C63.9981 27.0351 61.0351 29.9981 57.3936 29.9981C53.7521 29.9981 50.788 27.0351 50.788 23.3936ZM57.3936 15C52.7661 15 49 18.7651 49 23.3936C49 28.021 52.7661 31.7862 57.3936 31.7862C62.021 31.7862 65.7862 28.021 65.7862 23.3936C65.7862 18.7651 62.021 15 57.3936 15ZM56.0802 26.134C56.2373 26.3211 56.4599 26.4336 56.6965 26.4441H56.7313C56.9559 26.4441 57.1706 26.3527 57.3326 26.1876L60.9656 22.6462C61.3125 22.294 61.3234 21.7116 60.9914 21.3447C60.6584 20.9788 60.1068 20.9673 59.7619 21.3184L56.7313 24.3458L55.3232 23.1263C55.0051 22.7467 54.4555 22.7121 54.0956 23.0474C53.7368 23.3838 53.703 23.9662 54.0211 24.3458L56.0802 26.134Z" fill="#83C150"/>
<path d="M19 39L39.2397 51.3413C39.3995 51.4387 39.6005 51.4387 39.7603 51.3413L60 39" stroke="#393939" stroke-linecap="round"/>
<path d="M19 63L34 54" stroke="#393939" stroke-linecap="round"/>
<path d="M60 63L45 54" stroke="#393939" stroke-linecap="round"/>
</svg>
