<svg width="80" height="80" viewBox="0 0 80 80" fill="none" xmlns="http://www.w3.org/2000/svg">
<mask id="path-1-inside-1_978_2969" fill="white">
<path d="M38.1466 25.5373C38.1309 25.254 37.8885 25.0361 37.6058 25.0609C34.6696 25.3177 31.8577 26.381 29.483 28.1381C26.9705 29.9972 25.0576 32.5515 23.9803 35.4855C22.9031 38.4195 22.7088 41.6047 23.4214 44.6479C24.134 47.6911 25.7223 50.459 27.9902 52.6097C30.2581 54.7604 33.1062 56.1997 36.1829 56.75C39.2596 57.3004 42.4301 56.9375 45.3029 55.7063C48.1756 54.475 50.6249 52.4294 52.3482 49.8219C53.977 47.3574 54.8898 44.4931 54.9906 41.5474C55.0003 41.2638 54.77 41.0332 54.4862 41.0326C54.2025 41.032 53.9729 41.2617 53.9626 41.5452C53.8626 44.2901 53.0091 46.9583 51.491 49.2554C49.8784 51.6954 47.5864 53.6097 44.8981 54.7619C42.2098 55.914 39.2429 56.2536 36.3638 55.7386C33.4847 55.2237 30.8195 53.8767 28.6972 51.8641C26.575 49.8515 25.0887 47.2614 24.4218 44.4137C23.755 41.5659 23.9368 38.5852 24.9449 35.8396C25.9529 33.094 27.743 30.7038 30.0942 28.9641C32.3075 27.3264 34.9267 26.3327 37.6625 26.0873C37.9451 26.062 38.1622 25.8206 38.1466 25.5373Z"/>
</mask>
<path d="M38.1466 25.5373C38.1309 25.254 37.8885 25.0361 37.6058 25.0609C34.6696 25.3177 31.8577 26.381 29.483 28.1381C26.9705 29.9972 25.0576 32.5515 23.9803 35.4855C22.9031 38.4195 22.7088 41.6047 23.4214 44.6479C24.134 47.6911 25.7223 50.459 27.9902 52.6097C30.2581 54.7604 33.1062 56.1997 36.1829 56.75C39.2596 57.3004 42.4301 56.9375 45.3029 55.7063C48.1756 54.475 50.6249 52.4294 52.3482 49.8219C53.977 47.3574 54.8898 44.4931 54.9906 41.5474C55.0003 41.2638 54.77 41.0332 54.4862 41.0326C54.2025 41.032 53.9729 41.2617 53.9626 41.5452C53.8626 44.2901 53.0091 46.9583 51.491 49.2554C49.8784 51.6954 47.5864 53.6097 44.8981 54.7619C42.2098 55.914 39.2429 56.2536 36.3638 55.7386C33.4847 55.2237 30.8195 53.8767 28.6972 51.8641C26.575 49.8515 25.0887 47.2614 24.4218 44.4137C23.755 41.5659 23.9368 38.5852 24.9449 35.8396C25.9529 33.094 27.743 30.7038 30.0942 28.9641C32.3075 27.3264 34.9267 26.3327 37.6625 26.0873C37.9451 26.062 38.1622 25.8206 38.1466 25.5373Z" stroke="#393939" stroke-width="2" mask="url(#path-1-inside-1_978_2969)"/>
<mask id="path-2-inside-2_978_2969" fill="white">
<path d="M40 23.8C40 23.3582 40.3584 22.9979 40.7997 23.02C42.6276 23.1115 44.4284 23.516 46.1229 24.2179C48.0641 25.022 49.828 26.2006 51.3137 27.6863C52.7994 29.172 53.978 30.9359 54.7821 32.8771C55.484 34.5716 55.8885 36.3724 55.98 38.2003C56.0021 38.6416 55.6418 39 55.2 39L40.8 39C40.3582 39 40 38.6418 40 38.2V23.8Z"/>
</mask>
<path d="M40 23.8C40 23.3582 40.3584 22.9979 40.7997 23.02C42.6276 23.1115 44.4284 23.516 46.1229 24.2179C48.0641 25.022 49.828 26.2006 51.3137 27.6863C52.7994 29.172 53.978 30.9359 54.7821 32.8771C55.484 34.5716 55.8885 36.3724 55.98 38.2003C56.0021 38.6416 55.6418 39 55.2 39L40.8 39C40.3582 39 40 38.6418 40 38.2V23.8Z" stroke="#393939" stroke-width="4" mask="url(#path-2-inside-2_978_2969)"/>
</svg>
