<svg width="31" height="18" viewBox="0 0 31 18" fill="none" xmlns="http://www.w3.org/2000/svg">
<path d="M30.4308 7.0003V11.4308H28.9353V8.32289H27.4954V11.4308H26V7H30.4308V7.0003Z" fill="black"/>
<path fill-rule="evenodd" clip-rule="evenodd" d="M22.7402 11.6306C24.1521 11.6306 25.2006 10.7568 25.2006 9.43213C25.2006 8.15002 24.427 7.31757 23.1342 7.31757C22.5375 7.31757 22.0452 7.52955 21.6744 7.89533C21.7629 7.13931 22.3963 6.58738 23.0937 6.58738C23.2546 6.58738 24.4663 6.5848 24.4663 6.5848L25.1515 5.26135C25.1515 5.26135 23.6303 5.2963 22.9231 5.2963C21.3073 5.32472 20.2159 6.80712 20.2159 8.60758C20.2159 10.7051 21.2804 11.6306 22.7402 11.6306ZM22.7487 8.48981C23.273 8.48981 23.6364 8.8375 23.6364 9.43198C23.6364 9.96704 23.3135 10.4079 22.7487 10.4091C22.2086 10.4091 21.8451 10.0006 21.8451 9.4411C21.8451 8.84647 22.2086 8.48981 22.7487 8.48981Z" fill="black"/>
<path d="M19.0102 9.86834C19.0102 9.86834 18.6423 10.0819 18.0928 10.1223C17.4612 10.1412 16.8984 9.7394 16.8984 9.02551C16.8984 8.32913 17.395 7.93002 18.0769 7.93002C18.4951 7.93002 19.0482 8.2219 19.0482 8.2219C19.0482 8.2219 19.453 7.47386 19.6626 7.09976C19.2787 6.80669 18.7673 6.646 18.1725 6.646C16.6714 6.646 15.5088 7.6317 15.5088 9.01667C15.5088 10.4193 16.6016 11.3821 18.1725 11.353C18.6116 11.3366 19.2174 11.1813 19.5867 10.9424L19.0102 9.86834Z" fill="black"/>
<path d="M0 3.87708L2.21538 7.8058V10.2022L0.00259163 14.1232L0 3.87708Z" fill="#5B57A2"/>
<path d="M8.30676 6.53851L10.3065 5.26532L14.3991 5.26135L8.30676 9.13828V6.53851Z" fill="#D90751"/>
<path d="M8.29559 3.93158L8.3073 9.13846L6.09192 7.78337V0L8.29574 3.93158H8.29559Z" fill="#FAB718"/>
<path d="M14.3996 5.25755L10.269 5.26154L8.23943 3.98362L6.09192 0L14.3995 5.25755H14.3996Z" fill="#ED6F26"/>
<path d="M8.30694 13.9024L8.30834 11.3142L6.09296 9.99121L6.09277 17.8191L8.30694 13.9024Z" fill="#63B22F"/>
<path d="M10.2761 12.7386L2.15223 7.73803L0 3.87708L14.4 12.7336L10.2759 12.7386H10.2761Z" fill="#1487C9"/>
<path d="M6.09192 18.0002L8.25202 14.0126L10.2677 12.7439L14.3996 12.7386L6.09192 18.0002Z" fill="#017F36"/>
<path d="M0 14.1232L6.28351 10.2557L4.23529 9L2.13945 10.3053L0 14.1232Z" fill="#984995"/>
</svg>
