<svg width="80" height="80" viewBox="0 0 80 80" fill="none" xmlns="http://www.w3.org/2000/svg">
<path d="M37.7101 45.4818C37.6123 45.6545 37.4928 45.7841 37.3516 45.8704C37.2103 45.9568 37.0691 46 36.9278 46C36.7322 46 36.5584 45.9298 36.4063 45.7895C36.265 45.6491 36.1944 45.471 36.1944 45.2551C36.1944 45.0715 36.2487 44.888 36.3574 44.7045L42.2899 34.5182C42.3877 34.3455 42.5072 34.2159 42.6484 34.1296C42.7897 34.0432 42.9309 34 43.0722 34C43.2678 34 43.4362 34.0702 43.5774 34.2105C43.7295 34.3509 43.8056 34.529 43.8056 34.7449C43.8056 34.9285 43.7513 35.112 43.6426 35.2955L37.7101 45.4818ZM35.901 41.1093C34.9884 41.1093 34.2767 40.8124 33.766 40.2186C33.2553 39.6248 33 38.7557 33 37.6113C33 36.4777 33.2553 35.614 33.766 35.0202C34.2767 34.4265 34.9884 34.1296 35.901 34.1296C36.8137 34.1296 37.5254 34.4265 38.0361 35.0202C38.5576 35.614 38.8184 36.4777 38.8184 37.6113C38.8184 38.7557 38.5576 39.6248 38.0361 40.2186C37.5254 40.8124 36.8137 41.1093 35.901 41.1093ZM35.901 39.7976C36.3139 39.7976 36.6127 39.6302 36.7974 39.2955C36.993 38.9501 37.0908 38.3887 37.0908 37.6113C37.0908 36.8556 36.993 36.305 36.7974 35.9595C36.6019 35.614 36.3031 35.4413 35.901 35.4413C35.499 35.4413 35.2002 35.614 35.0047 35.9595C34.8199 36.2942 34.7276 36.8448 34.7276 37.6113C34.7276 38.3887 34.8199 38.9501 35.0047 39.2955C35.2002 39.6302 35.499 39.7976 35.901 39.7976ZM44.099 45.8219C43.1863 45.8219 42.4746 45.525 41.9639 44.9312C41.4532 44.3374 41.1979 43.4629 41.1979 42.3077C41.1979 41.1741 41.4532 40.3158 41.9639 39.7328C42.4854 39.139 43.1971 38.8421 44.099 38.8421C45.0116 38.8421 45.7233 39.139 46.234 39.7328C46.7447 40.3266 47 41.1903 47 42.3239C47 43.4683 46.7447 44.3374 46.234 44.9312C45.7233 45.525 45.0116 45.8219 44.099 45.8219ZM44.099 44.5101C44.501 44.5101 44.7998 44.3428 44.9953 44.0081C45.1909 43.6626 45.2887 43.1012 45.2887 42.3239C45.2887 41.5682 45.1909 41.0175 44.9953 40.6721C44.7998 40.3266 44.501 40.1538 44.099 40.1538C43.6969 40.1538 43.3981 40.3266 43.2026 40.6721C43.007 41.0175 42.9092 41.5682 42.9092 42.3239C42.9092 43.1012 43.007 43.6626 43.2026 44.0081C43.3981 44.3428 43.6969 44.5101 44.099 44.5101Z" fill="#393939"/>
<mask id="path-2-inside-1_978_2979" fill="white">
<path d="M54.8791 35.6667C55.1457 35.589 55.4255 35.7421 55.4948 36.011C56.3472 39.3218 56.1175 42.8236 54.832 46.0009C53.4836 49.3338 51.0519 52.1154 47.929 53.8971C44.8062 55.6789 41.1743 56.3569 37.619 55.8218C34.0636 55.2868 30.7921 53.5699 28.332 50.948C25.8719 48.326 24.3665 44.952 24.0587 41.3698C23.7509 37.7876 24.6586 34.2062 26.6354 31.203C28.6121 28.1999 31.5428 25.95 34.9547 24.8163C38.2074 23.7355 41.7167 23.7291 44.9666 24.7904C45.2305 24.8765 45.3655 25.1656 45.271 25.4267C45.1766 25.6878 44.8885 25.822 44.6244 25.7364C41.5872 24.7517 38.31 24.7609 35.2718 25.7705C32.0743 26.833 29.3278 28.9414 27.4752 31.7559C25.6227 34.5703 24.7721 37.9267 25.0605 41.2837C25.349 44.6408 26.7597 47.8028 29.0653 50.26C31.3708 52.7171 34.4367 54.3261 37.7686 54.8275C41.1005 55.329 44.5042 54.6936 47.4307 53.0238C50.3573 51.354 52.6362 48.7472 53.8999 45.6238C55.1007 42.6559 55.3184 39.3859 54.5289 36.2923C54.4602 36.0232 54.6125 35.7443 54.8791 35.6667Z"/>
</mask>
<path d="M54.8791 35.6667C55.1457 35.589 55.4255 35.7421 55.4948 36.011C56.3472 39.3218 56.1175 42.8236 54.832 46.0009C53.4836 49.3338 51.0519 52.1154 47.929 53.8971C44.8062 55.6789 41.1743 56.3569 37.619 55.8218C34.0636 55.2868 30.7921 53.5699 28.332 50.948C25.8719 48.326 24.3665 44.952 24.0587 41.3698C23.7509 37.7876 24.6586 34.2062 26.6354 31.203C28.6121 28.1999 31.5428 25.95 34.9547 24.8163C38.2074 23.7355 41.7167 23.7291 44.9666 24.7904C45.2305 24.8765 45.3655 25.1656 45.271 25.4267C45.1766 25.6878 44.8885 25.822 44.6244 25.7364C41.5872 24.7517 38.31 24.7609 35.2718 25.7705C32.0743 26.833 29.3278 28.9414 27.4752 31.7559C25.6227 34.5703 24.7721 37.9267 25.0605 41.2837C25.349 44.6408 26.7597 47.8028 29.0653 50.26C31.3708 52.7171 34.4367 54.3261 37.7686 54.8275C41.1005 55.329 44.5042 54.6936 47.4307 53.0238C50.3573 51.354 52.6362 48.7472 53.8999 45.6238C55.1007 42.6559 55.3184 39.3859 54.5289 36.2923C54.4602 36.0232 54.6125 35.7443 54.8791 35.6667Z" stroke="#393939" stroke-width="4" mask="url(#path-2-inside-1_978_2979)"/>
<path d="M55 26L49 32" stroke="#393939" stroke-width="2" stroke-linecap="round"/>
<path d="M49 26L55 32" stroke="#393939" stroke-width="2" stroke-linecap="round"/>
</svg>
