<svg width="80" height="80" viewBox="0 0 80 80" fill="none" xmlns="http://www.w3.org/2000/svg">
<path fill-rule="evenodd" clip-rule="evenodd" d="M58.2655 19.7652L63.209 24.7116C63.7188 25.2226 64 25.9006 64 26.6216C64 27.3434 63.7188 28.0214 63.209 28.5323L45.1522 46.6051C45.0768 46.6805 44.9852 46.7373 44.8855 46.773L32.9442 50.9603C32.8672 50.987 32.7877 51 32.7091 51C32.5244 51 32.3428 50.927 32.2075 50.7924C32.0154 50.5994 31.9498 50.3131 32.0397 50.056L36.2239 38.1064C36.2595 38.0058 36.3163 37.9142 36.3916 37.8388L54.4485 19.7652C55.468 18.7449 57.2469 18.7449 58.2655 19.7652ZM56.8502 21.1783C56.6365 20.9643 56.201 20.9428 55.9424 21.1145L55.8633 21.1789L54.0219 23.0219L59.9572 28.9572L61.7932 27.1198C61.9022 27.0105 61.9692 26.8796 61.9916 26.7337L62 26.6216C62 26.4691 61.9549 26.3297 61.8677 26.2107L61.7944 26.1254L56.8502 21.1783ZM58.9577 29.9577L53.0223 24.0223L39.0285 38.0285L44.9636 43.9636L58.9577 29.9577ZM38.014 39.044L38.029 39.029L43.964 44.964L43.946 44.982L34.813 48.184L38.014 39.044ZM24.5 23C23.6716 23 23 23.6716 23 24.5V58.5C23 59.3284 23.6716 60 24.5 60H52.5C53.3284 60 54 59.3284 54 58.5V45C54 44.4477 53.5523 44 53 44C52.4477 44 52 44.4477 52 45V58H25V25H44C44.5523 25 45 24.5523 45 24C45 23.4477 44.5523 23 44 23H24.5Z" fill="#393939"/>
</svg>
