<svg width="91" height="45" viewBox="0 0 91 45" fill="none" xmlns="http://www.w3.org/2000/svg">
<g clip-path="url(#clip0_3622_10737)">
<path d="M79.3913 12.845V23.8467H75.447V16.1292H71.6493V23.8467H67.7051V12.8442H79.3913V12.845Z" fill="black"/>
<path fill-rule="evenodd" clip-rule="evenodd" d="M59.6047 24.24C63.1359 24.24 65.7579 22.0838 65.7579 18.8153C65.7579 15.6514 63.8234 13.5971 60.5904 13.5971C59.0984 13.5971 57.8672 14.1203 56.9399 15.0229C57.1613 13.1573 58.7452 11.7953 60.4891 11.7953C60.8916 11.7953 63.9217 11.7889 63.9217 11.7889L65.6348 8.52264C65.6348 8.52264 61.831 8.60889 60.0626 8.60889C56.022 8.67939 53.2927 12.3375 53.2927 16.7801C53.2927 21.9566 55.9546 24.2404 59.6051 24.2404L59.6047 24.24ZM59.6266 16.4899C60.9376 16.4899 61.8464 17.3479 61.8464 18.8149C61.8464 20.1349 61.0388 21.2231 59.6266 21.2261C58.2757 21.2261 57.3668 20.2181 57.3668 18.8374C57.3668 17.37 58.2757 16.4899 59.6266 16.4899Z" fill="black"/>
<path d="M50.082 20.1638C50.082 20.1638 49.1505 20.6985 47.759 20.7998C46.16 20.847 44.7349 19.8409 44.7349 18.0533C44.7349 16.3095 45.9925 15.3101 47.7191 15.3101C48.7778 15.3101 50.1784 16.041 50.1784 16.041C50.1784 16.041 51.2032 14.1679 51.7341 13.2311C50.762 12.4973 49.4672 12.0949 47.9612 12.0949C44.1604 12.0949 41.2166 14.5631 41.2166 18.0311C41.2166 21.5434 43.9834 23.9543 47.9612 23.8811C49.073 23.8399 50.6068 23.4514 51.5417 22.8533L50.082 20.1638Z" fill="black"/>
<path d="M1.58203 9.795L7.05333 19.5356V25.4771L1.58843 35.1986L1.58203 9.795Z" fill="#5B57A2"/>
<path d="M22.5898 15.9911L27.7166 12.8613L38.2089 12.8516L22.5898 22.3818V15.9911Z" fill="#D90751"/>
<path d="M22.5606 9.73763L22.5896 22.6339L17.1055 19.2776V0L22.5606 9.73763Z" fill="#FAB718"/>
<path d="M38.2087 12.8516L27.716 12.8614L22.5606 9.73763L17.1055 0L38.2087 12.8516Z" fill="#ED6F26"/>
<path d="M22.5896 35.2525V28.9956L17.1055 25.7031L17.1085 44.9999L22.5896 35.2525Z" fill="#63B22F"/>
<path d="M27.7036 32.1514L7.05295 19.5356L1.58203 9.795L38.1865 32.1386L27.7036 32.1514Z" fill="#1487C9"/>
<path d="M17.1086 45.0002L22.589 35.2528L27.703 32.1515L38.1859 32.1388L17.1086 45.0002Z" fill="#017F36"/>
<path d="M1.58887 35.1986L17.1507 25.7036L11.9189 22.5063L7.05376 25.4771L1.58887 35.1986Z" fill="#984995"/>
<path d="M44.7356 31.2515C44.6151 31.4045 44.4566 31.52 44.2664 31.598C44.0714 31.6771 43.8626 31.7173 43.652 31.7165C43.4425 31.7193 43.2343 31.6845 43.0372 31.6137C42.8602 31.5497 42.6984 31.4498 42.562 31.3205C42.4274 31.1909 42.3217 31.0345 42.2518 30.8615C42.1761 30.6718 42.1384 30.4693 42.1407 30.2652C42.1407 30.0627 42.1757 29.8752 42.2484 29.6978C42.3149 29.5262 42.4162 29.3699 42.5458 29.2388C42.6751 29.1087 42.8279 29.004 42.9961 28.9302C43.1705 28.8552 43.3606 28.8147 43.5695 28.8147C43.7947 28.8147 44.0037 28.8428 44.1938 28.8987C44.3839 28.955 44.5454 29.0487 44.6783 29.18L44.4472 29.57C44.3354 29.469 44.2037 29.3924 44.0605 29.345C43.9243 29.3012 43.782 29.2792 43.6388 29.2797C43.5127 29.2797 43.3922 29.3045 43.2751 29.351C43.1597 29.3974 43.0543 29.4653 42.9645 29.5512C42.8727 29.6394 42.8004 29.7457 42.7522 29.8632C42.6975 29.9912 42.6706 30.1292 42.6731 30.2682C42.6731 30.4216 42.7013 30.5588 42.7552 30.677C42.8094 30.7992 42.8821 30.902 42.9735 30.9893C43.0658 31.0771 43.1731 31.1423 43.297 31.1862C43.4226 31.2329 43.5559 31.2562 43.69 31.2548C43.861 31.2548 44.0165 31.2203 44.1494 31.1547C44.2811 31.0914 44.3994 31.0035 44.498 30.896L44.7356 31.2515ZM45.388 31.6508V28.874H45.8888V30.9428L47.5172 28.874H48.0179V31.6512H47.5172V29.5823L45.8888 31.6512L45.388 31.6508ZM51.3349 31.2515C51.2117 31.4058 51.0501 31.5252 50.8661 31.598C50.6709 31.677 50.462 31.7173 50.2513 31.7165C50.0419 31.7193 49.8338 31.6845 49.6368 31.6137C49.4597 31.5497 49.2978 31.4498 49.1613 31.3205C49.0267 31.1909 48.921 31.0345 48.8511 30.8615C48.7754 30.6718 48.7377 30.4693 48.74 30.2652C48.74 30.0627 48.775 29.8752 48.8477 29.6978C48.9177 29.5197 49.019 29.3671 49.1451 29.2388C49.2744 29.1087 49.4272 29.004 49.5954 28.9302C49.776 28.851 49.9716 28.8116 50.1688 28.8147C50.394 28.8147 50.6029 28.8428 50.7931 28.8987C50.9832 28.955 51.1447 29.0487 51.278 29.18L51.0465 29.57C50.9348 29.469 50.8033 29.3923 50.6602 29.345C50.5239 29.3013 50.3816 29.2793 50.2385 29.2797C49.9869 29.2806 49.7454 29.3778 49.5638 29.5512C49.4728 29.6401 49.4006 29.7461 49.3515 29.8632C49.2968 29.9912 49.2699 30.1292 49.2724 30.2682C49.2724 30.4216 49.301 30.5588 49.3548 30.677C49.4087 30.7992 49.4814 30.902 49.5732 30.9893C49.6651 31.0771 49.7728 31.1423 49.8966 31.1862C50.0201 31.2297 50.15 31.2548 50.2893 31.2548C50.4606 31.2548 50.6127 31.2203 50.7486 31.1547C50.8803 31.0914 50.9987 31.0035 51.0973 30.896L51.3349 31.2515ZM51.5916 28.874H54.1609V29.3671H53.1281V31.6508H52.6274V29.3671H51.5946V28.874H51.5916Z" fill="black"/>
<path fill-rule="evenodd" clip-rule="evenodd" d="M56.4993 31.6229C56.6894 31.5637 56.8509 31.4729 56.9902 31.3484L56.8381 30.9614C56.7462 31.0428 56.6228 31.1114 56.474 31.1677C56.3249 31.2239 56.157 31.2517 55.9733 31.2517C55.6977 31.2517 55.4695 31.18 55.2888 31.0334C55.1081 30.8864 55.0102 30.6809 54.9876 30.4184H57.1551C57.1782 30.3087 57.1888 30.1967 57.1868 30.0847C57.1891 29.9066 57.1534 29.7301 57.0821 29.5668C57.0172 29.4153 56.9225 29.2783 56.8035 29.164C56.6828 29.0508 56.5406 28.9628 56.3852 28.9053C56.2225 28.8424 56.0495 28.8106 55.875 28.8115C55.6405 28.8115 55.4345 28.852 55.2538 28.927C55.0834 28.9985 54.9294 29.1036 54.8009 29.236C54.676 29.3678 54.5801 29.524 54.5192 29.6947C54.4523 29.8764 54.419 30.0688 54.421 30.2624C54.421 30.481 54.4586 30.6805 54.5287 30.8587C54.5964 31.0312 54.7001 31.1875 54.8329 31.3173C54.9628 31.4448 55.1209 31.5419 55.308 31.6105C55.5084 31.6813 55.7197 31.7161 55.9323 31.7133C56.1247 31.7121 56.3159 31.6814 56.4993 31.6229ZM55.232 29.4854C55.3871 29.3452 55.593 29.2765 55.8528 29.2765C56.0968 29.2765 56.2933 29.3422 56.436 29.4734C56.5787 29.6043 56.6544 29.7854 56.6672 30.016H54.9564C54.9806 29.8118 55.0786 29.623 55.232 29.4854Z" fill="black"/>
<path d="M57.8672 28.874H58.3235L59.4071 30.2503L60.4334 28.874H60.8769V31.6513H60.3762V29.6263L59.4007 30.9148H59.3815L58.3679 29.6259V31.6509H57.8672V28.874Z" fill="black"/>
<path fill-rule="evenodd" clip-rule="evenodd" d="M62.24 28.8833C62.0881 28.9229 61.9431 28.9848 61.8096 29.0671L61.9425 29.4608C62.0566 29.4046 62.1707 29.3577 62.2848 29.3172C62.3989 29.276 62.5446 29.2572 62.7189 29.2572C62.8582 29.2572 62.9693 29.2797 63.0547 29.3232C63.1402 29.3637 63.2034 29.4263 63.2479 29.5013C63.2923 29.5763 63.3209 29.6697 63.3367 29.7788C63.3525 29.888 63.3589 30.0065 63.3589 30.1347C63.2564 30.0636 63.1394 30.0156 63.0163 29.9941C62.8975 29.9706 62.7768 29.958 62.6556 29.9566C62.5065 29.9566 62.3672 29.9787 62.2339 30.0158C62.101 30.0533 61.987 30.1096 61.8951 30.1846C61.8012 30.2594 61.7253 30.3542 61.673 30.4621C61.6173 30.5802 61.5892 30.7093 61.5909 30.8397C61.5909 31.1112 61.67 31.3235 61.8281 31.4735C61.987 31.6231 62.1959 31.6977 62.4557 31.6977C62.6903 31.6977 62.8774 31.6572 63.0197 31.5762C63.1624 31.4948 63.2765 31.4015 63.3586 31.295V31.6542H63.8277V29.9506C63.8277 29.5883 63.7486 29.3078 63.5867 29.1106C63.4286 28.9145 63.1462 28.8143 62.7471 28.8143C62.5698 28.8143 62.4015 28.8395 62.24 28.8833ZM63.0773 31.1333C62.9632 31.2143 62.8138 31.2515 62.6304 31.2515C62.4685 31.2515 62.342 31.211 62.2535 31.133C62.1647 31.052 62.1203 30.9455 62.1203 30.8142C62.1203 30.737 62.1361 30.6713 62.1711 30.6117C62.2061 30.5521 62.2535 30.506 62.3074 30.4685C62.3663 30.4292 62.4317 30.4007 62.5005 30.3841C62.5736 30.3653 62.6462 30.356 62.7223 30.356C62.9696 30.356 63.1816 30.4152 63.3559 30.5397V30.8922C63.2738 30.984 63.1802 31.0653 63.0773 31.1333ZM68.2478 27.8971C68.3491 27.8506 68.4436 27.7726 68.5328 27.6571L68.2602 27.2671C68.1906 27.3608 68.1115 27.4261 68.0226 27.4606C67.9285 27.4972 67.8308 27.5244 67.7312 27.5416L67.6363 27.5585C67.5535 27.5727 67.4654 27.5885 67.3702 27.6042C67.2174 27.6324 67.0685 27.6784 66.9266 27.7415C66.7015 27.8382 66.5212 27.9691 66.3845 28.1345C66.2478 28.2998 66.1409 28.487 66.0678 28.6932C65.9939 28.9022 65.944 29.1188 65.9191 29.339C65.8935 29.564 65.8811 29.7788 65.8811 29.9847C65.8811 30.2502 65.9157 30.4902 65.9854 30.7055C66.0554 30.9211 66.1533 31.1018 66.2828 31.2485C66.4131 31.3985 66.5686 31.511 66.7523 31.592C66.9361 31.673 67.142 31.7135 67.3732 31.7135C67.5855 31.7135 67.7821 31.673 67.9594 31.598C68.1303 31.5259 68.2854 31.421 68.4157 31.2893C68.5422 31.1611 68.6439 31.0081 68.7131 30.8367C68.7859 30.6627 68.8226 30.4758 68.8212 30.2873C68.8212 30.0785 68.7896 29.8883 68.7293 29.7196C68.6738 29.5587 68.5854 29.4111 68.4695 29.2861C68.3535 29.1632 68.2117 29.0672 68.0543 29.0048C67.8809 28.9368 67.6958 28.9029 67.5095 28.9051C67.389 28.9051 67.2719 28.9208 67.1578 28.952C67.0468 28.9831 66.9403 29.0282 66.8408 29.0862C66.7442 29.1413 66.6558 29.2094 66.578 29.2887C66.502 29.3671 66.4387 29.4545 66.3943 29.5542H66.3815C66.3908 29.4222 66.4088 29.2909 66.4353 29.1612C66.4639 29.027 66.505 28.8987 66.5592 28.7772C66.613 28.6557 66.6827 28.5462 66.7681 28.4465C66.8598 28.3458 66.9721 28.266 67.0976 28.2125C67.2355 28.147 67.3815 28.0999 67.5317 28.0722L67.6311 28.0542C67.7301 28.0362 67.8246 28.019 67.915 28.0002C68.0354 27.9755 68.1461 27.9436 68.2478 27.8971ZM66.4858 30.5652C66.4369 30.4077 66.4135 30.2433 66.4165 30.0785C66.4377 29.9838 66.4764 29.8939 66.5306 29.8133C66.5863 29.7276 66.6559 29.6516 66.7365 29.5883C66.9226 29.4431 67.1526 29.3651 67.389 29.3671C67.6838 29.3671 67.9056 29.4571 68.0607 29.6356C68.2162 29.8163 68.2922 30.0406 68.2922 30.3125C68.2922 30.4467 68.2666 30.5686 68.2226 30.6807C68.1797 30.7914 68.115 30.8923 68.0322 30.9775C67.9494 31.0627 67.8502 31.1305 67.7406 31.1768C67.6269 31.2267 67.5031 31.2518 67.3638 31.2518C67.2245 31.2518 67.0976 31.2237 66.9805 31.1675C66.8641 31.1123 66.7613 31.0325 66.6793 30.9335C66.5934 30.8231 66.528 30.6984 66.4861 30.5652H66.4858ZM72.6611 28.874H72.1604V31.6512H72.6611V28.874ZM69.5433 28.874H70.0441V29.7072H70.5068C70.7252 29.7072 70.9021 29.7353 71.0452 29.7882C71.1879 29.8415 71.302 29.9131 71.3874 30.0005C71.4729 30.0878 71.5331 30.191 71.5681 30.3061C71.6028 30.4216 71.622 30.5401 71.622 30.665C71.622 30.7898 71.6028 30.9087 71.5617 31.0272C71.5237 31.1457 71.4571 31.2485 71.3682 31.3422C71.2797 31.436 71.1593 31.511 71.0068 31.5672C70.8551 31.6231 70.6713 31.6542 70.4496 31.6542H69.5403V28.874H69.5433ZM70.0441 30.1715V31.1892H70.4085C70.6589 31.1892 70.8362 31.1457 70.9375 31.058C71.0392 30.9706 71.0896 30.8461 71.0896 30.6807C71.0896 30.512 71.0358 30.3845 70.9345 30.2967C70.8298 30.2093 70.6555 30.1655 70.4149 30.1655H70.0441V30.1715Z" fill="black"/>
<path d="M75.9716 31.2514C75.8512 31.4044 75.6927 31.5199 75.5025 31.5979C75.3074 31.6769 75.0987 31.7172 74.8881 31.7164C74.6786 31.7192 74.4703 31.6844 74.2733 31.6136C74.0962 31.5497 73.9344 31.4498 73.7981 31.3204C73.6635 31.1907 73.5577 31.0343 73.4875 30.8614C73.4121 30.6717 73.3745 30.4691 73.3768 30.2651C73.3768 30.0626 73.4115 29.8751 73.4845 29.6977C73.551 29.5261 73.6522 29.3698 73.7819 29.2387C73.9092 29.1075 74.0605 29.0081 74.2322 28.9301C74.4128 28.8509 74.6084 28.8115 74.8056 28.8146C75.0304 28.8146 75.2397 28.8427 75.4299 28.8986C75.62 28.9549 75.7815 29.0486 75.9144 29.1799L75.6833 29.5699C75.5714 29.4689 75.4398 29.3923 75.2966 29.3449C75.1603 29.3012 75.018 29.2791 74.8749 29.2796C74.7488 29.2796 74.6283 29.3044 74.5108 29.3509C74.3955 29.3973 74.2902 29.4653 74.2006 29.5511C74.1095 29.6399 74.0373 29.746 73.9882 29.8631C73.9336 29.9911 73.9067 30.1291 73.9092 30.2681C73.9092 30.4215 73.9374 30.5587 73.9913 30.6769C74.0451 30.7991 74.1181 30.9019 74.2096 30.9892C74.3019 31.077 74.4092 31.1422 74.533 31.1861C74.6569 31.2296 74.7868 31.2547 74.9261 31.2547C75.0849 31.2568 75.242 31.2225 75.3854 31.1546C75.5171 31.0913 75.6355 31.0034 75.7341 30.8959L75.9716 31.2514ZM76.2277 28.8739H78.7977V29.367H77.7645V31.6507H77.2638V29.367H76.2314V28.8739H76.2277Z" fill="black"/>
<path fill-rule="evenodd" clip-rule="evenodd" d="M79.8435 28.8744H79.3428V32.8869H79.8435V31.5234C79.9448 31.589 80.0653 31.6359 80.2046 31.667C80.3439 31.6981 80.4896 31.7135 80.6387 31.7135C80.8604 31.7135 81.06 31.673 81.2407 31.5984C81.414 31.5245 81.5711 31.4175 81.7031 31.2834C81.834 31.1472 81.9352 30.9856 82.0005 30.8086C82.0705 30.6249 82.1055 30.428 82.1055 30.2191C82.1055 30.0129 82.0739 29.8227 82.0137 29.651C81.9569 29.4879 81.8687 29.3374 81.7539 29.2081C81.6412 29.082 81.5015 28.9828 81.345 28.9179C81.1739 28.8446 80.9891 28.8084 80.8028 28.8117C80.6071 28.8117 80.4233 28.8492 80.249 28.9242C80.0747 28.9992 79.9384 29.0892 79.8435 29.2017V28.8744ZM80.1922 29.3892C80.3349 29.3142 80.4896 29.2767 80.6579 29.2767C80.8036 29.2767 80.9335 29.2985 81.051 29.3454C81.165 29.3922 81.2599 29.4579 81.3394 29.5452C81.4184 29.6326 81.4787 29.7327 81.5163 29.8509C81.5577 29.9694 81.5765 30.0976 81.5765 30.2379C81.5765 30.3879 81.5513 30.5217 81.5073 30.6466C81.4657 30.765 81.3998 30.8734 81.3138 30.965C81.2273 31.0554 81.1226 31.1266 81.0065 31.1739C80.8771 31.2278 80.7379 31.2544 80.5977 31.2519C80.4617 31.2519 80.3349 31.2365 80.2144 31.2054C80.0825 31.1696 79.9573 31.1126 79.8439 31.0366V29.6604C79.9324 29.5546 80.0498 29.4642 80.1922 29.3892ZM85.9451 28.874H85.4443V31.6512H85.9451V28.874ZM82.8246 28.874H83.3254V29.7072H83.7877C84.0061 29.7072 84.1838 29.7354 84.3261 29.7882C84.4692 29.8415 84.5833 29.9131 84.6687 30.0005C84.7542 30.0879 84.8144 30.191 84.8491 30.3061C84.8841 30.4216 84.9029 30.5401 84.9029 30.665C84.9029 30.7899 84.8841 30.9087 84.8427 31.0272C84.805 31.1457 84.7384 31.2485 84.6495 31.3422C84.5611 31.436 84.4406 31.511 84.2881 31.5672C84.1364 31.6231 83.9526 31.6542 83.7309 31.6542H82.8216V28.874H82.8246ZM83.3288 30.1715V31.1892H83.6932C83.9432 31.1892 84.1209 31.1457 84.2222 31.058C84.3235 30.9706 84.3743 30.8461 84.3743 30.6807C84.3743 30.512 84.3205 30.3845 84.2192 30.2967C84.1145 30.2094 83.9402 30.1655 83.6996 30.1655H83.3288V30.1715Z" fill="black"/>
<path d="M88.347 30.2126L89.4177 31.6511H88.8033L87.9761 30.5276L87.1365 31.6511H86.5537L87.6181 30.2373L86.6166 28.8738H87.2318L87.9953 29.9223L88.7709 28.8738H89.3545L88.347 30.2126ZM44.3654 35.0835H42.8289V37.3987H42.3281V34.6218H44.8657V37.3987H44.365L44.3654 35.0835ZM47.7076 35.1146H46.7192L46.6872 35.5826C46.6526 35.979 46.6052 36.2973 46.5385 36.5403C46.4719 36.7841 46.3894 36.9712 46.2946 37.1021C46.1997 37.2333 46.0886 37.3233 45.9617 37.3676C45.8308 37.4149 45.6924 37.4381 45.5532 37.4362L45.5152 36.9555C45.5798 36.9569 45.6438 36.9431 45.7019 36.915C45.772 36.8838 45.8412 36.8152 45.9079 36.7125C45.9745 36.606 46.0348 36.4563 46.0886 36.2625C46.1424 36.0663 46.1775 35.8106 46.1963 35.4888L46.2471 34.6245H48.2083V37.4017H47.7076V35.1146Z" fill="black"/>
<path fill-rule="evenodd" clip-rule="evenodd" d="M49.5577 34.6283C49.3959 34.6718 49.2501 34.7341 49.1267 34.8121L49.2599 35.2055C49.374 35.1492 49.4881 35.1023 49.6018 35.0618C49.7159 35.0213 49.8616 35.0026 50.0359 35.0026C50.1752 35.0026 50.2863 35.0243 50.3717 35.0678C50.4576 35.1087 50.5208 35.171 50.5653 35.246C50.6093 35.321 50.6379 35.4147 50.6537 35.5235C50.6695 35.633 50.676 35.7515 50.676 35.8793C50.5734 35.8083 50.4564 35.7604 50.3333 35.7391C50.2145 35.7155 50.0938 35.703 49.9726 35.7016C49.8239 35.7016 49.6842 35.7233 49.551 35.7608C49.4181 35.7983 49.304 35.8546 49.2121 35.9296C49.1182 36.0044 49.0423 36.0992 48.99 36.2071C48.9344 36.3252 48.9065 36.4543 48.9083 36.5847C48.9083 36.8558 48.9873 37.0685 49.1455 37.2181C49.3036 37.3677 49.5133 37.4427 49.7731 37.4427C50.0077 37.4427 50.1944 37.4022 50.3371 37.3208C50.4794 37.2398 50.5931 37.1461 50.676 37.0396V37.3988H51.1451V35.6952C51.1451 35.3333 51.0656 35.0525 50.9041 34.856C50.7456 34.6591 50.4636 34.5597 50.0645 34.5597C49.8933 34.5599 49.7229 34.5832 49.5577 34.6283ZM50.3973 36.8776C50.2836 36.959 50.1345 36.9965 49.9508 36.9965C49.7859 36.9965 49.6624 36.956 49.5739 36.8776C49.4851 36.7966 49.4407 36.6901 49.4407 36.5596C49.4407 36.4816 49.4565 36.416 49.4915 36.3567C49.5261 36.2975 49.5739 36.2506 49.6278 36.2131C49.6816 36.1756 49.7479 36.1475 49.8209 36.1287C49.8933 36.1101 49.9679 36.1008 50.0427 36.101C50.2897 36.101 50.502 36.1602 50.6763 36.2847V36.6372C50.594 36.7288 50.5003 36.8098 50.3973 36.8776Z" fill="black"/>
<path d="M51.6357 34.622H54.2054V35.1147H53.1722V37.3985H52.6715V35.1147H51.6391V34.622H51.6357Z" fill="black"/>
<path fill-rule="evenodd" clip-rule="evenodd" d="M56.5436 37.3706C56.7337 37.3114 56.8952 37.2206 57.0345 37.0961L56.8824 36.7091C56.7906 36.7905 56.6671 36.8591 56.518 36.9154C56.3693 36.9716 56.2013 36.9994 56.0172 36.9994C55.742 36.9994 55.5138 36.9278 55.3331 36.7811C55.1524 36.6345 55.0545 36.4286 55.0319 36.1661H57.1994C57.2213 36.0698 57.2311 35.9599 57.2311 35.8324C57.2311 35.6423 57.1961 35.4705 57.1264 35.3145C57.0615 35.1631 56.9666 35.0262 56.8474 34.9121C56.727 34.7987 56.5849 34.7106 56.4295 34.653C56.2668 34.5902 56.0938 34.5584 55.9193 34.5593C55.6848 34.5593 55.4788 34.5998 55.2981 34.6748C55.1276 34.7461 54.9735 34.8512 54.8452 34.9838C54.7202 35.1155 54.6241 35.2717 54.5628 35.4424C54.4962 35.6242 54.463 35.8166 54.4649 36.0101C54.4649 36.2288 54.5026 36.4283 54.5726 36.6064C54.6426 36.7841 54.7469 36.9371 54.8768 37.065C55.0067 37.1929 55.1652 37.2896 55.3523 37.3583C55.5525 37.4292 55.7638 37.4641 55.9762 37.4614C56.1633 37.4614 56.3534 37.4299 56.5436 37.3706ZM55.2733 35.2301C55.4284 35.0899 55.6343 35.0213 55.8941 35.0213C56.1415 35.0213 56.3346 35.0899 56.4773 35.2178C56.6196 35.349 56.6957 35.5298 56.7085 35.7608H54.9977C55.0218 35.5564 55.1198 35.3678 55.2733 35.2301ZM57.475 34.6219H58.1087L59.0748 35.9606L58.042 37.3988H57.4276L58.5108 35.9603L57.475 34.6219ZM59.1983 34.6219H59.699V37.3988H59.1983V34.6219ZM61.4889 37.3988L60.3865 35.9603L61.4162 34.6215H60.795L59.8225 35.9603L60.8681 37.3988H61.4889ZM63.7765 37.3706C63.9666 37.3114 64.1282 37.2206 64.2675 37.0961L64.1154 36.7091C64.0235 36.7905 63.9 36.8591 63.7513 36.9154C63.6022 36.9716 63.4343 36.9994 63.2506 36.9994C62.975 36.9994 62.7468 36.9278 62.5661 36.7811C62.3854 36.6345 62.2875 36.4286 62.2649 36.1661H64.4324C64.4546 36.0698 64.464 35.9599 64.464 35.8324C64.464 35.6423 64.4294 35.4705 64.3593 35.3145C64.2945 35.1632 64.1997 35.0263 64.0807 34.9121C63.9602 34.7987 63.8179 34.7106 63.6624 34.653C63.4998 34.5902 63.3267 34.5584 63.1523 34.5593C62.9181 34.5593 62.7118 34.5998 62.5311 34.6748C62.3608 34.7462 62.2068 34.8513 62.0785 34.9838C61.9533 35.1154 61.8571 35.2716 61.7961 35.4424C61.7293 35.6242 61.6962 35.8166 61.6982 36.0101C61.6982 36.2288 61.7359 36.4283 61.8059 36.6064C61.8756 36.7841 61.9802 36.9371 62.1101 37.065C62.24 37.1929 62.3982 37.2896 62.5853 37.3583C62.7856 37.4292 62.9969 37.4641 63.2095 37.4614C63.402 37.46 63.5932 37.4294 63.7765 37.3706ZM62.5062 35.2301C62.6617 35.0899 62.8676 35.0213 63.1274 35.0213C63.3714 35.0213 63.5676 35.0899 63.7103 35.2178C63.8529 35.349 63.9286 35.5298 63.9414 35.7608H62.2306C62.2548 35.5564 62.3527 35.3678 62.5062 35.2301ZM66.4952 33.6889C66.2004 33.6889 66.0389 33.5265 66.0133 33.2021H65.5415C65.5415 33.3266 65.5638 33.4391 65.6048 33.5453C65.6462 33.6514 65.7065 33.7418 65.7855 33.8168C65.8646 33.8918 65.9662 33.951 66.083 33.9975C66.2004 34.0444 66.3367 34.0661 66.4918 34.0661C66.623 34.0687 66.7534 34.0454 66.8755 33.9975C66.9896 33.954 67.0844 33.8918 67.1669 33.8168C67.2477 33.7404 67.3113 33.6479 67.3536 33.5453C67.3981 33.4391 67.4203 33.3266 67.4203 33.2021H66.9515C66.929 33.5265 66.7738 33.6889 66.4952 33.6889ZM65.1421 34.6215V37.3988H65.6428L67.2712 35.3299V37.3988H67.7719V34.6215H67.2712L65.6428 36.6904V34.6215H65.1421Z" fill="black"/>
</g>
<defs>
<clipPath id="clip0_3622_10737">
<rect width="90" height="45" fill="white" transform="translate(0.5)"/>
</clipPath>
</defs>
</svg>
