<svg width="16" height="16" viewBox="0 0 16 16" fill="none" xmlns="http://www.w3.org/2000/svg">
<circle cx="8" cy="8" r="8" fill="white"/>
<circle cx="8" cy="8" r="4" fill="#83C150"/>
<mask id="path-3-inside-1_67_10298" fill="white">
<path d="M8 0.507046C8 0.227012 8.22724 -0.00167391 8.50671 0.016063C9.38396 0.0717382 10.2472 0.271697 11.0615 0.608964C12.0321 1.011 12.914 1.60028 13.6569 2.34315C14.3997 3.08602 14.989 3.96793 15.391 4.93853C15.7283 5.75277 15.9283 6.61604 15.9839 7.49329C16.0017 7.77276 15.773 8 15.493 8C15.2129 8 14.9878 7.77269 14.9675 7.4934C14.9134 6.74942 14.7404 6.01778 14.4541 5.32661C14.1031 4.47904 13.5885 3.70892 12.9398 3.06022C12.2911 2.41152 11.521 1.89694 10.6734 1.54586C9.98222 1.25957 9.25058 1.08658 8.50661 1.03248C8.22731 1.01218 8 0.78708 8 0.507046Z"/>
</mask>
<path d="M8 0.507046C8 0.227012 8.22724 -0.00167391 8.50671 0.016063C9.38396 0.0717382 10.2472 0.271697 11.0615 0.608964C12.0321 1.011 12.914 1.60028 13.6569 2.34315C14.3997 3.08602 14.989 3.96793 15.391 4.93853C15.7283 5.75277 15.9283 6.61604 15.9839 7.49329C16.0017 7.77276 15.773 8 15.493 8C15.2129 8 14.9878 7.77269 14.9675 7.4934C14.9134 6.74942 14.7404 6.01778 14.4541 5.32661C14.1031 4.47904 13.5885 3.70892 12.9398 3.06022C12.2911 2.41152 11.521 1.89694 10.6734 1.54586C9.98222 1.25957 9.25058 1.08658 8.50661 1.03248C8.22731 1.01218 8 0.78708 8 0.507046Z" fill="white" stroke="#83C150" stroke-width="2" mask="url(#path-3-inside-1_67_10298)"/>
</svg>
