<svg width="143" height="21" viewBox="0 0 143 21" fill="none" xmlns="http://www.w3.org/2000/svg">
<path d="M114.925 9.5491L109.447 3.3917H106.239V17.6558H109.588V8.5506L114.596 13.9392H115.214L120.136 8.5506V17.64H123.485V3.3758H120.277L114.933 9.5332L114.925 9.5491ZM139.433 3.3917L131.13 12.6555V3.3917H127.781V17.6558H130.856L139.151 8.4V17.64H142.5V3.3758L139.433 3.3917ZM88.187 8.606C88.154 9.636 88.438 10.6507 88.998 11.5107C89.559 12.3707 90.369 13.0337 91.317 13.4083L87.78 17.64H91.872L95.096 13.7966H98.578V17.64H101.927V3.3758H93.398C92.708 3.3339 92.018 3.4395 91.371 3.6858C90.724 3.9322 90.135 4.3137 89.644 4.8056C89.152 5.2975 88.768 5.8887 88.517 6.5408C88.266 7.1928 88.154 7.8911 88.187 8.5902V8.606ZM98.571 6.5298V10.7457H94.016C92.451 10.7457 91.669 9.8898 91.669 8.6377C91.669 7.3857 92.514 6.5298 94.016 6.5298H98.571ZM72.6307 6.2445C72.4194 11.1419 71.3944 14.3038 69.3599 14.3038H68.8904V17.7272H69.4225C73.4445 17.9491 75.6824 14.3909 76.0346 6.6328H81.3243V17.64H84.673V3.3758H72.7403L72.6307 6.2445ZM60.0247 3.1936C55.494 3.1936 52.1997 6.3634 52.1997 10.5158C52.1997 14.8189 55.7444 17.8698 60.0247 17.8698C64.438 17.8698 67.8496 14.6525 67.8496 10.5158C67.8496 6.3792 64.4145 3.1936 60.0247 3.1936ZM60.0247 14.4543C57.4581 14.4543 55.7209 12.7664 55.7209 10.4921C55.7209 8.2177 57.4659 6.5298 60.0247 6.5298C62.5834 6.5298 64.3832 8.2415 64.3832 10.4921C64.3832 12.7426 62.5521 14.4543 60.0247 14.4543ZM48.6784 3.4234H36.8627L36.7453 6.2683C36.581 10.3732 35.5168 14.28 33.5136 14.3355H32.5824V21H35.9628V17.64H47.7003V21H51.112V14.3355H48.6863L48.6784 3.4234ZM45.3293 14.3355H38.1851C39.3902 12.4811 40.0396 9.8026 40.157 6.6725H45.3293V14.3355ZM24.7575 0H21.6275V17.434H24.7575V0ZM3.63 3.566H0.5V21H3.63V3.566ZM10.6725 2.3774H7.5425V19.8113H10.6725V2.3774ZM17.715 1.1887H14.585V18.6226H17.715V1.1887Z" fill="black"/>
</svg>
