<svg width="27" height="16" viewBox="0 0 27 16" fill="none" xmlns="http://www.w3.org/2000/svg">
<path fill-rule="evenodd" clip-rule="evenodd" d="M18.4948 16C23.0081 16 26.6668 12.4183 26.6668 8C26.6668 3.58172 23.0081 0 18.4948 0C13.9815 0 10.3228 3.58172 10.3228 8C10.3228 12.4183 13.9815 16 18.4948 16Z" fill="#F79E1B"/>
<path fill-rule="evenodd" clip-rule="evenodd" d="M8.17216 16C12.6855 16 16.3442 12.4183 16.3442 8C16.3442 3.58172 12.6855 0 8.17216 0C3.65887 0 0.00012207 3.58172 0.00012207 8C0.00012207 12.4183 3.65887 16 8.17216 16Z" fill="#EB001B"/>
<path fill-rule="evenodd" clip-rule="evenodd" d="M13.3332 1.79724C11.4958 3.2642 10.3225 5.49798 10.3225 8.00004C10.3225 10.5021 11.4958 12.7359 13.3332 14.2028C15.1707 12.7359 16.344 10.5021 16.344 8.00004C16.344 5.49798 15.1707 3.2642 13.3332 1.79724Z" fill="#FF5F00"/>
</svg>
