<svg width="80" height="80" viewBox="0 0 80 80" fill="none" xmlns="http://www.w3.org/2000/svg">
<path d="M58 41.5V22.2C58 22.0895 57.9105 22 57.8 22H21.2C21.0895 22 21 22.0895 21 22.2V57.8C21 57.9105 21.0938 58 21.2043 58C31.7592 58 33.329 58 44 58" stroke="#393939" stroke-width="2" stroke-linecap="round"/>
<path d="M28 24V20C28 18.8954 28.8954 18 30 18C31.1046 18 32 18.8954 32 20V24C32 25.1046 31.1046 26 30 26C28.8954 26 28 25.1046 28 24Z" fill="white" stroke="#393939" stroke-width="2" stroke-linecap="round"/>
<path d="M47 24V20C47 18.8954 47.8954 18 49 18C50.1046 18 51 18.8954 51 20V24C51 25.1046 50.1046 26 49 26C47.8954 26 47 25.1046 47 24Z" fill="white" stroke="#393939" stroke-width="2" stroke-linecap="round"/>
<circle cx="56.5" cy="53.5" r="8" stroke="#EC5C57"/>
<path d="M56.3101 54.5907V55.4121H57.7317C57.8571 55.4121 57.9582 55.4534 58.0348 55.5359C58.1185 55.6184 58.1603 55.7271 58.1603 55.8622C58.1603 55.9972 58.1185 56.106 58.0348 56.1885C57.9582 56.2635 57.8571 56.301 57.7317 56.301H56.3101V57.2686C56.3101 57.5012 56.2474 57.6812 56.122 57.8087C56.0035 57.9362 55.8502 58 55.662 58C55.4739 58 55.3171 57.9362 55.1916 57.8087C55.0732 57.6812 55.0139 57.5012 55.0139 57.2686V56.301H54.439C54.3206 56.301 54.216 56.2597 54.1254 56.1772C54.0418 56.0947 54 55.9897 54 55.8622C54 55.7271 54.0418 55.6184 54.1254 55.5359C54.216 55.4534 54.3206 55.4121 54.439 55.4121H55.0139V54.5907H54.439C54.3206 54.5907 54.216 54.5495 54.1254 54.4669C54.0418 54.3769 54 54.2682 54 54.1406C54 54.0056 54.0418 53.8969 54.1254 53.8143C54.216 53.7318 54.3206 53.6906 54.439 53.6906H55.0139V50.6864C55.0139 50.4688 55.0697 50.3 55.1812 50.18C55.2927 50.06 55.4495 50 55.6516 50H57.5122C58.2997 50 58.9094 50.21 59.3415 50.6301C59.7805 51.0427 60 51.5865 60 52.2616C60 52.9892 59.7805 53.5593 59.3415 53.9719C58.9094 54.3844 58.2997 54.5907 57.5122 54.5907H56.3101ZM56.2997 53.6906H57.23C58.2474 53.6906 58.7561 53.2705 58.7561 52.4304C58.7561 51.9653 58.6341 51.624 58.3902 51.4065C58.1533 51.1889 57.7875 51.0802 57.2927 51.0802H56.2997V53.6906Z" fill="#EC5C57"/>
<path d="M21 33H58" stroke="#393939" stroke-width="2" stroke-linecap="round"/>
<path d="M21 41.5H58" stroke="#393939" stroke-linecap="round"/>
<path d="M21 49.5H47" stroke="#393939" stroke-linecap="round"/>
<path d="M30.5 33V58" stroke="#393939" stroke-linecap="round"/>
<path d="M39.5 33V58" stroke="#393939" stroke-linecap="round"/>
<path d="M48.5 33.5V46" stroke="#393939" stroke-linecap="round"/>
</svg>
