<svg width="80" height="80" viewBox="0 0 80 80" fill="none" xmlns="http://www.w3.org/2000/svg">
<path d="M49 20H31C29.8954 20 29 20.8954 29 22V58C29 59.1046 29.8954 60 31 60H49C50.1046 60 51 59.1046 51 58V22C51 20.8954 50.1046 20 49 20Z" stroke="#393939" stroke-width="2" stroke-linecap="round"/>
<path d="M36 20L36.886 22.6581C36.9541 22.8623 37.1452 23 37.3604 23H42.6396C42.8548 23 43.0459 22.8623 43.114 22.6581L44 20" stroke="#393939" stroke-linecap="round"/>
<path d="M37 57H43" stroke="#393939" stroke-linecap="round"/>
<circle cx="40" cy="40" r="6.5" stroke="#EC5C57"/>
<path d="M39.3101 40.5907V41.4121H40.7317C40.8571 41.4121 40.9582 41.4534 41.0348 41.5359C41.1185 41.6184 41.1603 41.7271 41.1603 41.8622C41.1603 41.9972 41.1185 42.106 41.0348 42.1885C40.9582 42.2635 40.8571 42.301 40.7317 42.301H39.3101V43.2686C39.3101 43.5012 39.2474 43.6812 39.122 43.8087C39.0035 43.9362 38.8502 44 38.662 44C38.4739 44 38.3171 43.9362 38.1916 43.8087C38.0732 43.6812 38.0139 43.5012 38.0139 43.2686V42.301H37.439C37.3206 42.301 37.216 42.2597 37.1254 42.1772C37.0418 42.0947 37 41.9897 37 41.8622C37 41.7271 37.0418 41.6184 37.1254 41.5359C37.216 41.4534 37.3206 41.4121 37.439 41.4121H38.0139V40.5907H37.439C37.3206 40.5907 37.216 40.5495 37.1254 40.4669C37.0418 40.3769 37 40.2682 37 40.1406C37 40.0056 37.0418 39.8969 37.1254 39.8143C37.216 39.7318 37.3206 39.6906 37.439 39.6906H38.0139V36.6864C38.0139 36.4688 38.0697 36.3 38.1812 36.18C38.2927 36.06 38.4495 36 38.6516 36H40.5122C41.2997 36 41.9094 36.21 42.3415 36.6301C42.7805 37.0427 43 37.5865 43 38.2616C43 38.9892 42.7805 39.5593 42.3415 39.9719C41.9094 40.3844 41.2997 40.5907 40.5122 40.5907H39.3101ZM39.2997 39.6906H40.23C41.2474 39.6906 41.7561 39.2705 41.7561 38.4304C41.7561 37.9653 41.6341 37.624 41.3902 37.4065C41.1533 37.1889 40.7875 37.0802 40.2927 37.0802H39.2997V39.6906Z" fill="#EC5C57"/>
</svg>
