<svg width="52" height="8" viewBox="0 0 52 8" fill="none" xmlns="http://www.w3.org/2000/svg">
<g clip-path="url(#clip0_899_8117)">
<path d="M9.12982 0H7.95178V6.64151H9.12982V0Z" fill="#393939"/>
<path d="M1.17804 1.35852H0V8.00003H1.17804V1.35852Z" fill="#393939"/>
<path d="M3.82867 0.90564H2.65063V7.54715H3.82867V0.90564Z" fill="#393939"/>
<path d="M6.47918 0.452881H5.30115V7.09439H6.47918V0.452881Z" fill="#393939"/>
<path d="M41.941 3.81874L39.9399 1.57324H38.77V6.77236H39.9915V3.45522L41.8184 5.42051H42.0442L43.8398 3.45522V6.77236H45.0612V1.57324H43.8913L41.941 3.81874Z" fill="#393939"/>
<path d="M50.881 1.57324L47.8535 4.95248V1.57324H46.6321V6.77236H47.7511L50.7786 3.39312V6.77236H52.0001V1.57324H50.881Z" fill="#393939"/>
<path d="M32.1906 3.47567C32.1906 4.30344 32.6391 4.95551 33.3276 5.2289L32.0366 6.77236H33.5317L34.706 5.36825H35.9768V6.77236H37.1983V1.57324H34.0886C32.9292 1.57324 32.1906 2.37375 32.1906 3.47567ZM35.9776 2.71833V4.25573H34.3151C33.7604 4.25573 33.4629 3.9437 33.4629 3.48627C33.4629 3.02884 33.7709 2.71682 34.3151 2.71682L35.9776 2.71833Z" fill="#393939"/>
<path d="M26.5142 2.61306C26.4395 4.40114 26.0657 5.55532 25.3339 5.55532H25.1508V6.80341L25.3459 6.81401C26.8133 6.89656 27.6243 5.59697 27.7574 2.75847H29.6875V6.77236H30.9067V1.57324H26.5554L26.5142 2.61306Z" fill="#393939"/>
<path d="M21.9159 1.50049C20.2639 1.50049 19.0753 2.65467 19.0753 4.17237C19.0753 5.74233 20.3685 6.85561 21.9159 6.85561C23.5276 6.85561 24.7797 5.68023 24.7797 4.17237C24.7797 2.66451 23.5276 1.50049 21.9159 1.50049ZM21.9159 5.60752C20.9823 5.60752 20.3461 4.99408 20.3461 4.17237C20.3461 3.33021 20.983 2.73343 21.9159 2.73343C22.8488 2.73343 23.5067 3.35748 23.5067 4.17237C23.5067 4.98726 22.8399 5.60752 21.9159 5.60752Z" fill="#393939"/>
<path d="M17.7795 1.58301H13.4685L13.4274 2.62283C13.3661 4.12084 12.9789 5.54539 12.2471 5.56584L11.9084 5.57644V7.99992H13.1404V6.77303H17.42V7.99992H18.6624V5.56584H17.7795V1.58301ZM16.5581 5.56584H13.9514C14.3925 4.8903 14.6287 3.91257 14.6698 2.769H16.5581V5.56584Z" fill="#393939"/>
</g>
<defs>
<clipPath id="clip0_899_8117">
<rect width="52" height="8" fill="white"/>
</clipPath>
</defs>
</svg>
