<svg width="16" height="16" viewBox="0 0 16 16" fill="none" xmlns="http://www.w3.org/2000/svg">
<circle cx="8" cy="8" r="8" fill="white"/>
<circle cx="8" cy="8" r="4" fill="#83C150"/>
<mask id="path-3-inside-1_67_10318" fill="white">
<path d="M0.507046 8C0.227012 8 -0.00167424 8.22726 0.016061 8.50673C0.105163 9.91079 0.563304 11.2698 1.34824 12.4446C2.22729 13.7602 3.47672 14.7855 4.93853 15.391C6.40034 15.9965 8.00887 16.155 9.56072 15.8463C11.1126 15.5376 12.538 14.7757 13.6569 13.6569C14.7757 12.538 15.5376 11.1126 15.8463 9.56072C16.155 8.00887 15.9965 6.40034 15.391 4.93853C14.7855 3.47672 13.7602 2.22729 12.4446 1.34824C11.2698 0.563305 9.91079 0.105163 8.50673 0.0160611C8.22726 -0.00167422 8 0.227012 8 0.507046C8 0.78708 8.22732 1.01218 8.50661 1.03248C9.70992 1.11997 10.8732 1.51795 11.8812 2.19143C13.03 2.95905 13.9254 4.0501 14.4541 5.32661C14.9829 6.60312 15.1212 8.00775 14.8517 9.36288C14.5821 10.718 13.9168 11.9628 12.9398 12.9398C11.9628 13.9168 10.718 14.5821 9.36288 14.8517C8.00775 15.1212 6.60312 14.9829 5.32661 14.4541C4.0501 13.9254 2.95905 13.03 2.19143 11.8812C1.51795 10.8732 1.11997 9.70992 1.03248 8.50661C1.01218 8.22732 0.78708 8 0.507046 8Z"/>
</mask>
<path d="M0.507046 8C0.227012 8 -0.00167424 8.22726 0.016061 8.50673C0.105163 9.91079 0.563304 11.2698 1.34824 12.4446C2.22729 13.7602 3.47672 14.7855 4.93853 15.391C6.40034 15.9965 8.00887 16.155 9.56072 15.8463C11.1126 15.5376 12.538 14.7757 13.6569 13.6569C14.7757 12.538 15.5376 11.1126 15.8463 9.56072C16.155 8.00887 15.9965 6.40034 15.391 4.93853C14.7855 3.47672 13.7602 2.22729 12.4446 1.34824C11.2698 0.563305 9.91079 0.105163 8.50673 0.0160611C8.22726 -0.00167422 8 0.227012 8 0.507046C8 0.78708 8.22732 1.01218 8.50661 1.03248C9.70992 1.11997 10.8732 1.51795 11.8812 2.19143C13.03 2.95905 13.9254 4.0501 14.4541 5.32661C14.9829 6.60312 15.1212 8.00775 14.8517 9.36288C14.5821 10.718 13.9168 11.9628 12.9398 12.9398C11.9628 13.9168 10.718 14.5821 9.36288 14.8517C8.00775 15.1212 6.60312 14.9829 5.32661 14.4541C4.0501 13.9254 2.95905 13.03 2.19143 11.8812C1.51795 10.8732 1.11997 9.70992 1.03248 8.50661C1.01218 8.22732 0.78708 8 0.507046 8Z" fill="white" stroke="#83C150" stroke-width="2" mask="url(#path-3-inside-1_67_10318)"/>
</svg>
