<svg width="80" height="80" viewBox="0 0 80 80" fill="none" xmlns="http://www.w3.org/2000/svg">
<path d="M61.5 37.5H42.5C41.3954 37.5 40.5 38.3954 40.5 39.5V53C40.5 54.1046 41.3954 55 42.5 55H61.5C62.6046 55 63.5 54.1046 63.5 53V39.5C63.5 38.3954 62.6046 37.5 61.5 37.5Z" stroke="#393939" stroke-width="2"/>
<path d="M39 60.5H27C25.8954 60.5 25 59.6046 25 58.5V57.5M49 37.5V24C49 22.8954 48.1046 22 47 22H27C25.8954 22 25 22.8954 25 24V34.5" stroke="#393939" stroke-width="2" stroke-linecap="round" stroke-linejoin="round"/>
<path d="M49 55.5V60" stroke="#393939" stroke-width="2"/>
<path d="M55 55.5V60" stroke="#393939" stroke-width="2"/>
<path d="M44 60.5H60" stroke="#393939" stroke-width="2" stroke-linecap="round"/>
<path d="M34.5 26.5H39.5" stroke="#393939" stroke-width="2" stroke-linecap="round"/>
<circle cx="25" cy="46" r="8.5" stroke="#393939"/>
<path d="M24.3101 46.5907V47.4121H25.7317C25.8571 47.4121 25.9582 47.4534 26.0348 47.5359C26.1185 47.6184 26.1603 47.7271 26.1603 47.8622C26.1603 47.9972 26.1185 48.106 26.0348 48.1885C25.9582 48.2635 25.8571 48.301 25.7317 48.301H24.3101V49.2686C24.3101 49.5012 24.2474 49.6812 24.122 49.8087C24.0035 49.9362 23.8502 50 23.662 50C23.4739 50 23.3171 49.9362 23.1916 49.8087C23.0732 49.6812 23.0139 49.5012 23.0139 49.2686V48.301H22.439C22.3206 48.301 22.216 48.2597 22.1254 48.1772C22.0418 48.0947 22 47.9897 22 47.8622C22 47.7271 22.0418 47.6184 22.1254 47.5359C22.216 47.4534 22.3206 47.4121 22.439 47.4121H23.0139V46.5907H22.439C22.3206 46.5907 22.216 46.5495 22.1254 46.4669C22.0418 46.3769 22 46.2682 22 46.1406C22 46.0056 22.0418 45.8969 22.1254 45.8143C22.216 45.7318 22.3206 45.6906 22.439 45.6906H23.0139V42.6864C23.0139 42.4688 23.0697 42.3 23.1812 42.18C23.2927 42.06 23.4495 42 23.6516 42H25.5122C26.2997 42 26.9094 42.21 27.3415 42.6301C27.7805 43.0427 28 43.5865 28 44.2616C28 44.9892 27.7805 45.5593 27.3415 45.9719C26.9094 46.3844 26.2997 46.5907 25.5122 46.5907H24.3101ZM24.2997 45.6906H25.23C26.2474 45.6906 26.7561 45.2705 26.7561 44.4304C26.7561 43.9653 26.6341 43.624 26.3902 43.4065C26.1533 43.1889 25.7875 43.0802 25.2927 43.0802H24.2997V45.6906Z" fill="#393939"/>
</svg>
