<svg width="137" height="25" viewBox="0 0 137 25" fill="none" xmlns="http://www.w3.org/2000/svg">
<path fill-rule="evenodd" clip-rule="evenodd" d="M40.4797 18.5564C39.2794 18.5564 38.1059 18.2014 37.1076 17.5363C36.1093 16.8712 35.3309 15.9257 34.8706 14.8194C34.4104 13.713 34.289 12.4954 34.5218 11.3203C34.7546 10.1452 35.3311 9.06518 36.1785 8.21687C37.026 7.36848 38.1063 6.78975 39.2832 6.55377C40.46 6.31771 41.6805 6.43501 42.7906 6.89078C43.9007 7.34663 44.8505 8.12046 45.5201 9.11456C46.1897 10.1087 46.5491 11.2786 46.5529 12.4765C46.5567 13.2732 46.4029 14.0627 46.1001 14.7999C45.7974 15.5371 45.3518 16.2073 44.7888 16.7722C44.2259 17.337 43.5567 17.7854 42.8197 18.0916C42.0827 18.3978 41.2924 18.5557 40.4941 18.5564H40.4797ZM40.4797 0.000823009C38.3721 -0.00513514 36.2969 0.519757 34.4467 1.52689C32.5963 2.53401 31.0306 3.9908 29.8945 5.76237C28.7583 7.53395 28.0884 9.56296 27.947 11.6615C27.8055 13.7601 28.197 15.8603 29.0852 17.7678C29.9734 19.6752 31.3295 21.3281 33.028 22.5735C34.7265 23.8188 36.7124 24.6163 38.802 24.8921C40.8914 25.1679 43.0168 24.913 44.9813 24.1511C46.9459 23.3893 48.686 22.1449 50.0405 20.5335C49.2597 22.0317 48.0815 23.2869 46.6345 24.1623V24.8085H52.9715V12.4478C52.9602 9.1501 51.6424 5.99082 49.3058 3.65897C46.9692 1.3272 43.8034 0.0121807 40.4989 0.000823009H40.4797ZM100.603 18.6712H92.3369V14.6212H100.426C101.437 14.6212 102.617 15.5787 102.617 16.651C102.612 17.1866 102.395 17.6982 102.014 18.076C101.634 18.4538 101.12 18.6675 100.584 18.6712H100.603ZM92.3369 6.32961H99.2641C99.784 6.36798 100.272 6.59279 100.638 6.96242C101.004 7.33213 101.223 7.82158 101.255 8.34032C101.249 8.6167 101.187 8.88911 101.074 9.14176C100.962 9.3945 100.8 9.62254 100.6 9.81286C100.398 10.0032 100.162 10.1521 99.9033 10.251C99.6445 10.3499 99.3689 10.3969 99.0916 10.3892H92.3369V6.32961ZM106.215 11.7489C106.96 10.607 107.379 9.28416 107.425 7.92277C107.473 6.5613 107.147 5.21278 106.484 4.02213C105.805 2.86638 104.837 1.90604 103.676 1.23481C102.513 0.563584 101.197 0.204404 99.8541 0.192318H85.9998V24.8085H101.5C103.483 24.8341 105.396 24.073 106.817 22.6925C108.238 21.3119 109.052 19.4247 109.079 17.4457C109.091 16.3369 108.836 15.2417 108.335 14.2519C107.834 13.2622 107.102 12.4071 106.201 11.7584L106.215 11.7489ZM79.7353 9.27379C81.8173 14.8749 81.9229 19.9543 81.9229 24.8085H75.4847C75.4847 20.8734 75.3456 17.2877 74.5253 14.0419C73.4171 9.69985 71.3544 6.54025 69.4403 6.54025C67.5262 6.54025 65.4634 9.69985 64.3553 14.0419C63.5301 17.2877 63.3958 20.7776 63.3958 24.8085H56.9532C56.9532 20.3899 57.0587 14.8749 59.1407 9.27379C61.0596 4.05564 64.7007 0.000823009 69.4355 0.000823009C74.1703 0.000823009 77.8161 4.05564 79.7353 9.27379ZM19.0507 0.206679H25.4837V2.7966C25.4856 4.65753 25.0709 6.49532 24.2701 8.17583C23.4691 9.85641 22.3022 11.3371 20.8545 12.51C22.3021 13.6819 23.469 15.1618 24.27 16.8415C25.0709 18.5213 25.4856 20.3585 25.4837 22.2187V24.8085H19.0507V21.5676C19.0063 19.9941 18.3488 18.4999 17.2178 17.4025C16.0869 16.3052 14.5717 15.6913 12.9943 15.6913C11.4169 15.6913 9.90171 16.3052 8.77067 17.4025C7.63971 18.4999 6.98222 19.9941 6.93781 21.5676V24.8085H0.5V22.2187C0.50004 20.3576 0.916047 18.5199 1.7177 16.8396C2.51935 15.1592 3.68649 13.6785 5.13405 12.5052C3.68659 11.3329 2.51948 9.85301 1.7178 8.1734C0.916119 6.49387 0.500081 4.65696 0.5 2.7966V0.206679H6.93781V3.44291C6.91444 4.23722 7.04816 5.02829 7.3314 5.77104C7.61465 6.5137 8.04185 7.19338 8.58842 7.77122C9.13508 8.34899 9.79056 8.81366 10.5173 9.13852C11.244 9.46331 12.0277 9.64205 12.8238 9.66439C13.6197 9.68674 14.4123 9.55219 15.1561 9.26861C15.9 8.98512 16.5806 8.55793 17.1589 8.01174C17.7372 7.46546 18.202 6.8108 18.5266 6.08513C18.8512 5.35955 19.0293 4.57714 19.0507 3.78275C19.0507 3.66788 19.0507 3.55778 19.0507 3.44291V0.206679ZM123.993 18.5564C122.792 18.5602 121.617 18.2084 120.616 17.5456C119.616 16.8827 118.834 15.9387 118.371 14.8327C117.908 13.7267 117.784 12.5084 118.014 11.3321C118.245 10.1557 118.82 9.07392 119.667 8.22367C120.513 7.37342 121.594 6.79274 122.771 6.55523C123.948 6.31763 125.169 6.4338 126.281 6.889C127.393 7.3442 128.343 8.11803 129.013 9.11262C129.684 10.1072 130.044 11.2778 130.048 12.4765C130.051 13.2712 129.897 14.0586 129.595 14.794C129.294 15.5294 128.85 16.1982 128.289 16.7624C127.728 17.3264 127.061 17.7748 126.327 18.0818C125.593 18.3888 124.804 18.5484 124.008 18.5516L123.993 18.5564ZM136.481 12.4286C136.465 9.49407 135.415 6.65861 133.514 4.41936C131.614 2.18001 128.984 0.679728 126.086 0.181454C123.188 -0.31682 120.207 0.218716 117.665 1.69419C115.123 3.16969 113.183 5.49094 112.184 8.25103C111.185 11.0112 111.192 14.0341 112.203 16.7899C113.213 19.5456 115.164 21.8584 117.713 23.3228C120.261 24.7872 123.245 25.3098 126.14 24.7989C129.036 24.288 131.659 22.7763 133.55 20.5287C132.766 22.0263 131.589 23.2826 130.144 24.1623V24.8037H136.5V12.4478L136.481 12.4286Z" fill="#FF4E50"/>
</svg>
