<svg width="18" height="17" viewBox="0 0 18 17" fill="none" xmlns="http://www.w3.org/2000/svg">
<path d="M17.7663 8.15823L18 7.42124L17.227 7.44512C17.1617 7.44512 16.687 7.43184 16.2264 7.10283C16.2607 7.10614 16.295 7.1108 16.3301 7.1108C16.8041 7.1108 17.2627 6.82951 17.4465 6.42757L17.7791 5.70121C17.3623 5.70649 16.9812 5.65473 16.9812 5.65473C16.9778 5.65411 16.6775 5.61626 16.3301 5.2667C16.0809 5.01597 15.7726 4.88331 15.4386 4.88331C15.2924 4.88331 15.1618 4.90916 15.0494 4.94431C15.0669 4.88528 15.0837 4.82559 15.0931 4.7639C15.1995 4.08398 14.7551 3.56525 14.7551 3.5659L14.174 2.85679L13.8138 3.68994C13.8124 3.6926 13.7215 3.88761 13.5586 3.98314C13.5094 3.73837 13.3889 3.46307 13.131 3.19975C12.6448 2.70356 12.0529 2.62993 11.7432 2.62993C11.5998 2.62993 11.4975 2.64517 11.4725 2.64916L10.7709 2.78514C10.8113 2.63057 10.8975 2.36193 11.0551 2.11982L11.4423 1.52547L10.4679 1.63492L10.1575 0.985494L9.55685 1.29063L9.00135 0.75L8.4472 1.29063L7.84452 0.985494L7.53478 1.63492L6.56112 1.52547L6.94897 2.11982C7.10654 2.36193 7.19272 2.62993 7.23245 2.78449L6.56318 2.65448L6.54025 2.65049C6.50657 2.64517 6.40491 2.62993 6.26081 2.62993C5.9511 2.62993 5.35921 2.70421 4.87437 3.19975C4.6158 3.46242 4.49529 3.73837 4.44547 3.98314C4.28386 3.88894 4.19362 3.69659 4.19362 3.69659L3.83273 2.85877L3.24216 3.57252C3.17014 3.66473 2.81395 4.1523 2.91088 4.76522C2.92101 4.82625 2.93718 4.88597 2.95468 4.945C2.8429 4.90984 2.71226 4.88394 2.56614 4.88394C2.23218 4.88394 1.92377 5.01663 1.67397 5.26735C1.32784 5.61564 1.02888 5.65473 1.03159 5.65473C1.03159 5.65473 0.715767 5.71049 0.226916 5.70186L0.557551 6.42822C0.741362 6.83086 1.20061 7.11146 1.67397 7.11146C1.70963 7.11146 1.74397 7.10683 1.779 7.10349C1.31976 7.43253 0.845082 7.44581 0.787838 7.44643L0 7.42124L0.238368 8.15757C0.358226 8.53699 0.758872 9.16585 1.52649 9.2335C1.44299 9.57845 1.25784 9.96452 0.851136 10.131L0.264655 10.3691L0.584486 10.9177C0.764926 11.2135 1.1885 11.5598 1.7918 11.5598C1.92241 11.5592 2.04832 11.5466 2.16956 11.5214C2.20053 11.6567 2.23956 11.792 2.28535 11.926C2.46514 12.4527 2.31026 12.8202 2.30827 12.8242L2.01871 13.4218L2.66512 13.5896C2.67319 13.5923 2.86847 13.6447 3.11288 13.6447C3.224 13.6447 3.32973 13.6334 3.4294 13.6102C3.5048 13.593 3.57685 13.5698 3.64619 13.5419C3.72968 13.6898 3.83138 13.8245 3.94991 13.9452C4.36399 14.3638 4.95049 14.5761 5.69386 14.5761H5.69654L6.22717 14.5694L5.13095 15.0178L5.96321 15.4138C6.26551 15.5591 6.62444 15.7309 6.98936 15.8622L6.88569 16.1422L7.17254 16.2709C7.19811 16.2822 7.74958 16.5256 8.66669 16.5774C8.66669 16.5774 8.88821 16.5873 9.01011 16.5873C9.13198 16.5873 9.35082 16.5767 9.35082 16.5767C10.2618 16.5236 10.8093 16.2828 10.8349 16.2709L11.1224 16.1415L11.0174 15.8609C11.3931 15.7256 11.7648 15.5472 12.0543 15.4079L12.8711 15.0172L11.7782 14.5681L12.3109 14.5747C13.0549 14.5747 13.6421 14.3625 14.0555 13.9432C14.1734 13.8232 14.275 13.6885 14.3592 13.5406C14.4286 13.5684 14.5013 13.5917 14.5767 13.6089C14.6756 13.6321 14.7814 13.6434 14.8925 13.6434C15.1329 13.6434 15.3302 13.591 15.3356 13.5896L15.9846 13.4205L15.7018 12.8341C15.6951 12.8188 15.5403 12.452 15.72 11.9247C15.7658 11.79 15.8042 11.6547 15.8352 11.52C15.9571 11.5452 16.0843 11.5585 16.2156 11.5585C16.9839 11.5585 17.3522 11.0259 17.4236 10.9104L17.7401 10.3678L17.1536 10.1303C16.7462 9.96383 16.5617 9.57711 16.4789 9.23282C17.2358 9.16916 17.6425 8.5403 17.7663 8.15823ZM7.28366 3.03854L7.27555 3.04055L7.28227 3.03192L7.28366 3.03854Z" fill="white"/>
<path d="M9.00228 3.0061C8.3814 3.00675 7.91611 3.20708 7.81445 3.44258L9.00228 3.90425L10.1901 3.44258C10.0891 3.20708 9.62378 3.00675 9.00228 3.0061Z" fill="white"/>
<path d="M9.01403 15.228H9.01271H9.00259H8.99117H8.99048C8.61408 15.2307 8.09625 15.1544 7.84642 15.0828L7.54614 15.8834C7.7441 15.9531 8.41476 16.0858 9.00259 16.0858C9.58906 16.0858 10.2604 15.9524 10.4577 15.8834L10.1581 15.0828C9.90756 15.155 9.39043 15.2307 9.01403 15.228Z" fill="white"/>
<path d="M11.2871 14.4324C11.0636 14.5571 10.5646 14.7442 10.2744 14.8311L10.5182 15.4924C10.9673 15.3717 11.3377 15.2304 11.644 15.0791L11.1383 14.9133L11.2871 14.4324Z" fill="white"/>
<path d="M6.71818 14.4324L6.86767 14.9133L6.36133 15.0791C6.667 15.2304 7.03937 15.3717 7.48646 15.4924L7.73024 14.8311C7.44137 14.7442 6.94174 14.5564 6.71818 14.4324Z" fill="white"/>
<path d="M9.00241 2.24063C9.47038 2.24063 9.92961 2.35076 10.2825 2.54448C10.3148 2.43766 10.3599 2.3083 10.4212 2.173L10.2879 2.1889L10.1478 2.20349L10.0885 2.07812L9.91013 1.70666L9.58487 1.87383L9.45827 1.93751L9.35727 1.83932L9.00376 1.49438L8.65095 1.83932L8.54992 1.93751L8.42332 1.87383L8.09611 1.70666L7.91968 2.07812L7.85908 2.20349L7.71901 2.1889L7.58569 2.173C7.64699 2.30898 7.69142 2.43766 7.7244 2.54448C8.07791 2.35076 8.53579 2.24063 9.00241 2.24063Z" fill="white"/>
<path d="M16.1466 6.53365C16.2072 6.55421 16.2691 6.56349 16.3304 6.56349C16.5951 6.56349 16.8509 6.39499 16.9391 6.20195C16.9391 6.20195 16.4536 6.17276 15.9318 5.65072C15.7655 5.48156 15.5897 5.43115 15.4389 5.43115C15.2046 5.43115 15.0288 5.55319 15.0288 5.55319C15.6591 5.88357 15.7877 6.41424 16.1466 6.53365Z" fill="white"/>
<path d="M1.67322 6.56349C1.73449 6.56349 1.79645 6.55421 1.8557 6.53365C2.21596 6.41424 2.34524 5.88357 2.97547 5.55319C2.97547 5.55319 2.79905 5.43115 2.56606 5.43115C2.41458 5.43115 2.23882 5.48156 2.07185 5.65072C1.55066 6.17276 1.06519 6.20195 1.06519 6.20195C1.15202 6.39499 1.40857 6.56349 1.67322 6.56349Z" fill="white"/>
<path d="M16.3178 8.69014C16.3286 8.69076 16.338 8.69076 16.3494 8.69076C17.01 8.69076 17.2342 7.99362 17.2342 7.99362H17.2214C17.1002 7.99362 16.1178 7.96574 15.4236 7.0961C14.9663 6.52431 14.592 6.02148 13.852 5.82382L13.7793 5.8112L13.7631 5.73826C13.7429 5.62679 13.8203 5.52266 13.9961 5.40991C15.0169 4.75121 14.324 3.91139 14.324 3.91139C14.324 3.91139 14.0325 4.58336 13.3799 4.58336C13.3645 4.58336 13.3476 4.5827 13.3315 4.5827C13.2574 4.57873 13.186 4.57608 13.114 4.56083L12.9934 4.53761C12.9934 4.53761 13.1793 4.03944 12.7308 3.58171C12.3928 3.23612 11.9814 3.17773 11.7437 3.17773C11.6239 3.17773 11.5478 3.19301 11.5478 3.19301C11.7733 3.48355 11.9363 3.96514 11.6757 4.26229C11.4508 4.5177 10.9014 4.53029 10.9014 4.91105C10.9014 5.07224 11.0542 5.26065 11.3289 5.42978C12.1551 5.94254 12.9753 6.6225 13.316 7.53389C13.7422 8.67089 13.2621 9.42509 12.5766 9.8576C12.5766 9.8576 12.7915 10.0526 13.1032 10.0772C13.1665 10.0831 13.2284 10.0858 13.2864 10.0858C13.9442 10.0858 14.2843 9.78197 14.2843 9.78197C14.2843 9.78197 14.2284 10.2019 13.8856 10.5919C13.5698 10.9521 13.1551 11.1637 12.5228 11.173C12.5228 11.173 12.5026 11.4622 12.7827 11.7123C12.9618 11.8702 13.3759 11.9219 13.3759 11.9219C13.3759 11.9219 12.6009 12.0765 12.5154 13.2042C12.4689 13.8151 12.3107 14.0273 12.3107 14.0273H12.3248C14.1233 14.0273 14.0769 12.5077 14.0769 12.5077C14.0769 12.5077 14.2021 12.9574 14.7038 13.0748C14.7644 13.0907 14.829 13.0967 14.891 13.0967C15.0526 13.0967 15.1926 13.0595 15.1926 13.0595C15.1926 13.0595 14.93 12.5136 15.1906 11.7501C15.4067 11.1166 15.3717 10.647 15.3717 10.647C15.3717 10.647 15.6142 11.0078 16.2148 11.0112H16.2208C16.7211 11.0112 16.9393 10.6377 16.9393 10.6377C15.7401 10.1475 15.8586 8.56476 15.8586 8.56476C15.8586 8.56476 16.0141 8.67885 16.3178 8.69014ZM15.9568 10.3431C15.4694 10.1064 15.161 9.4775 15.0862 9.25065C15.0055 10.4977 14.3873 11.3634 13.6648 12.1966C13.2897 12.6284 13.1591 13.0483 13.1591 13.0483C13.1591 13.0483 13.2312 12.5727 13.5557 12.1852C14.2298 11.3873 14.87 10.3942 14.9179 9.24599C14.9509 8.44466 14.7415 7.79462 14.4149 7.25929C14.5974 7.81715 14.5718 8.50041 13.9516 9.13786C13.9516 9.13786 15.1859 7.68052 13.4601 6.18667C12.7692 5.61816 12.0137 5.26728 11.6246 5.01849C13.0305 5.47025 13.7166 4.97274 13.7166 4.97274C13.2675 5.35616 12.6864 5.34953 12.3262 5.29447C12.4238 5.34159 12.5255 5.39066 12.6352 5.44838C13.8203 6.08252 14.8856 7.12594 15.0673 8.57138V8.5601C15.3434 9.97898 15.9568 10.3431 15.9568 10.3431Z" fill="white"/>
<path d="M4.62834 11.9219C4.62834 11.9219 5.04242 11.8708 5.22156 11.7123C5.50096 11.4622 5.48148 11.173 5.48148 11.173C4.8485 11.1644 4.43442 10.9521 4.11657 10.5926C3.77656 10.2025 3.71999 9.78263 3.71999 9.78263C3.71999 9.78263 4.06 10.0864 4.7172 10.0864C4.77648 10.0864 4.83775 10.0838 4.90103 10.0778C5.21279 10.0533 5.42825 9.85826 5.42825 9.85826C4.7428 9.42578 4.26203 8.67089 4.68759 7.53389C5.02899 6.62315 5.84845 5.94254 6.67463 5.42978C6.94937 5.26065 7.1022 5.0729 7.1022 4.91105C7.1022 4.53029 6.55345 4.5177 6.32856 4.26229C6.06795 3.96514 6.23157 3.48287 6.45645 3.19301C6.45645 3.19301 6.38172 3.17773 6.26117 3.17773C6.02418 3.17773 5.61275 3.23612 5.27475 3.58171C4.82494 4.03944 5.01146 4.53761 5.01146 4.53761L4.89094 4.56083C4.81889 4.57608 4.74684 4.57873 4.67343 4.5827C4.65662 4.5827 4.64177 4.58336 4.62563 4.58336C3.97181 4.58336 3.68158 3.91208 3.68158 3.91208C3.68158 3.91208 2.98869 4.75183 4.00886 5.41053C4.18459 5.52332 4.26133 5.62747 4.24115 5.73891L4.22498 5.81189L4.15091 5.82448C3.41227 6.02214 3.03722 6.525 2.58 7.09679C1.88711 7.96509 0.906047 7.99362 0.783507 7.99362H0.77002C0.77002 7.99362 0.994242 8.69076 1.65481 8.69076C1.66556 8.69076 1.67499 8.69076 1.68644 8.69014C1.99016 8.67948 2.14637 8.56476 2.14637 8.56476C2.14637 8.56476 2.26351 10.1468 1.06563 10.6377C1.06563 10.6377 1.2838 11.0112 1.7841 11.0112H1.79015C2.39144 11.0078 2.6332 10.647 2.6332 10.647C2.6332 10.647 2.59816 11.1166 2.81362 11.7501C3.07424 12.5136 2.81299 13.0595 2.81299 13.0595C2.81299 13.0595 2.95303 13.0967 3.11397 13.0967C3.17656 13.0967 3.24057 13.0907 3.30048 13.0748C3.80144 12.9574 3.92738 12.5077 3.92738 12.5077C3.92738 12.5077 3.88156 14.0273 5.6801 14.0273H5.6929C5.6929 14.0273 5.53533 13.8151 5.48955 13.2042C5.40334 12.0765 4.62834 11.9219 4.62834 11.9219ZM4.33947 12.1966C3.61694 11.3634 2.99951 10.4977 2.918 9.25065C2.8433 9.47681 2.5362 10.1064 2.04875 10.3431C2.04875 10.3431 2.66148 9.97898 2.93685 8.5601V8.57138C3.11936 7.12663 4.18392 6.08252 5.3697 5.44838C5.4781 5.38997 5.58109 5.34091 5.67808 5.29447C5.31782 5.34953 4.73675 5.35616 4.28763 4.97274C4.28763 4.97274 4.97378 5.47025 6.37901 5.01849C5.98984 5.26728 5.23502 5.61816 4.54415 6.18667C2.81769 7.68052 4.05262 9.13786 4.05262 9.13786C3.43178 8.49972 3.40687 7.81715 3.58935 7.25929C3.26211 7.79524 3.05333 8.44466 3.08704 9.24599C3.13415 10.3942 3.77451 11.3873 4.44722 12.1852C4.77241 12.572 4.84582 13.0483 4.84582 13.0483C4.84582 13.0483 4.71382 12.6284 4.33947 12.1966Z" fill="white"/>
<path d="M7.67262 6.36617C7.70223 6.39733 7.73118 6.43117 7.7588 6.46502C7.76555 6.47299 7.7716 6.48027 7.77828 6.48955C7.80389 6.52339 7.83019 6.55921 7.85507 6.59571C7.86046 6.60299 7.86585 6.61161 7.8719 6.62024C7.90221 6.66533 7.93049 6.71177 7.95878 6.75952C8.21803 7.20069 8.63347 7.46401 9.0018 7.4647C9.37079 7.46401 9.7849 7.20069 10.0455 6.75952C10.0744 6.71046 10.1034 6.66271 10.1337 6.61824C10.1384 6.61161 10.1431 6.60564 10.1471 6.59899C10.1728 6.56121 10.1997 6.52405 10.228 6.48824C10.234 6.48027 10.2394 6.47364 10.2448 6.46702C10.2738 6.43186 10.3034 6.39733 10.3337 6.36551C10.3391 6.3602 10.3431 6.35558 10.3478 6.35158C10.4798 6.21826 10.6374 6.11676 10.8434 6.06038L10.7518 6.00798H10.7464L10.3815 5.799L10.0065 5.5874L9.00448 6.12469L9.0018 6.12273L8.99978 6.12469L7.99715 5.5874L7.62277 5.79834L7.25715 6.00732H7.25312L7.16016 6.05969C7.36688 6.1161 7.52379 6.21626 7.65644 6.34961C7.6625 6.35492 7.66653 6.36089 7.67262 6.36617ZM8.59645 6.32304H9.02066H9.44417V6.60961C9.34452 6.48955 9.1506 6.51411 9.1506 6.51411V6.92737C9.1506 6.92737 9.15801 7.13034 9.23006 7.2186H9.02066H8.81056C8.88393 7.131 8.89068 6.92737 8.89068 6.92737V6.51411C8.89068 6.51411 8.69745 6.48955 8.59645 6.60961V6.32304Z" fill="white"/>
<path d="M8.91517 5.76658V4.08902L7.83105 3.72681L8.11724 5.3527L8.91517 5.76658ZM8.68217 4.50096V4.77025L8.62967 4.74637C8.62696 4.74441 8.55018 4.72712 8.41554 4.62234C8.1933 4.45252 8.18929 4.29599 8.18929 4.29599L8.68217 4.50096Z" fill="white"/>
<path d="M9.88718 5.3527L10.172 3.72681L9.08862 4.08902V5.76658L9.88718 5.3527ZM9.32158 4.50096L9.81446 4.29665C9.81446 4.29665 9.81043 4.45318 9.58756 4.623C9.45354 4.72781 9.3761 4.74503 9.37342 4.74706L9.32089 4.77094V4.50096H9.32158Z" fill="white"/>
<path d="M7.38207 9.65598C7.48776 9.69379 7.61572 9.70179 7.68106 9.70179C7.68374 9.69379 7.68711 9.68385 7.69049 9.67192C7.69654 9.65267 7.7019 9.6341 7.70597 9.61289C7.72413 9.52001 7.73088 9.41454 7.7322 9.34688C7.68777 9.31966 7.62515 9.27125 7.59012 9.19894C7.54972 9.11537 7.49249 9.0769 7.4083 9.0769C7.29927 9.0769 7.18209 9.14125 7.13227 9.17175C7.09254 9.40325 7.26559 9.61354 7.38207 9.65598Z" fill="white"/>
<path d="M9.78007 8.76587C9.57873 8.98144 9.18483 9.35691 9.16528 9.37613L9.14173 9.40001L7.89671 9.38076C7.89601 9.5022 7.87583 9.60567 7.85628 9.68126C7.85294 9.69389 7.84957 9.70717 7.84619 9.72042L9.32755 9.98246C9.48177 9.87627 9.90598 9.57114 10.0703 9.45176C9.9504 9.27929 9.93899 9.075 9.96592 8.93103C9.88778 8.88128 9.82787 8.82559 9.78007 8.76587Z" fill="white"/>
<path d="M9.94842 7.29054C9.66157 7.57118 9.38617 7.67465 9.14041 7.69852C9.09598 7.70315 9.05086 7.7058 9.00507 7.7058H9.0017H8.99899C8.9532 7.7058 8.90742 7.70315 8.86299 7.69852C8.81988 7.69455 8.77479 7.6879 8.72964 7.67796C8.71349 7.74099 8.69328 7.87299 8.75124 7.99768C8.80308 8.11112 8.90877 8.19534 9.06296 8.2511L9.1148 8.271L9.1155 8.32603C9.1155 8.34263 9.12761 8.69948 9.52286 8.79833C9.5875 8.73267 9.64609 8.67364 9.6892 8.62457C9.60838 8.43751 9.65079 8.24644 9.76796 8.15294C9.76257 8.17281 9.71143 8.64114 10.0925 8.81492L10.1551 8.84414L10.1363 8.90977C10.1302 8.92971 10.003 9.38275 10.4642 9.55122L10.5457 9.58175L10.5093 9.66003C10.5012 9.67728 10.3201 10.0885 10.7463 10.322H11.6708V9.599C11.3423 9.55922 11.2029 9.29915 11.1672 9.11474C11.0143 9.0889 10.8958 9.02389 10.815 8.91774C10.6211 8.66636 10.7881 8.43616 10.7901 8.42354C10.7894 8.42557 10.7901 8.67098 10.9436 8.82223C11.0197 8.89517 11.1099 8.95155 11.2466 8.96417L11.314 8.97014L11.32 9.0378C11.3214 9.05239 11.3584 9.38409 11.6715 9.43647L11.6708 7.9599C11.6708 7.73102 11.7389 7.50083 11.8203 7.28857H9.94842V7.29054Z" fill="white"/>
<path d="M7.46095 7.96702L7.43604 8.90764L7.54444 8.92357L7.80972 8.02143L7.67505 7.74414L7.46095 7.96702Z" fill="white"/>
<path d="M10.3857 12.2811C10.3938 12.2811 10.4033 12.2824 10.412 12.2844C10.577 12.3309 10.6188 12.9172 10.9083 12.9697C10.9365 12.9756 10.9628 12.9769 10.9857 12.9769C11.0692 12.9769 11.119 12.9418 11.1729 12.8794C11.1729 12.8794 11.0274 12.6539 10.9184 12.502C10.7736 12.303 10.6612 12.0622 10.3918 12.0622C10.3857 12.0622 10.3777 12.0622 10.3709 12.0629C10.2821 12.0675 10.2275 12.11 10.2275 12.11C10.1184 12.0423 10.0167 12.0191 9.92451 12.0191C9.75549 12.0191 9.62419 12.0954 9.55889 12.0954H9.55618L8.9542 12.037C8.85995 12.0284 8.78588 11.9349 8.75895 11.8983C8.7522 11.8884 8.74883 11.8824 8.74883 11.8824C8.74883 11.8665 8.74883 11.8499 8.7475 11.8353C8.72729 11.3504 8.34619 11.1428 8.21082 11.1395C8.21082 11.1395 8.227 11.0473 8.18998 11.0121L8.05732 11.1706L7.62164 10.9551L7.93204 11.3126L7.66878 11.6038C7.6358 11.637 7.63984 11.6821 7.6533 11.7007L7.7671 11.7995L7.91117 11.7132C7.91861 11.708 7.93142 11.7066 7.94753 11.7066C7.98726 11.7066 8.0472 11.7166 8.10106 11.7166C8.15965 11.7166 8.21082 11.704 8.21691 11.6496C8.19871 11.8293 8.0297 12.1418 8.14082 12.3872L8.22296 12.5723L7.69101 12.4967L7.44188 12.9112C7.36513 13.0493 7.35295 13.1985 7.42702 13.2794L7.51998 13.3942C7.51998 13.3942 7.65062 13.2575 7.68023 13.168L7.63782 13.1222C7.60212 13.0837 7.60414 13.0493 7.62571 13.0075L7.78189 12.7521L8.41014 12.898L8.44312 12.8423C8.48556 12.7726 8.54683 12.7514 8.61418 12.7514C8.64177 12.7514 8.67006 12.7547 8.69967 12.7594C8.81618 12.7819 9.00809 12.8124 9.19999 12.8124C9.41075 12.8124 9.61946 12.7753 9.73058 12.6526C9.95815 12.9849 10.4194 13.038 10.383 13.2065L10.2619 13.7756C10.342 13.7723 10.4194 13.767 10.4928 13.757L10.6079 13.1647C10.6207 13.1003 10.6329 13.0134 10.6329 13.0134C10.5885 12.969 10.4807 12.8748 10.4201 12.7607C10.3386 12.6068 10.383 12.5265 10.307 12.3262C10.3097 12.3275 10.3326 12.2811 10.3857 12.2811ZM8.03576 11.4492C8.00479 11.4486 7.98256 11.4227 7.98392 11.3922C7.98663 11.363 8.01154 11.3398 8.04184 11.3425C8.07281 11.3438 8.095 11.3703 8.09368 11.3995C8.09097 11.4287 8.0654 11.4513 8.03576 11.4492Z" fill="white"/>
<path d="M7.17831 12.8193C7.17831 12.8193 7.38639 12.735 7.40525 12.6746L7.37766 12.6063C7.35811 12.5619 7.36082 12.5135 7.39853 12.4869L7.62342 12.3337L7.99916 12.4047C7.99916 12.4047 7.93114 12.3211 7.93789 12.209L7.57965 12.134L7.24163 12.337C7.09686 12.4438 7.08608 12.6183 7.13388 12.7217L7.17831 12.8193Z" fill="white"/>
<path d="M9.83374 13.7839C9.90106 13.7813 9.97513 13.78 10.0566 13.78C10.0566 13.78 10.2499 13.2234 10.2607 13.2055C10.1522 13.1584 9.92736 13.041 9.84049 12.9873C9.89775 13.0715 10.0371 13.1684 10.0095 13.2427L9.83374 13.7839Z" fill="white"/>
<path d="M11.6732 10.4832H6.33154V12.4626C6.33154 13.2718 6.92612 13.7786 7.8035 13.7786C8.53679 13.7786 8.73001 13.8065 9.00274 14.0732C9.19057 13.8888 9.34616 13.8198 9.66529 13.7939L9.67274 13.7634L9.84106 13.2506C9.83163 13.2393 9.55626 12.9309 9.55626 12.9309C9.44715 12.9667 9.35559 12.9727 9.20139 12.9727C9.04313 12.9727 8.86469 12.9548 8.67146 12.919C8.65191 12.9143 8.63375 12.913 8.61555 12.913C8.592 12.913 8.58995 12.915 8.58389 12.9263L8.55022 12.9806L8.48895 13.0802L8.37383 13.0543L7.86139 12.9356L7.79139 13.0496L7.80215 13.0616L7.86477 13.1292L7.83718 13.2175C7.79947 13.3329 7.6769 13.4675 7.63988 13.5047L7.51196 13.64L7.39544 13.4947L7.30791 13.3866C7.21568 13.2851 7.19411 13.1292 7.24598 12.9661C7.24459 12.9674 7.24261 12.9681 7.24059 12.9681L7.09582 13.0271L7.03049 12.8878L6.9847 12.7889C6.9059 12.6152 6.93488 12.3611 7.14697 12.2078L7.55976 11.9783L7.95234 12.0546C7.96176 12.0175 7.97589 11.8848 7.9873 11.851C7.97993 11.8503 7.97252 11.8483 7.96511 11.8483L7.73886 11.9312L7.52069 11.7827C7.52069 11.7827 7.43521 11.7017 7.51258 11.6208L7.72404 11.3057L7.18875 10.6437L8.01155 10.9767L8.0661 10.9097L8.17722 10.779L8.30313 10.8971C8.33883 10.9309 8.35901 10.9727 8.3691 11.0145C8.596 11.1014 9.00208 11.3581 9.03774 11.7754L8.91047 11.8258V11.8291C8.93945 11.8629 8.96367 11.8769 8.97111 11.8782L9.55824 11.9352C9.57306 11.9326 9.59192 11.9259 9.61279 11.92C9.68554 11.8954 9.79527 11.8602 9.92525 11.8602C10.0309 11.8602 10.1333 11.8842 10.2316 11.9292C10.2679 11.916 10.3124 11.906 10.3636 11.9027L10.3919 11.9021C10.7063 11.9021 10.8625 12.1336 10.9878 12.318C11.0087 12.3498 11.0295 12.3803 11.0511 12.4102C11.1608 12.5627 11.3042 12.7863 11.3103 12.7956L11.3749 12.8951L11.2955 12.986C11.2342 13.0556 11.1426 13.1372 10.9851 13.1372C10.9528 13.1372 10.9171 13.1339 10.8787 13.1266C10.845 13.1206 10.8147 13.1107 10.7851 13.0987C10.7804 13.1292 10.7743 13.1657 10.7683 13.1969L10.6652 13.7262C11.2814 13.577 11.6726 13.1186 11.6726 12.4632L11.6732 10.4832Z" fill="#FFDD2D"/>
<path d="M6.33198 10.3241H10.4859C10.2785 10.1132 10.2812 9.84583 10.3344 9.67202C10.2738 9.64348 10.2239 9.60901 10.1795 9.57186C10.0172 9.68992 9.52162 10.0455 9.39234 10.1344L9.36475 10.1529L7.73456 9.86239H7.70155C7.66251 9.86239 7.60528 9.86108 7.54266 9.85377C7.52516 9.92608 7.46184 9.97584 7.38913 9.97584C7.38106 9.97584 7.37163 9.97518 7.36286 9.97318C7.32045 9.96586 7.2834 9.94465 7.25849 9.90949C7.23292 9.87502 7.22283 9.8339 7.23024 9.79142L7.23629 9.75692C7.06794 9.64017 6.91309 9.37948 6.98176 9.10485L6.98848 9.07566L7.01203 9.0591C7.01541 9.05644 7.04369 9.03788 7.08547 9.01397L6.96694 8.99606C6.92251 8.98813 6.89287 8.94762 6.89962 8.90453C6.90703 8.86075 6.94878 8.82956 6.99255 8.83818L7.27467 8.882L7.30027 7.90288L7.72041 7.46506L7.98234 8.00835L7.70562 8.95031L7.95475 8.98878C7.99852 8.99541 8.02882 9.03588 8.02207 9.08031C8.01536 9.11947 7.98168 9.14663 7.94195 9.14663C7.93792 9.14663 7.93319 9.14663 7.92918 9.146L7.72646 9.1135C7.72917 9.11947 7.73321 9.12275 7.73589 9.12941C7.75746 9.17316 7.80526 9.20504 7.83358 9.21829L9.07655 9.23754C9.12908 9.18713 9.25969 9.06106 9.3937 8.92775C9.08799 8.81365 8.9769 8.55362 8.95801 8.38114C8.78702 8.30952 8.66918 8.20204 8.60385 8.06207C8.52438 7.88894 8.5527 7.71581 8.57354 7.63156C8.4079 7.57187 8.23353 7.46309 8.05575 7.28931H6.18384C6.26396 7.50156 6.33198 7.73172 6.33198 7.9606V10.3241Z" fill="#FFDD2D"/>
<path d="M8.0424 11.3423C8.01209 11.3396 7.98649 11.3628 7.9845 11.392C7.98245 11.4225 8.00534 11.4483 8.03634 11.449C8.06595 11.4517 8.09222 11.4291 8.09489 11.3993C8.09489 11.3701 8.07336 11.3429 8.0424 11.3423Z" fill="black"/>
<path d="M11.666 14.9314L11.3582 14.8154L11.4431 14.5023L11.5367 14.1606C11.5367 14.1606 10.9913 14.4519 10.223 14.6707C10.0048 14.7325 9.83984 14.7603 9.83984 14.7603V14.9925C9.83984 14.9925 9.42907 15.0628 9.01363 15.0628H9.00893H9.00288H8.99478H8.99008C8.57461 15.0628 8.16387 14.9925 8.16387 14.9925V14.7603C8.16387 14.7603 7.99823 14.7325 7.78075 14.6707C7.01244 14.4519 6.46768 14.1606 6.46768 14.1606L6.55995 14.5023L6.64682 14.8154L6.3384 14.9314L5.99634 15.0575C6.38892 15.2439 6.93231 15.5159 7.42992 15.6498L7.31278 15.9656C7.31278 15.9656 7.94368 16.2488 8.99478 16.2515V16.2522H8.99815H9.00288H9.00692H9.00963V16.2515C10.062 16.2488 10.6923 15.9656 10.6923 15.9656L10.5744 15.6498C11.0721 15.5159 11.6168 15.2439 12.0074 15.0575L11.666 14.9314ZM6.36133 15.0787L6.86767 14.9129L6.71821 14.432C6.94108 14.5567 7.44137 14.7438 7.7309 14.8306L7.48646 15.492C7.0394 15.3706 6.66703 15.2293 6.36133 15.0787ZM9.00288 16.0857C8.41506 16.0857 7.7437 15.9523 7.5464 15.8834L7.84672 15.0827C8.09585 15.1543 8.61434 15.2306 8.99074 15.228H8.99143H9.00288H9.01297H9.01433C9.39073 15.2306 9.90786 15.1543 10.1583 15.0827L10.458 15.8834C10.2607 15.953 9.59001 16.0857 9.00288 16.0857ZM10.5179 15.492L10.2742 14.8306C10.5644 14.7438 11.0633 14.5567 11.2869 14.432L11.1381 14.9129L11.6437 15.0787C11.3374 15.2293 10.967 15.3706 10.5179 15.492Z" fill="black"/>
<path d="M9.00158 2.43443C9.62781 2.43443 10.1288 2.63875 10.4055 2.85699C10.4055 2.85699 10.4877 2.36943 10.7685 1.93893L10.2641 1.9953L10.0002 1.44274L9.49313 1.70012L9.00158 1.22119L8.51137 1.70012L8.00367 1.44274L7.74041 1.9953L7.23608 1.93893C7.51685 2.36943 7.59902 2.85699 7.59902 2.85699C7.87644 2.63875 8.37604 2.43443 9.00158 2.43443ZM7.71752 2.18902L7.85759 2.20361L7.91816 2.07821L8.09461 1.70674L8.42182 1.87324L8.54843 1.93695L8.64946 1.83876L9.00227 1.49382L9.35578 1.83876L9.45678 1.93695L9.58335 1.87324L9.90857 1.70674L10.087 2.07821L10.1463 2.20361L10.2864 2.18902L10.4196 2.17309C10.3584 2.30907 10.3133 2.43774 10.281 2.54456C9.92812 2.35084 9.46888 2.24075 9.00091 2.24075C8.53496 2.24075 8.07642 2.35084 7.72225 2.54456C7.68923 2.43774 7.64481 2.30842 7.58354 2.17309L7.71752 2.18902Z" fill="black"/>
<path d="M16.3493 8.90404C17.1594 8.90404 17.4301 8.09212 17.4415 8.05762L17.5318 7.77174L17.228 7.78102H17.2267C17.1196 7.78102 16.2261 7.7578 15.5925 6.96444L15.5326 6.89081C15.1184 6.37208 14.7259 5.87923 14.0243 5.65435C14.0445 5.63644 14.0734 5.61388 14.1132 5.58866C14.4855 5.34721 14.7023 5.05402 14.7569 4.71373C14.8363 4.20159 14.505 3.79364 14.4902 3.77707L14.2646 3.50246L14.1239 3.82816C14.1145 3.84872 13.8775 4.37013 13.3792 4.37013H13.3422C13.3078 4.3681 13.2755 4.36679 13.2432 4.36416C13.2607 4.13131 13.2176 3.7711 12.8863 3.43346C12.4884 3.02683 11.9995 2.96582 11.7436 2.96582C11.6069 2.96582 11.516 2.98239 11.5066 2.98372L11.1659 3.05006L11.376 3.32269C11.541 3.53298 11.6904 3.92103 11.5134 4.12403C11.4568 4.18834 11.3403 4.24075 11.2285 4.29316C10.9989 4.39729 10.6858 4.54191 10.6858 4.9107C10.6858 5.14952 10.8737 5.39897 11.2144 5.61122C12.2231 6.23611 12.8452 6.88815 13.1139 7.60789C13.5294 8.71501 12.9873 9.34649 12.4607 9.67884L12.2244 9.82872L12.4311 10.0158C12.4587 10.0397 12.7119 10.2593 13.0856 10.2911C13.1563 10.2957 13.2243 10.2997 13.2876 10.2997C13.5273 10.2997 13.7314 10.2626 13.897 10.2128C13.8512 10.2918 13.7953 10.372 13.7246 10.453C13.4236 10.7966 13.0533 10.9531 12.5207 10.9611L12.3227 10.9644L12.3072 11.1601C12.3052 11.1992 12.2904 11.5621 12.6392 11.8705C12.6924 11.9183 12.757 11.9574 12.8244 11.9899C12.588 12.1995 12.3476 12.5644 12.3012 13.1899C12.2621 13.7119 12.1356 13.905 12.1342 13.907L11.9153 14.236L12.3106 14.2413C12.9637 14.2413 13.464 14.0635 13.8108 13.7119C14.0155 13.5037 14.1327 13.2689 14.202 13.0605C14.3158 13.1561 14.4626 13.2397 14.6538 13.2841C14.7266 13.3007 14.806 13.31 14.8915 13.31C15.076 13.31 15.2302 13.2715 15.2477 13.2675L15.5002 13.2012L15.3885 12.969C15.3804 12.9504 15.1697 12.4848 15.3966 11.8201C15.4942 11.5329 15.544 11.2755 15.5683 11.0752C15.7272 11.1568 15.94 11.2244 16.2153 11.2251C16.8402 11.2251 17.1156 10.7654 17.1284 10.7461L17.2516 10.5352L17.0234 10.4424C16.2786 10.1379 16.1137 9.31996 16.0807 8.87686C16.148 8.88945 16.2248 8.90139 16.3116 8.90404H16.3493ZM16.9399 10.6381C16.9399 10.6381 16.7217 11.0115 16.2214 11.0115H16.2153C15.6147 11.0082 15.3723 10.6473 15.3723 10.6473C15.3723 10.6473 15.4073 11.117 15.1905 11.7505C14.9299 12.5139 15.1925 13.0599 15.1925 13.0599C15.1925 13.0599 15.0525 13.097 14.8908 13.097C14.8289 13.097 14.7643 13.0911 14.7037 13.0751C14.202 12.9578 14.0768 12.508 14.0768 12.508C14.0768 12.508 14.1233 14.0277 12.3247 14.0277H12.3106C12.3106 14.0277 12.4688 13.8154 12.516 13.2045C12.6015 12.0768 13.3765 11.9223 13.3765 11.9223C13.3765 11.9223 12.9631 11.8712 12.7839 11.7126C12.5038 11.4626 12.5234 11.1733 12.5234 11.1733C13.1563 11.1647 13.5704 10.9525 13.8862 10.5922C14.2283 10.2022 14.2849 9.78231 14.2849 9.78231C14.2849 9.78231 13.9448 10.0861 13.2869 10.0861C13.229 10.0861 13.1671 10.0835 13.1038 10.0775C12.7927 10.053 12.5773 9.85794 12.5773 9.85794C13.262 9.42543 13.7428 8.67057 13.3166 7.53357C12.9752 6.6228 12.155 5.94223 11.3295 5.42943C11.0548 5.26034 10.9019 5.07258 10.9019 4.9107C10.9019 4.52998 11.4514 4.51804 11.6769 4.26197C11.9369 3.96482 11.7739 3.48254 11.5484 3.19268C11.5484 3.19268 11.6244 3.17741 11.7443 3.17741C11.982 3.17741 12.3934 3.23644 12.7314 3.58138C13.1806 4.03909 12.994 4.53726 12.994 4.53726L13.1146 4.56048C13.1866 4.57573 13.258 4.57838 13.3321 4.5817C13.3483 4.5817 13.3644 4.58238 13.3805 4.58238C14.033 4.58238 14.3246 3.91042 14.3246 3.91042C14.3246 3.91042 15.0181 4.75086 13.9973 5.40887C13.8216 5.52165 13.7442 5.62581 13.7644 5.73725L13.7805 5.81022L13.8532 5.82282C14.5932 6.02048 14.9677 6.52333 15.4248 7.09513C16.1191 7.96477 17.1015 7.99262 17.2227 7.99262H17.2355C17.2355 7.99262 17.0113 8.68979 16.3507 8.68979C16.3399 8.68979 16.3305 8.68979 16.319 8.68913C16.0153 8.67851 15.8598 8.56375 15.8598 8.56375C15.8598 8.56375 15.7406 10.1471 16.9399 10.6381Z" fill="black"/>
<path d="M14.9258 5.74182C15.2281 5.90038 15.4039 6.11264 15.5581 6.30102C15.7096 6.48477 15.8537 6.66187 16.0786 6.73549C16.1587 6.76272 16.2436 6.77531 16.3298 6.77531C16.6678 6.77531 17.0071 6.57165 17.1358 6.28974L17.2651 6.00717L16.9519 5.98857C16.9371 5.98792 16.5345 5.9521 16.086 5.50037C15.9015 5.31531 15.6786 5.21777 15.4382 5.21777C15.1446 5.21777 14.9272 5.3624 14.903 5.37696L14.6147 5.57666L14.9258 5.74182ZM15.4389 5.43137C15.5898 5.43137 15.7655 5.48181 15.9318 5.65094C16.4536 6.17302 16.9391 6.20217 16.9391 6.20217C16.8509 6.39455 16.5951 6.56371 16.3304 6.56371C16.2691 6.56371 16.2079 6.5544 16.1466 6.53383C15.7877 6.41442 15.6591 5.88376 15.0282 5.55344C15.0282 5.55344 15.2046 5.43137 15.4389 5.43137Z" fill="black"/>
<path d="M15.0673 8.56019V8.57078C14.8856 7.12603 13.8203 6.0826 12.6352 5.44777C12.5254 5.39005 12.4244 5.34099 12.3261 5.29389C12.6871 5.34893 13.2681 5.35558 13.7166 4.97217C13.7166 4.97217 13.0304 5.46968 11.6245 5.01795C12.0137 5.26667 12.7699 5.61762 13.4601 6.18607C15.1858 7.67995 13.9509 9.13729 13.9509 9.13729C14.5711 8.49981 14.5966 7.81658 14.4142 7.25872C14.7408 7.79401 14.9495 8.44409 14.9171 9.24542C14.8694 10.3937 14.229 11.3867 13.555 12.1847C13.2311 12.5721 13.1584 13.0477 13.1584 13.0477C13.1584 13.0477 13.289 12.6278 13.6641 12.196C14.3866 11.3628 15.004 10.4971 15.0848 9.25005C15.1596 9.47627 15.4673 10.1058 15.9555 10.3426C15.9568 10.3433 15.3434 9.97906 15.0673 8.56019Z" fill="black"/>
<path d="M5.87029 13.9062C5.8696 13.9042 5.74438 13.7112 5.70399 13.1892C5.65682 12.5636 5.41711 12.1988 5.18011 11.9892C5.24879 11.9573 5.31207 11.9182 5.36527 11.8698C5.71342 11.5613 5.6986 11.1985 5.69658 11.1594L5.68312 10.9637L5.4838 10.9604C4.95251 10.9517 4.5815 10.7952 4.2805 10.4522C4.2105 10.3713 4.15393 10.291 4.10811 10.2121C4.27378 10.2618 4.47647 10.299 4.71684 10.299C4.78148 10.299 4.84814 10.295 4.91884 10.2904C5.29256 10.2585 5.54576 10.0396 5.57401 10.0151L5.78074 9.82798L5.54441 9.67811C5.01583 9.3451 4.47578 8.71358 4.89055 7.60712C5.15924 6.88742 5.78074 6.23537 6.79075 5.61048C7.13146 5.39823 7.318 5.14879 7.318 4.90997C7.318 4.54118 7.00555 4.39593 6.77596 4.29242C6.66418 4.24002 6.5477 4.18761 6.4911 4.1233C6.31335 3.92094 6.46351 3.53225 6.62782 3.32196L6.83925 3.04933L6.49718 2.98299C6.48709 2.98166 6.39754 2.96509 6.26016 2.96509C6.0043 2.96509 5.51678 3.0261 5.11815 3.43273C4.78621 3.77105 4.74241 4.13123 4.75928 4.36343C4.72693 4.36605 4.69464 4.36736 4.66097 4.3694H4.62461C4.12498 4.3694 3.88865 3.84799 3.87922 3.82743L3.73849 3.50172L3.51086 3.77634C3.49809 3.79291 3.16545 4.20155 3.24624 4.713C3.30013 5.05328 3.51694 5.34648 3.88931 5.58792C3.9297 5.61311 3.95798 5.6357 3.9782 5.65361C3.2772 5.87849 2.88535 6.372 2.4712 6.89073L2.41129 6.96436C1.77835 7.75772 0.882805 7.78094 0.775747 7.78094L0.470703 7.77166L0.563626 8.05754C0.57439 8.09204 0.844411 8.90396 1.65512 8.90396L1.69419 8.90262C1.7797 8.9 1.85645 8.88871 1.92516 8.87546C1.89149 9.31788 1.72651 10.1358 0.98109 10.4409L0.753523 10.5338L0.876752 10.7447C0.888859 10.764 1.16495 11.2237 1.79115 11.2237C2.0645 11.223 2.27728 11.1554 2.43687 11.0738C2.46112 11.2741 2.51094 11.5315 2.60859 11.8187C2.8355 12.4834 2.62411 12.949 2.616 12.9676L2.50425 13.1998L2.75739 13.2661C2.77423 13.2701 2.92978 13.3086 3.11361 13.3086C3.19979 13.3086 3.27925 13.2993 3.35064 13.2827C3.54251 13.2382 3.69065 13.1547 3.80313 13.0592C3.87177 13.2674 3.98964 13.5023 4.19366 13.7106C4.54111 14.0621 5.04074 14.2399 5.69387 14.2399L6.08982 14.2346L5.87029 13.9062ZM5.67905 14.0276C3.88054 14.0276 3.92636 12.5079 3.92636 12.5079C3.92636 12.5079 3.80108 12.9576 3.29943 13.0751C3.23952 13.091 3.17554 13.0969 3.11295 13.0969C2.95132 13.0969 2.81194 13.0598 2.81194 13.0598C2.81194 13.0598 3.07322 12.5139 2.81261 11.7504C2.59715 11.1169 2.63215 10.6472 2.63215 10.6472C2.63215 10.6472 2.39042 11.0081 1.78913 11.0114H1.78308C1.28275 11.0114 1.06458 10.6379 1.06458 10.6379C2.26316 10.1477 2.14532 8.56499 2.14532 8.56499C2.14532 8.56499 1.9898 8.67912 1.68542 8.69036C1.67467 8.69105 1.66455 8.69105 1.6538 8.69105C0.992563 8.69105 0.769005 7.99388 0.769005 7.99388H0.782456C0.904341 7.99388 1.88543 7.96601 2.57965 7.09636C3.03683 6.52457 3.41191 6.0224 4.15058 5.82408L4.22465 5.81149L4.24077 5.73852C4.26101 5.62708 4.18423 5.52292 4.0085 5.41017C2.98767 4.75147 3.68123 3.91166 3.68123 3.91166C3.68123 3.91166 3.97145 4.58296 4.6253 4.58296C4.64141 4.58296 4.65624 4.5823 4.67307 4.5823C4.74648 4.5783 4.81923 4.57568 4.89055 4.5604L5.0111 4.53718C5.0111 4.53718 4.82459 4.03901 5.2744 3.58133C5.61242 3.23571 6.02382 3.17735 6.26082 3.17735C6.38137 3.17735 6.45613 3.1926 6.45613 3.1926C6.23121 3.48314 6.06828 3.96473 6.32817 4.26192C6.55306 4.5173 7.10185 4.5299 7.10185 4.91066C7.10185 5.07185 6.94901 5.26023 6.67427 5.42939C5.84806 5.94218 5.02794 6.62276 4.6872 7.5335C4.26167 8.67049 4.74178 9.4247 5.42793 9.85786C5.42793 9.85786 5.21243 10.0529 4.90067 10.0774C4.83739 10.0834 4.77612 10.086 4.71684 10.086C4.05964 10.086 3.71963 9.78223 3.71963 9.78223C3.71963 9.78223 3.77617 10.2021 4.11621 10.5922C4.43406 10.9524 4.84814 11.1646 5.48112 11.1733C5.48112 11.1733 5.5013 11.4625 5.2212 11.7126C5.0414 11.8704 4.62798 11.9222 4.62798 11.9222C4.62798 11.9222 5.40368 12.0767 5.4885 13.2044C5.53498 13.8154 5.69185 14.0276 5.69185 14.0276H5.67905Z" fill="black"/>
<path d="M1.67367 6.77587C1.7605 6.77587 1.84536 6.76328 1.92551 6.73606C2.15173 6.66243 2.29517 6.4853 2.44668 6.30158C2.60153 6.1132 2.77594 5.90092 3.07827 5.74238L3.38934 5.57785L3.1005 5.37822C3.07625 5.36297 2.85944 5.21899 2.56653 5.21899C2.32547 5.21899 2.10194 5.31587 1.91807 5.5016C1.46965 5.95267 1.06768 5.98917 1.05283 5.98983L0.739746 6.0077L0.86834 6.29096C0.997613 6.57156 1.3363 6.77587 1.67367 6.77587ZM2.0723 5.6515C2.23929 5.48238 2.41502 5.43194 2.56653 5.43194C2.79949 5.43194 2.97595 5.55397 2.97595 5.55397C2.34565 5.88501 2.21637 6.41499 1.85614 6.53443C1.79689 6.55496 1.73493 6.56428 1.67367 6.56428C1.40905 6.56428 1.15316 6.39577 1.06563 6.20274C1.06563 6.20208 1.55044 6.17289 2.0723 5.6515Z" fill="black"/>
<path d="M3.08684 9.24615C3.05313 8.44482 3.26191 7.79474 3.58912 7.25945C3.40667 7.81731 3.43158 8.50054 4.05242 9.13802C4.05242 9.13802 2.81749 7.68068 4.54395 6.1868C5.23482 5.61835 5.9903 5.26741 6.37881 5.01868C4.97358 5.47041 4.28743 4.9729 4.28743 4.9729C4.73585 5.35632 5.31696 5.34966 5.67788 5.29394C5.58026 5.34103 5.4779 5.39016 5.36946 5.44785C4.18303 6.08268 3.11847 7.12614 2.93602 8.57085V8.55957C2.66059 9.97848 2.04785 10.3426 2.04785 10.3426C2.53537 10.1058 2.8424 9.477 2.91717 9.25012C2.99861 10.4972 3.61608 11.3629 4.33858 12.196C4.71362 12.6279 4.84562 13.0477 4.84562 13.0477C4.84562 13.0477 4.77221 12.5722 4.44698 12.1847C3.77431 11.3881 3.13395 10.3944 3.08684 9.24615Z" fill="black"/>
<path d="M8.59644 6.323V6.60957C8.6968 6.48947 8.89073 6.51403 8.89073 6.51403V6.92729C8.89073 6.92729 8.88398 7.13027 8.8106 7.21852H9.02064H9.23008C9.15803 7.13092 9.15062 6.92729 9.15062 6.92729V6.51403C9.15062 6.51403 9.34454 6.48947 9.44421 6.60957V6.323H9.02064H8.59644Z" fill="black"/>
<path d="M8.41597 4.62326C8.54995 4.72807 8.6274 4.74532 8.63008 4.74729L8.68261 4.77117V4.50119L8.1897 4.29688C8.1897 4.29756 8.19443 4.45344 8.41597 4.62326Z" fill="black"/>
<path d="M9.588 4.62326C9.8109 4.45344 9.8149 4.29688 9.8149 4.29688L9.32202 4.50119V4.77117L9.37389 4.74729C9.37727 4.74532 9.45402 4.72807 9.588 4.62326Z" fill="black"/>
<path d="M10.4757 3.524C10.4757 3.11474 9.77602 2.74658 9.0037 2.74658H9.00304H9.00102H8.99897C8.22665 2.74658 7.52708 3.11474 7.52708 3.524L7.54256 3.62485L7.85091 5.36877L7.5412 5.54587L6.7399 6.00691H6.74258C6.74258 6.00691 6.56216 6.09779 6.47866 6.15416C6.17362 6.36314 6.10898 6.66758 6.28609 6.79365C6.32986 6.54551 6.52914 6.28551 6.9022 6.28551C7.17086 6.28551 7.37557 6.42217 7.5412 6.62714C7.58361 6.67886 7.62401 6.73392 7.66172 6.79365C7.7082 6.86858 7.75465 6.93424 7.80113 6.99793H5.7373C5.88882 7.2984 6.03289 7.61682 6.03289 7.96245V12.4625C6.03289 13.5517 6.88335 14.0718 7.80314 14.0718C8.5142 14.0718 8.6098 14.04 9.00235 14.4247C9.39287 14.0393 9.48851 14.0718 10.2002 14.0718C11.1207 14.0718 11.9698 13.5517 11.9698 12.4625V7.96245C11.9698 7.61682 12.1139 7.2984 12.2661 6.99793H10.2016C10.2474 6.93493 10.2938 6.86858 10.3403 6.79365C10.3787 6.73392 10.4184 6.67886 10.4602 6.62714C10.6272 6.42148 10.8312 6.28551 11.0998 6.28551C11.4729 6.28551 11.6715 6.54486 11.716 6.79365C11.893 6.66758 11.8291 6.36314 11.522 6.15416C11.4399 6.09779 11.2594 6.00691 11.2594 6.00691H11.2621L10.4608 5.54587L10.1525 5.36877L10.4608 3.62485L10.4757 3.524ZM7.83073 3.72699L8.91485 4.08918V5.76678L8.11692 5.35221L7.83073 3.72699ZM8.05496 7.29047C8.23271 7.46491 8.40714 7.57307 8.57278 7.63276C8.55121 7.71698 8.52293 7.89079 8.60305 8.06392C8.66839 8.20321 8.78689 8.31068 8.95726 8.38234C8.97611 8.55481 9.08654 8.81416 9.39287 8.92894C9.25889 9.06226 9.12825 9.1876 9.07509 9.2387L7.83275 9.21948C7.8045 9.20551 7.75666 9.17435 7.73513 9.12992C7.73242 9.12395 7.72838 9.12063 7.72636 9.11398L7.92905 9.14648C7.93378 9.14717 7.93778 9.14717 7.94185 9.14717C7.98089 9.14717 8.01523 9.12063 8.02198 9.08085C8.02873 9.03638 7.99842 8.99591 7.95466 8.98929L7.70552 8.95082L7.98225 8.00955L7.72031 7.46625L7.30014 7.90404L7.27457 8.88316L6.99242 8.83938C6.94862 8.83075 6.9069 8.8626 6.89952 8.90572C6.89277 8.94882 6.92238 8.98929 6.96684 8.99726L7.08534 9.01516C7.04293 9.03904 7.01531 9.0576 7.01193 9.06026L6.98772 9.07685L6.98097 9.10604C6.91229 9.38064 7.06784 9.64137 7.2355 9.75809L7.22941 9.79262C7.22273 9.83502 7.23212 9.87615 7.2577 9.91068C7.28194 9.94584 7.31966 9.96706 7.36141 9.97434C7.37017 9.97568 7.3796 9.97634 7.38767 9.97634C7.46039 9.97634 7.5237 9.92659 7.54187 9.85431C7.60449 9.86156 7.66172 9.8629 7.70076 9.8629H7.73377L9.36396 10.1528L9.39155 10.1349C9.52153 10.0453 10.0164 9.68977 10.1787 9.57236C10.2232 9.61018 10.273 9.64465 10.3336 9.67321C10.281 9.84699 10.2777 10.1143 10.4857 10.3253H6.33118V7.96308C6.33118 7.73423 6.26317 7.50407 6.18304 7.29181H8.05496V7.29047ZM10.0696 9.45161C9.90464 9.57102 9.48044 9.87615 9.32691 9.98231L7.84555 9.7203C7.84893 9.70702 7.85227 9.69443 7.85564 9.68115C7.87519 9.60555 7.89471 9.50205 7.89607 9.38064L9.14106 9.40058L9.16464 9.37667C9.1835 9.35811 9.57806 8.98266 9.7794 8.76637C9.8272 8.82544 9.88714 8.88185 9.96528 8.93157C9.93832 9.07488 9.94977 9.27917 10.0696 9.45161ZM7.58967 9.19892C7.6247 9.2712 7.68799 9.31964 7.73175 9.34683C7.73043 9.41448 7.72368 9.51996 7.70552 9.61283C7.70145 9.6334 7.69606 9.65265 7.69 9.67186C7.68663 9.6838 7.68329 9.69377 7.68058 9.70171C7.61527 9.70171 7.48665 9.69377 7.38162 9.65596C7.26514 9.61349 7.0914 9.4032 7.13179 9.1717C7.1823 9.1412 7.29878 9.07685 7.40785 9.07685C7.49205 9.0762 7.54928 9.11532 7.58967 9.19892ZM7.43548 8.90769L7.46039 7.96773L7.67452 7.7442L7.8092 8.02149L7.54388 8.9236L7.43548 8.90769ZM10.0562 13.7806C9.97534 13.7806 9.90064 13.782 9.83325 13.7846L10.0097 13.244C10.0373 13.169 9.89789 13.0728 9.8407 12.9886C9.92754 13.0423 10.1525 13.1597 10.2609 13.2068C10.2494 13.2241 10.0562 13.7806 10.0562 13.7806ZM10.6096 13.1664L10.4945 13.7581C10.4211 13.768 10.343 13.7733 10.2629 13.7766L10.3841 13.2075C10.4204 13.0383 9.95919 12.9859 9.73159 12.6536C9.62051 12.777 9.4111 12.8134 9.201 12.8134C9.00909 12.8134 8.81722 12.7829 8.70068 12.7604C8.67107 12.7557 8.64278 12.7524 8.61519 12.7524C8.54784 12.7524 8.48657 12.773 8.44416 12.8433L8.41049 12.899L7.78227 12.7531L7.62603 13.0078C7.60383 13.0489 7.60247 13.0841 7.63817 13.1226L7.68058 13.1683C7.65163 13.2585 7.52102 13.3945 7.52102 13.3945L7.4274 13.2798C7.35333 13.1982 7.36544 13.0496 7.44289 12.9116L7.69202 12.4971L8.22397 12.5726L8.14114 12.3869C8.03005 12.1415 8.19906 11.829 8.21722 11.6493C8.21117 11.7037 8.16069 11.7156 8.10141 11.7156C8.04758 11.7156 7.98764 11.7057 7.94791 11.7057C7.93243 11.7057 7.91893 11.707 7.91155 11.7123L7.76745 11.7985L7.65361 11.6997C7.64018 11.6805 7.63545 11.636 7.66913 11.6028L7.93243 11.3123L7.62133 10.9548L8.05698 11.1704L8.18963 11.0118C8.22599 11.047 8.21051 11.1392 8.21051 11.1392C8.34651 11.1425 8.72764 11.3501 8.74785 11.8344C8.74921 11.8489 8.74921 11.8655 8.74921 11.8814C8.74921 11.8814 8.75258 11.8874 8.75926 11.8974C8.78622 11.9339 8.86029 12.0274 8.95454 12.036L9.55653 12.0944H9.55921C9.6252 12.0944 9.7565 12.0181 9.92486 12.0181C10.0164 12.0181 10.1188 12.0413 10.2278 12.109C10.2278 12.109 10.2824 12.0665 10.3713 12.0619C10.378 12.0612 10.3854 12.0612 10.3922 12.0612C10.6622 12.0612 10.774 12.3014 10.9187 12.501C11.0278 12.6529 11.1732 12.8785 11.1732 12.8785C11.1194 12.9415 11.0695 12.976 10.986 12.976C10.9632 12.976 10.9369 12.974 10.9086 12.9687C10.6191 12.9162 10.5773 12.3299 10.4123 12.2835C10.4036 12.2808 10.3942 12.2801 10.3861 12.2801C10.3329 12.2801 10.3093 12.3265 10.3093 12.3265C10.3847 12.5262 10.341 12.6072 10.4218 12.7611C10.4824 12.8751 10.5901 12.9693 10.6346 13.0138C10.6346 13.0151 10.6224 13.1013 10.6096 13.1664ZM7.37689 12.6065L7.40448 12.6748C7.38632 12.7345 7.17757 12.8194 7.17757 12.8194L7.13248 12.7226C7.08465 12.6191 7.09477 12.4446 7.24023 12.3378L7.57822 12.1349L7.93646 12.2098C7.92971 12.3219 7.99773 12.4055 7.99773 12.4055L7.62199 12.3345L7.3971 12.4877C7.35939 12.5136 7.35671 12.5621 7.37689 12.6065ZM10.6662 13.7256L10.7692 13.1962C10.7746 13.165 10.7813 13.1285 10.7861 13.098C10.815 13.11 10.846 13.1199 10.8797 13.1259C10.918 13.1332 10.9537 13.1365 10.986 13.1365C11.1436 13.1365 11.2352 13.0549 11.2964 12.9853L11.3759 12.8944L11.3113 12.7949C11.3052 12.7849 11.1625 12.5621 11.052 12.4095C11.0305 12.3796 11.0096 12.3498 10.9887 12.3173C10.8635 12.1329 10.7066 11.9014 10.3922 11.9014L10.3639 11.902C10.312 11.9053 10.2676 11.9153 10.2319 11.9285C10.1329 11.8828 10.0312 11.8596 9.92555 11.8596C9.79557 11.8596 9.68581 11.8947 9.6131 11.9193C9.59222 11.9253 9.57336 11.9319 9.55854 11.9345L8.97072 11.8775C8.96331 11.8761 8.93906 11.8622 8.91011 11.8277V11.8251L9.03738 11.7747C9.00172 11.3574 8.59498 11.1007 8.36804 11.0138C8.35799 10.972 8.33777 10.9302 8.30208 10.8964L8.17547 10.7783L8.06439 10.9097L8.00987 10.9766L7.187 10.6437L7.72232 11.3057L7.5109 11.6208C7.43346 11.7017 7.51897 11.7826 7.51897 11.7826L7.73711 11.9305L7.96339 11.8476C7.97146 11.8476 7.97821 11.8496 7.98562 11.8503C7.97484 11.8841 7.96071 12.0168 7.95128 12.0539L7.5587 11.9776L7.14591 12.2072C6.93383 12.3604 6.90488 12.6144 6.98365 12.7882L7.02943 12.8871L7.09477 13.0264L7.23884 12.9673C7.24089 12.9667 7.24291 12.966 7.24423 12.9647C7.19239 13.1279 7.2133 13.2831 7.30619 13.3852L7.39373 13.494L7.51021 13.6393L7.63817 13.504C7.67585 13.4669 7.79775 13.3322 7.83543 13.2168L7.86309 13.1285L7.80043 13.0609L7.79034 13.0489L7.86034 12.9348L8.37277 13.0536L8.4879 13.0794L8.5492 12.9799L8.58287 12.9255C8.58893 12.9143 8.59094 12.9123 8.6145 12.9123C8.63269 12.9123 8.65089 12.9143 8.67041 12.9183C8.86363 12.9541 9.04208 12.972 9.20034 12.972C9.35384 12.972 9.44541 12.966 9.5552 12.9302C9.5552 12.9302 9.83057 13.238 9.84 13.2499L9.67168 13.762L9.66424 13.7932C9.3451 13.8184 9.18955 13.8874 9.00172 14.0725C8.72896 13.8058 8.53573 13.778 7.80245 13.778C6.92506 13.778 6.33049 13.2712 6.33049 12.4619V10.4831H11.6715L11.6729 12.4619C11.6735 13.1186 11.2823 13.5763 10.6662 13.7256ZM11.821 7.29047C11.7395 7.50276 11.6715 7.73292 11.6715 7.96176L11.6722 9.43836C11.3591 9.38661 11.3221 9.05429 11.3207 9.03969L11.3146 8.97204L11.2473 8.96607C11.1113 8.95344 11.0211 8.89644 10.945 8.82344C10.7915 8.67219 10.7908 8.42677 10.7915 8.42481C10.7894 8.43737 10.6224 8.66756 10.8164 8.91897C10.8978 9.0251 11.0157 9.0901 11.1685 9.11601C11.2042 9.30039 11.3436 9.56043 11.6722 9.60021V10.3233H10.7484C10.3221 10.0897 10.5026 9.67849 10.5113 9.66127L10.5477 9.58296L10.4662 9.55249C10.005 9.38395 10.1316 8.93026 10.1383 8.91104L10.1572 8.84469L10.0946 8.8155C9.7134 8.64172 9.76527 8.17274 9.76997 8.15346C9.65283 8.24702 9.61042 8.43806 9.6912 8.62512C9.64743 8.67422 9.58885 8.73387 9.5249 8.79891C9.13031 8.70006 9.1182 8.34252 9.1182 8.32596L9.1175 8.2709L9.06566 8.25099C8.91147 8.19458 8.80574 8.11036 8.7539 7.99692C8.69532 7.87154 8.71619 7.7402 8.73233 7.6772C8.77746 7.68713 8.82258 7.69445 8.86569 7.69776C8.91011 7.70238 8.9559 7.70504 9.00172 7.70504H9.0044H9.00777C9.05356 7.70504 9.09865 7.70238 9.14311 7.69776C9.38887 7.67388 9.66424 7.56972 9.95109 7.28978H11.821V7.29047ZM10.3814 5.79793L10.7463 6.00691H10.7517L10.8433 6.05932C10.6372 6.11569 10.4797 6.21719 10.3477 6.35051C10.343 6.35451 10.3383 6.35979 10.3336 6.36445C10.3033 6.39629 10.273 6.43079 10.2447 6.46592C10.2393 6.47258 10.2339 6.47986 10.2278 6.48717C10.1996 6.52298 10.1733 6.55948 10.1477 6.59795C10.1437 6.60458 10.139 6.6112 10.1343 6.61717C10.104 6.66161 10.075 6.70939 10.046 6.75846C9.78614 7.19959 9.37134 7.46294 9.00235 7.4636C8.63405 7.46294 8.21927 7.19959 7.95935 6.75846C7.93104 6.71074 7.90278 6.66427 7.87248 6.61914C7.86639 6.61055 7.86104 6.60192 7.85564 6.59464C7.83007 6.55814 7.8045 6.52233 7.7782 6.48848C7.77148 6.4792 7.76543 6.47192 7.75868 6.46395C7.73043 6.4301 7.70145 6.39629 7.67247 6.3651C7.66642 6.36048 7.66241 6.35451 7.65636 6.34916C7.5237 6.21585 7.3668 6.115 7.16007 6.05932L7.253 6.00691H7.25703L7.62199 5.79793L7.99707 5.58637L8.99897 6.12363L9.00102 6.12166L9.0037 6.12363L10.0056 5.58637L10.3814 5.79793ZM9.88714 5.35283L9.08852 5.7674V4.08918L10.1719 3.72699L9.88714 5.35283ZM9.00172 3.90478L7.81389 3.44242C7.91493 3.20693 8.38084 3.0066 9.00172 3.00595C9.62319 3.0066 10.0891 3.20693 10.1895 3.44242L9.00172 3.90478Z" fill="black"/>
</svg>
