<svg width="80" height="80" viewBox="0 0 80 80" fill="none" xmlns="http://www.w3.org/2000/svg">
<mask id="path-1-inside-1_978_3031" fill="white">
<path d="M36.3378 25.5416C36.1937 25.0237 35.6558 24.718 35.1473 24.8923C31.6304 26.0983 28.6137 28.4613 26.6001 31.6094C24.4113 35.0315 23.5617 39.1408 24.2142 43.1503C24.8668 47.1599 26.9754 50.7878 30.1364 53.3392C33.2974 55.8907 37.2886 57.1865 41.3455 56.9783C45.4024 56.7702 49.24 55.0727 52.1232 52.2111C55.0065 49.3495 56.7328 45.5249 56.9715 41.4696C57.2102 37.4144 55.9446 33.4136 53.417 30.2334C51.0918 27.308 47.849 25.2662 44.2272 24.4265C43.7035 24.305 43.1997 24.6643 43.1094 25.1942C43.019 25.7241 43.3765 26.2236 43.8992 26.3492C47.0487 27.1056 49.8661 28.8945 51.893 31.4447C54.1224 34.2496 55.2388 37.7784 55.0282 41.3552C54.8177 44.932 53.295 48.3055 50.7519 50.8295C48.2088 53.3535 44.824 54.8506 41.2457 55.0342C37.6674 55.2178 34.1472 54.075 31.3591 51.8245C28.571 49.574 26.7111 46.3741 26.1356 42.8377C25.5601 39.3012 26.3094 35.6767 28.24 32.6583C29.9953 29.914 32.6148 27.8462 35.6704 26.7714C36.1775 26.593 36.4819 26.0595 36.3378 25.5416Z"/>
</mask>
<path d="M36.3378 25.5416C36.1937 25.0237 35.6558 24.718 35.1473 24.8923C31.6304 26.0983 28.6137 28.4613 26.6001 31.6094C24.4113 35.0315 23.5617 39.1408 24.2142 43.1503C24.8668 47.1599 26.9754 50.7878 30.1364 53.3392C33.2974 55.8907 37.2886 57.1865 41.3455 56.9783C45.4024 56.7702 49.24 55.0727 52.1232 52.2111C55.0065 49.3495 56.7328 45.5249 56.9715 41.4696C57.2102 37.4144 55.9446 33.4136 53.417 30.2334C51.0918 27.308 47.849 25.2662 44.2272 24.4265C43.7035 24.305 43.1997 24.6643 43.1094 25.1942C43.019 25.7241 43.3765 26.2236 43.8992 26.3492C47.0487 27.1056 49.8661 28.8945 51.893 31.4447C54.1224 34.2496 55.2388 37.7784 55.0282 41.3552C54.8177 44.932 53.295 48.3055 50.7519 50.8295C48.2088 53.3535 44.824 54.8506 41.2457 55.0342C37.6674 55.2178 34.1472 54.075 31.3591 51.8245C28.571 49.574 26.7111 46.3741 26.1356 42.8377C25.5601 39.3012 26.3094 35.6767 28.24 32.6583C29.9953 29.914 32.6148 27.8462 35.6704 26.7714C36.1775 26.593 36.4819 26.0595 36.3378 25.5416Z" stroke="#393939" stroke-width="4" mask="url(#path-1-inside-1_978_3031)"/>
<path d="M47.5 23.5L43.2387 24.447C43.1153 24.4744 43.048 24.6079 43.0993 24.7234L45 29" stroke="#393939" stroke-width="2" stroke-linecap="round"/>
<circle cx="40.5" cy="40.5" r="8" stroke="#EC5C57"/>
<path d="M40.3101 41.5907V42.4121H41.7317C41.8571 42.4121 41.9582 42.4534 42.0348 42.5359C42.1185 42.6184 42.1603 42.7271 42.1603 42.8622C42.1603 42.9972 42.1185 43.106 42.0348 43.1885C41.9582 43.2635 41.8571 43.301 41.7317 43.301H40.3101V44.2686C40.3101 44.5012 40.2474 44.6812 40.122 44.8087C40.0035 44.9362 39.8502 45 39.662 45C39.4739 45 39.3171 44.9362 39.1916 44.8087C39.0732 44.6812 39.0139 44.5012 39.0139 44.2686V43.301H38.439C38.3206 43.301 38.216 43.2597 38.1254 43.1772C38.0418 43.0947 38 42.9897 38 42.8622C38 42.7271 38.0418 42.6184 38.1254 42.5359C38.216 42.4534 38.3206 42.4121 38.439 42.4121H39.0139V41.5907H38.439C38.3206 41.5907 38.216 41.5495 38.1254 41.4669C38.0418 41.3769 38 41.2682 38 41.1406C38 41.0056 38.0418 40.8969 38.1254 40.8143C38.216 40.7318 38.3206 40.6906 38.439 40.6906H39.0139V37.6864C39.0139 37.4688 39.0697 37.3 39.1812 37.18C39.2927 37.06 39.4495 37 39.6516 37H41.5122C42.2997 37 42.9094 37.21 43.3415 37.6301C43.7805 38.0427 44 38.5865 44 39.2616C44 39.9892 43.7805 40.5593 43.3415 40.9719C42.9094 41.3844 42.2997 41.5907 41.5122 41.5907H40.3101ZM40.2997 40.6906H41.23C42.2474 40.6906 42.7561 40.2705 42.7561 39.4304C42.7561 38.9653 42.6341 38.624 42.3902 38.4065C42.1533 38.1889 41.7875 38.0802 41.2927 38.0802H40.2997V40.6906Z" fill="#EC5C57"/>
</svg>
