<svg width="80" height="80" viewBox="0 0 80 80" fill="none" xmlns="http://www.w3.org/2000/svg">
<path fill-rule="evenodd" clip-rule="evenodd" d="M40.0002 18.8755C28.3522 18.8755 18.876 28.3529 18.876 40.0009C18.876 51.6478 28.3522 61.1241 40.0002 61.1241C51.6482 61.1241 61.1245 51.6478 61.1245 40.0009C61.1245 28.3529 51.6482 18.8755 40.0002 18.8755ZM40.0002 62.9331C27.3549 62.9331 17.0669 52.6462 17.0669 40.0009C17.0669 27.3545 27.3549 17.0665 40.0002 17.0665C52.6456 17.0665 62.9336 27.3545 62.9336 40.0009C62.9336 52.6462 52.6456 62.9331 40.0002 62.9331ZM40.0002 22.5339C30.3693 22.5339 22.5346 30.3696 22.5346 39.9995C22.5346 49.6304 30.3693 57.4661 40.0002 57.4661C49.6301 57.4661 57.4658 49.6304 57.4658 39.9995C57.4658 30.3696 49.6301 22.5339 40.0002 22.5339ZM40.0002 58.4997C29.7997 58.4997 21.5 50.2 21.5 39.9995C21.5 29.8 29.7997 21.5003 40.0002 21.5003C50.2008 21.5003 58.4994 29.8 58.4994 39.9995C58.4994 50.2 50.2008 58.4997 40.0002 58.4997ZM39.4837 25.2427H40.5184V23.0592H39.4837V25.2427ZM40.5184 56.9408H39.4837V54.7584H40.5184V56.9408ZM56.9398 40.5173H54.7584V39.4827H56.9398V40.5173ZM23.0592 40.5173H25.2416V39.4827H23.0592V40.5173ZM38.6871 39.9373C38.6871 40.5197 39.1585 40.9901 39.7399 40.9901C40.3223 40.9901 40.7937 40.5197 40.7937 39.9373C40.7937 39.3549 40.3223 38.8823 39.7399 38.8823C39.1585 38.8823 38.6871 39.3549 38.6871 39.9373ZM47.5265 31.5597L48.814 32.8301L42.2529 39.4861C42.2796 39.6333 42.2988 39.7826 42.2988 39.9373C42.2988 41.3474 41.1511 42.4951 39.7409 42.4951C38.3297 42.4951 37.182 41.3474 37.182 39.9373C37.182 39.7389 37.2087 39.5469 37.2524 39.3613L33.7708 36.6605L34.8791 35.2322L38.2625 37.8551C38.6807 37.5575 39.1884 37.3773 39.7409 37.3773C40.318 37.3773 40.846 37.5778 41.2737 37.901L47.5265 31.5597Z" fill="#393939"/>
</svg>
