<svg width="80" height="80" viewBox="0 0 80 80" fill="none" xmlns="http://www.w3.org/2000/svg">
<path d="M47 30C47 30 55.5 33 56.5 42C57.38 49.92 51.2904 53.1936 49.8162 53.8652C49.6265 53.9516 49.5 54.1381 49.5 54.3465V58.5C49.5 58.7761 49.2761 59 49 59H45.2403C45.0884 59 44.9448 58.931 44.8499 58.8123L43.1501 56.6877C43.0552 56.569 42.9116 56.5 42.7597 56.5H35.7831C35.6075 56.5 35.4447 56.5921 35.3543 56.7428L34.1457 58.7572C34.0553 58.9079 33.8925 59 33.7169 59H30C29.7239 59 29.5 58.7761 29.5 58.5V55.2119C29.5 55.0764 29.4441 54.9461 29.3472 54.8515C26.7478 52.3183 25.4821 50.6366 24.1268 47.3149C24.0494 47.1253 23.8656 47 23.6607 47H21.5C21.2239 47 21 46.7761 21 46.5V39.5C21 39.2239 21.2239 39 21.5 39H23.691C23.8804 39 24.0535 38.893 24.1382 38.7236L26.4472 34.1056C26.4819 34.0361 26.5 33.9596 26.5 33.882V27.9343C26.5 27.5349 26.9451 27.2967 27.2774 27.5182L30.874 29.916C30.9562 29.9708 31.0527 30 31.1514 30H32.5" stroke="#393939" stroke-width="2"/>
<path d="M31.5 35C38 31 42.5 31 47.5 35" stroke="#393939" stroke-linecap="round"/>
<mask id="path-3-inside-1_978_2955" fill="white">
<path d="M45.6569 33.6569C46.7706 32.5431 47.5308 31.1253 47.8422 29.5812C48.1535 28.0372 48.0021 26.4356 47.407 24.9772C46.8118 23.5189 45.7994 22.2687 44.4966 21.3833C43.1939 20.498 41.6588 20.0169 40.0837 20.0004C38.5087 19.984 36.9638 20.4328 35.6428 21.2907C34.3218 22.1486 33.2835 23.3773 32.6579 24.8229C32.0324 26.2685 31.8475 27.8666 32.1265 29.4168C32.4054 30.967 33.1358 32.4004 34.226 33.5372L34.9486 32.8442C33.9949 31.8497 33.3559 30.5957 33.1119 29.2395C32.8678 27.8833 33.0296 26.4852 33.5768 25.2205C34.1241 23.9559 35.0325 22.8809 36.1881 22.1304C37.3438 21.3799 38.6953 20.9872 40.0732 21.0016C41.4512 21.016 42.7941 21.4369 43.9339 22.2114C45.0736 22.986 45.9593 24.0797 46.4799 25.3556C47.0006 26.6314 47.1331 28.0325 46.8607 29.3833C46.5883 30.7341 45.9233 31.9745 44.9489 32.9489L45.6569 33.6569Z"/>
</mask>
<path d="M45.6569 33.6569C46.7706 32.5431 47.5308 31.1253 47.8422 29.5812C48.1535 28.0372 48.0021 26.4356 47.407 24.9772C46.8118 23.5189 45.7994 22.2687 44.4966 21.3833C43.1939 20.498 41.6588 20.0169 40.0837 20.0004C38.5087 19.984 36.9638 20.4328 35.6428 21.2907C34.3218 22.1486 33.2835 23.3773 32.6579 24.8229C32.0324 26.2685 31.8475 27.8666 32.1265 29.4168C32.4054 30.967 33.1358 32.4004 34.226 33.5372L34.9486 32.8442C33.9949 31.8497 33.3559 30.5957 33.1119 29.2395C32.8678 27.8833 33.0296 26.4852 33.5768 25.2205C34.1241 23.9559 35.0325 22.8809 36.1881 22.1304C37.3438 21.3799 38.6953 20.9872 40.0732 21.0016C41.4512 21.016 42.7941 21.4369 43.9339 22.2114C45.0736 22.986 45.9593 24.0797 46.4799 25.3556C47.0006 26.6314 47.1331 28.0325 46.8607 29.3833C46.5883 30.7341 45.9233 31.9745 44.9489 32.9489L45.6569 33.6569Z" stroke="#393939" stroke-width="2" mask="url(#path-3-inside-1_978_2955)"/>
<circle cx="29" cy="40" r="1" fill="#393939"/>
<path d="M39.3101 27.5907V28.4121H40.7317C40.8571 28.4121 40.9582 28.4534 41.0348 28.5359C41.1185 28.6184 41.1603 28.7271 41.1603 28.8622C41.1603 28.9972 41.1185 29.106 41.0348 29.1885C40.9582 29.2635 40.8571 29.301 40.7317 29.301H39.3101V30.2686C39.3101 30.5012 39.2474 30.6812 39.122 30.8087C39.0035 30.9362 38.8502 31 38.662 31C38.4739 31 38.3171 30.9362 38.1916 30.8087C38.0732 30.6812 38.0139 30.5012 38.0139 30.2686V29.301H37.439C37.3206 29.301 37.216 29.2597 37.1254 29.1772C37.0418 29.0947 37 28.9897 37 28.8622C37 28.7271 37.0418 28.6184 37.1254 28.5359C37.216 28.4534 37.3206 28.4121 37.439 28.4121H38.0139V27.5907H37.439C37.3206 27.5907 37.216 27.5495 37.1254 27.4669C37.0418 27.3769 37 27.2682 37 27.1406C37 27.0056 37.0418 26.8969 37.1254 26.8143C37.216 26.7318 37.3206 26.6906 37.439 26.6906H38.0139V23.6864C38.0139 23.4688 38.0697 23.3 38.1812 23.18C38.2927 23.06 38.4495 23 38.6516 23H40.5122C41.2997 23 41.9094 23.21 42.3415 23.6301C42.7805 24.0427 43 24.5865 43 25.2616C43 25.9892 42.7805 26.5593 42.3415 26.9719C41.9094 27.3844 41.2997 27.5907 40.5122 27.5907H39.3101ZM39.2997 26.6906H40.23C41.2474 26.6906 41.7561 26.2705 41.7561 25.4304C41.7561 24.9653 41.6341 24.624 41.3902 24.4065C41.1533 24.1889 40.7875 24.0802 40.2927 24.0802H39.2997V26.6906Z" fill="#393939"/>
</svg>
