<svg width="46" height="28" viewBox="0 0 46 28" fill="none" xmlns="http://www.w3.org/2000/svg">
<path d="M45.8228 12.0003V18.646H43.5797V13.9842H41.4199V18.646H39.1768V11.9999H45.8228V12.0003Z" fill="white"/>
<path fill-rule="evenodd" clip-rule="evenodd" d="M34.2868 18.9457C36.4046 18.9457 37.9773 17.635 37.9773 15.6481C37.9773 13.7249 36.817 12.4763 34.8778 12.4763C33.9828 12.4763 33.2443 12.7942 32.6881 13.3429C32.8209 12.2089 33.771 11.381 34.817 11.381C35.0585 11.381 36.876 11.3771 36.876 11.3771L37.9037 9.39197C37.9037 9.39197 35.6219 9.44439 34.5612 9.44439C32.1375 9.48702 30.5005 11.7106 30.5005 14.4113C30.5005 17.5575 32.0971 18.9457 34.2868 18.9457ZM34.2997 14.2346C35.086 14.2346 35.6312 14.7561 35.6312 15.6478C35.6312 16.4504 35.1468 17.1117 34.2997 17.1135C33.4894 17.1135 32.9442 16.5008 32.9442 15.6615C32.9442 14.7696 33.4894 14.2346 34.2997 14.2346Z" fill="white"/>
<path d="M28.6919 16.3023C28.6919 16.3023 28.1401 16.6227 27.316 16.6833C26.3685 16.7116 25.5243 16.1089 25.5243 15.0381C25.5243 13.9935 26.2692 13.3949 27.2921 13.3949C27.9193 13.3949 28.749 13.8327 28.749 13.8327C28.749 13.8327 29.3562 12.7107 29.6706 12.1495C29.0947 11.7099 28.3277 11.4689 27.4355 11.4689C25.1839 11.4689 23.4399 12.9474 23.4399 15.0248C23.4399 17.1288 25.0791 18.573 27.4355 18.5294C28.0942 18.5047 29.0029 18.2717 29.5567 17.9134L28.6919 16.3023Z" fill="white"/>
<path d="M0.177246 6.31555L3.50029 12.2086V15.8032L0.181133 21.6846L0.177246 6.31555Z" fill="#5B57A2"/>
<path d="M12.6372 10.3077L15.6368 8.39792L21.7756 8.39197L12.6372 14.2073V10.3077Z" fill="#D90751"/>
<path d="M12.6204 6.39731L12.638 14.2076L9.31494 12.1749V0.5L12.6206 6.39731H12.6204Z" fill="#FAB718"/>
<path d="M21.7764 8.38624L15.5804 8.39223L12.5362 6.47538L9.31494 0.5L21.7761 8.38624H21.7764Z" fill="#ED6F26"/>
<path d="M12.6376 21.3534L12.6397 17.4712L9.31668 15.4867L9.31641 27.2284L12.6376 21.3534Z" fill="#63B22F"/>
<path d="M15.5912 19.6077L3.40556 12.1069L0.177246 6.31555L21.777 19.6001L15.591 19.6077H15.5912Z" fill="#1487C9"/>
<path d="M9.31494 27.5L12.5551 21.5187L15.5786 19.6156L21.7764 19.6078L9.31494 27.5Z" fill="#017F36"/>
<path d="M0.177246 21.6845L9.60241 15.8833L6.53012 13.9998L3.38639 15.9577L0.177246 21.6845Z" fill="#984995"/>
</svg>
