<svg width="16" height="16" viewBox="0 0 16 16" fill="none" xmlns="http://www.w3.org/2000/svg">
<circle cx="8" cy="8" r="8" fill="white"/>
<circle cx="8" cy="8" r="4" fill="#83C150"/>
<mask id="path-3-inside-1_67_10330" fill="white">
<path d="M16 8C16 12.4183 12.4183 16 8 16C3.58172 16 0 12.4183 0 8C0 3.58172 3.58172 0 8 0C12.4183 0 16 3.58172 16 8ZM1.01409 8C1.01409 11.8582 4.14179 14.9859 8 14.9859C11.8582 14.9859 14.9859 11.8582 14.9859 8C14.9859 4.14179 11.8582 1.01409 8 1.01409C4.14179 1.01409 1.01409 4.14179 1.01409 8Z"/>
</mask>
<path d="M16 8C16 12.4183 12.4183 16 8 16C3.58172 16 0 12.4183 0 8C0 3.58172 3.58172 0 8 0C12.4183 0 16 3.58172 16 8ZM1.01409 8C1.01409 11.8582 4.14179 14.9859 8 14.9859C11.8582 14.9859 14.9859 11.8582 14.9859 8C14.9859 4.14179 11.8582 1.01409 8 1.01409C4.14179 1.01409 1.01409 4.14179 1.01409 8Z" fill="white" stroke="#83C150" stroke-width="2" mask="url(#path-3-inside-1_67_10330)"/>
</svg>
