<svg width="43" height="6" viewBox="0 0 43 6" fill="none" xmlns="http://www.w3.org/2000/svg">
<path d="M34.344 2.72831L32.7238 0.969057H31.7749V5.04451H32.7655V2.44303L34.2467 3.98263H34.4295L35.8853 2.44303V5.04H36.8758V0.964515H35.927L34.3464 2.72377L34.344 2.72831ZM41.5929 0.969057L39.137 3.61586V0.969057H38.1465V5.04451H39.056L41.5094 2.4V5.04H42.5V0.964515L41.5929 0.969057ZM26.4356 2.45886C26.4258 2.75314 26.5098 3.04306 26.6755 3.28877C26.8414 3.53449 27.081 3.72391 27.3614 3.83094L26.3152 5.04H27.5255L28.4791 3.94189H29.509V5.04H30.4995V0.964515H27.9769C27.7728 0.952543 27.5687 0.982714 27.3773 1.05309C27.186 1.12349 27.0118 1.23249 26.8665 1.37303C26.721 1.51357 26.6074 1.68249 26.5332 1.8688C26.459 2.05509 26.4258 2.2546 26.4356 2.45434V2.45886ZM29.5069 1.86566V3.0702H28.1597C27.6968 3.0702 27.4655 2.82566 27.4655 2.46791C27.4655 2.1102 27.7154 1.86566 28.1597 1.86566H29.5069ZM21.8344 1.78414C21.7719 3.1834 21.4688 4.0868 20.867 4.0868H20.7281V5.06491H20.8855C22.0751 5.12831 22.737 4.11169 22.8412 1.89509H24.4058V5.04H25.3962V0.964515H21.8668L21.8344 1.78414ZM18.1059 0.912457C16.7658 0.912457 15.7915 1.81811 15.7915 3.00451C15.7915 4.23397 16.8399 5.10566 18.1059 5.10566C19.4112 5.10566 20.4203 4.18643 20.4203 3.00451C20.4203 1.82263 19.4043 0.912457 18.1059 0.912457ZM18.1059 4.1298C17.3468 4.1298 16.8329 3.64754 16.8329 2.99774C16.8329 2.34791 17.3491 1.86566 18.1059 1.86566C18.8627 1.86566 19.395 2.35471 19.395 2.99774C19.395 3.64074 18.8534 4.1298 18.1059 4.1298ZM14.7499 0.978115H11.2552L11.2204 1.79094C11.1718 2.96377 10.8571 4.08 10.2646 4.09586H9.98916V6H10.989V5.04H14.4607V6H15.4697V4.09586H14.7523L14.7499 0.978115ZM13.7594 4.09586H11.6463C12.0027 3.56603 12.1948 2.80074 12.2295 1.90643H13.7594V4.09586ZM7.67475 0H6.74898V4.98114H7.67475V0ZM1.42577 1.01886H0.5V6H1.42577V1.01886ZM3.50877 0.679257H2.58299V5.66037H3.50877V0.679257ZM5.59176 0.339629H4.66599V5.32074H5.59176V0.339629Z" fill="black"/>
</svg>
