<svg width="80" height="80" viewBox="0 0 80 80" fill="none" xmlns="http://www.w3.org/2000/svg">
<mask id="path-1-inside-1_7193_1412" fill="white">
<path d="M36.1214 57.7158C35.8657 58.2125 36.0601 58.8249 36.5683 59.057C39.6092 60.4457 42.9366 61.1082 46.2866 60.9856C49.974 60.8506 53.5647 59.7689 56.713 57.8444C59.8614 55.92 62.4615 53.2177 64.2631 49.9975C66.0647 46.7773 67.0072 43.1476 67 39.4577C66.9927 35.7677 66.0359 32.1418 64.2216 28.9287C62.4073 25.7156 59.7966 23.0236 56.6407 21.1115C53.4848 19.1995 49.8899 18.1319 46.2019 18.0115C42.8515 17.902 39.5267 18.5776 36.4914 19.9784C35.9841 20.2125 35.792 20.8256 36.0497 21.3213C36.3074 21.817 36.9173 22.0074 37.4257 21.7758C40.152 20.5338 43.1325 19.9356 46.1359 20.0337C49.4768 20.1428 52.7334 21.1099 55.5923 22.842C58.4512 24.5741 60.8162 27.0128 62.4598 29.9235C64.1033 32.8342 64.9701 36.119 64.9767 39.4616C64.9833 42.8043 64.1294 46.0924 62.4974 49.0096C60.8653 51.9268 58.5099 54.3748 55.6578 56.1181C52.8057 57.8614 49.553 58.8414 46.2125 58.9637C43.2096 59.0736 40.2267 58.4871 37.4956 57.2559C36.9862 57.0263 36.3772 57.219 36.1214 57.7158Z"/>
</mask>
<path d="M36.1214 57.7158C35.8657 58.2125 36.0601 58.8249 36.5683 59.057C39.6092 60.4457 42.9366 61.1082 46.2866 60.9856C49.974 60.8506 53.5647 59.7689 56.713 57.8444C59.8614 55.92 62.4615 53.2177 64.2631 49.9975C66.0647 46.7773 67.0072 43.1476 67 39.4577C66.9927 35.7677 66.0359 32.1418 64.2216 28.9287C62.4073 25.7156 59.7966 23.0236 56.6407 21.1115C53.4848 19.1995 49.8899 18.1319 46.2019 18.0115C42.8515 17.902 39.5267 18.5776 36.4914 19.9784C35.9841 20.2125 35.792 20.8256 36.0497 21.3213C36.3074 21.817 36.9173 22.0074 37.4257 21.7758C40.152 20.5338 43.1325 19.9356 46.1359 20.0337C49.4768 20.1428 52.7334 21.1099 55.5923 22.842C58.4512 24.5741 60.8162 27.0128 62.4598 29.9235C64.1033 32.8342 64.9701 36.119 64.9767 39.4616C64.9833 42.8043 64.1294 46.0924 62.4974 49.0096C60.8653 51.9268 58.5099 54.3748 55.6578 56.1181C52.8057 57.8614 49.553 58.8414 46.2125 58.9637C43.2096 59.0736 40.2267 58.4871 37.4956 57.2559C36.9862 57.0263 36.3772 57.219 36.1214 57.7158Z" stroke="#393939" stroke-width="4" mask="url(#path-1-inside-1_7193_1412)"/>
<circle cx="45.5" cy="39.5" r="17" stroke="#393939"/>
<path d="M45.5 24V26" stroke="#393939"/>
<path d="M45.5 55V53" stroke="#393939"/>
<path d="M30 39.5H32" stroke="#393939"/>
<path d="M61 39.5H59" stroke="#393939"/>
<path d="M40 35.5L44 38.5" stroke="#393939" stroke-width="2"/>
<path d="M53 32L47 38.5" stroke="#393939" stroke-width="2"/>
<circle cx="45.5" cy="39.5" r="1.5" stroke="#393939" stroke-width="2"/>
<path d="M19 24H32.5" stroke="#393939" stroke-width="2" stroke-linecap="round"/>
<path d="M18 30H28" stroke="#393939" stroke-width="2" stroke-linecap="round"/>
<path d="M14 36H25" stroke="#393939" stroke-width="2" stroke-linecap="round"/>
<path d="M14 43H25" stroke="#393939" stroke-width="2" stroke-linecap="round"/>
<path d="M19 55H32.5" stroke="#393939" stroke-width="2" stroke-linecap="round"/>
<path d="M18 49H28" stroke="#393939" stroke-width="2" stroke-linecap="round"/>
</svg>
