<svg width="43" height="10" viewBox="0 0 43 10" fill="none" xmlns="http://www.w3.org/2000/svg">
<path d="M4.03726 0.00099745C4.01529 0.00131626 3.99493 0.00161166 3.97635 0.00170645L0 0.00173801V9.99998H3.84243V4.10348H4.10009L6.24206 9.99998H9.133L11.275 4.10785H11.5326V9.99998H15.3751V0.00173801L11.6051 0.001734C11.5759 0.001734 11.544 0.00136109 11.5098 0.000961133C10.9729 -0.00532285 9.86565 -0.0182817 9.40625 1.30359C9.12073 2.12515 8.59616 3.66055 7.83253 5.9098H7.54253C6.83047 3.77633 6.31155 2.24093 5.9858 1.30359C5.52559 -0.0205982 4.46944 -0.00527333 4.03726 0.00099745Z" fill="#0F754E"/>
<path d="M20.8927 5.89826V0.00173801H16.97V10H20.6884C20.6884 10 21.8174 9.91268 22.3232 8.95215L24.8776 4.10348H25.1841V10H29.1068V0.00173801H25.3885C25.3885 0.00173801 24.3105 0.084693 23.8048 1.04959L21.1992 5.89826H20.8927Z" fill="#0F754E"/>
<path d="M38.4974 7.02168C40.3998 7.02168 42.1182 6.07493 42.6654 4.75298H30.6535V10H34.3837V7.02168H38.4974Z" fill="#0F754E"/>
<path d="M30.4578 0.00173554H38.6773C41.8399 0.00173554 43.3686 2.28322 42.9245 4.13325H35.2295C32.9019 4.13325 30.6535 2.22769 30.4578 0.00173554Z" fill="#0F754E"/>
</svg>
