<svg width="16" height="16" viewBox="0 0 16 16" fill="none" xmlns="http://www.w3.org/2000/svg">
<circle cx="8" cy="8" r="8" fill="white"/>
<circle cx="8" cy="8" r="4" fill="#83C150"/>
<mask id="path-3-inside-1_67_10305" fill="white">
<path d="M8 15.493C8 15.773 8.22724 16.0017 8.50671 15.9839C9.42651 15.9256 10.3306 15.7086 11.1787 15.3414C12.1822 14.9069 13.0859 14.2713 13.8341 13.4739C14.5822 12.6765 15.159 11.7342 15.5288 10.7052C15.8985 9.67611 16.0534 8.5822 15.9838 7.49096C15.9142 6.39972 15.6217 5.33433 15.1242 4.36058C14.6268 3.38683 13.935 2.52539 13.0916 1.82947C12.2482 1.13354 11.2711 0.617891 10.2206 0.314374C9.33275 0.0578401 8.4084 -0.0425537 7.48863 0.0163597C7.20917 0.0342599 7.01282 0.289954 7.04838 0.56772V0.56772C7.08395 0.845487 7.338 1.03989 7.61762 1.02456C8.39959 0.981698 9.18445 1.07056 9.93913 1.28862C10.8565 1.55366 11.7097 2.00394 12.4462 2.61165C13.1827 3.21936 13.7868 3.97161 14.2212 4.82192C14.6555 5.67224 14.911 6.60258 14.9718 7.55549C15.0325 8.5084 14.8973 9.46365 14.5744 10.3622C14.2515 11.2608 13.7479 12.0837 13.0945 12.78C12.4412 13.4764 11.652 14.0314 10.7758 14.4108C10.0549 14.7229 9.28769 14.9107 8.50661 14.9675C8.22731 14.9878 8 15.2129 8 15.493V15.493Z"/>
</mask>
<path d="M8 15.493C8 15.773 8.22724 16.0017 8.50671 15.9839C9.42651 15.9256 10.3306 15.7086 11.1787 15.3414C12.1822 14.9069 13.0859 14.2713 13.8341 13.4739C14.5822 12.6765 15.159 11.7342 15.5288 10.7052C15.8985 9.67611 16.0534 8.5822 15.9838 7.49096C15.9142 6.39972 15.6217 5.33433 15.1242 4.36058C14.6268 3.38683 13.935 2.52539 13.0916 1.82947C12.2482 1.13354 11.2711 0.617891 10.2206 0.314374C9.33275 0.0578401 8.4084 -0.0425537 7.48863 0.0163597C7.20917 0.0342599 7.01282 0.289954 7.04838 0.56772V0.56772C7.08395 0.845487 7.338 1.03989 7.61762 1.02456C8.39959 0.981698 9.18445 1.07056 9.93913 1.28862C10.8565 1.55366 11.7097 2.00394 12.4462 2.61165C13.1827 3.21936 13.7868 3.97161 14.2212 4.82192C14.6555 5.67224 14.911 6.60258 14.9718 7.55549C15.0325 8.5084 14.8973 9.46365 14.5744 10.3622C14.2515 11.2608 13.7479 12.0837 13.0945 12.78C12.4412 13.4764 11.652 14.0314 10.7758 14.4108C10.0549 14.7229 9.28769 14.9107 8.50661 14.9675C8.22731 14.9878 8 15.2129 8 15.493V15.493Z" fill="white" stroke="#83C150" stroke-width="2" mask="url(#path-3-inside-1_67_10305)"/>
</svg>
