<svg width="80" height="80" viewBox="0 0 80 80" fill="none" xmlns="http://www.w3.org/2000/svg">
<path fill-rule="evenodd" clip-rule="evenodd" d="M56.4374 25.4897C49.5295 25.1509 43.7593 22.5536 38.9697 18C34.447 22.3135 28.7786 24.9267 22 25.5122V40.2547C22 50.9694 29.6021 60.1379 40.0303 62L40.4026 61.9258C50.0492 59.9129 57 51.3119 57 41.3105V25.5122L56.4374 25.4897ZM38.7305 21.0624L38.9686 20.8621L39.2077 21.0635C43.6636 24.7419 48.8064 26.9083 54.6261 27.5045L54.8788 27.5276V41.3105L54.875 41.6942C54.7028 50.3738 48.7005 57.8212 40.3444 59.7426L40.0176 59.8139L39.6611 59.74C30.6279 57.7686 24.1212 49.6734 24.1212 40.2547V27.4257L24.5248 27.3663C29.9078 26.5191 34.675 24.3923 38.7305 21.0624ZM38.0327 42.875L36.2039 41.3187C35.9713 41.1197 35.9314 40.7563 36.1167 40.5052C36.3019 40.2565 36.6401 40.2125 36.8728 40.4115L38.3482 41.667L42.1043 38.145C42.3261 37.9344 42.6665 37.9552 42.8647 38.1947C43.0617 38.4342 43.0413 38.7999 42.8183 39.0116L38.7252 42.8554C38.6229 42.9514 38.4958 43 38.3676 43C38.2502 43 38.1318 42.9583 38.0327 42.875ZM39.5 31C44.7467 31 49 35.2533 49 40.5C49 45.7467 44.7467 50 39.5 50C34.2533 50 30 45.7467 30 40.5C30 35.2533 34.2533 31 39.5 31ZM39.5 33C35.3579 33 32 36.3579 32 40.5C32 44.6421 35.3579 48 39.5 48C43.6421 48 47 44.6421 47 40.5C47 36.3579 43.6421 33 39.5 33Z" fill="#393939"/>
</svg>
