<svg width="42" height="11" viewBox="0 0 42 11" fill="none" xmlns="http://www.w3.org/2000/svg">
<g clip-path="url(#clip0_7232_2703)">
<path d="M12.2783 5.14546L12.4398 4.63361L11.9056 4.65018C11.8604 4.65018 11.5324 4.64097 11.2141 4.41244C11.2378 4.41476 11.2615 4.41797 11.2857 4.41797C11.6133 4.41797 11.9302 4.22263 12.0573 3.94341L12.2872 3.43892C11.9991 3.44261 11.7357 3.40668 11.7357 3.40668C11.7334 3.4062 11.5258 3.37996 11.2857 3.13713C11.1135 2.96299 10.9004 2.87082 10.6696 2.87082C10.5686 2.87082 10.4783 2.88878 10.4006 2.91321C10.4127 2.87221 10.4243 2.83074 10.4309 2.78788C10.5044 2.31564 10.1973 1.95534 10.1973 1.95583L9.79568 1.4633L9.54672 2.04197C9.54578 2.04382 9.48296 2.17929 9.37035 2.24561C9.33637 2.0756 9.25309 1.88441 9.07485 1.70149C8.73885 1.35686 8.32982 1.30571 8.11575 1.30571C8.01662 1.30571 7.94591 1.31632 7.92866 1.31907L7.4438 1.41355C7.4717 1.3062 7.53127 1.11958 7.64016 0.951415L7.90775 0.53861L7.23437 0.614632L7.01984 0.163559L6.60476 0.375506L6.22085 0L5.83784 0.375506L5.42136 0.163559L5.20729 0.614632L4.53441 0.53861L4.80242 0.951415C4.91133 1.11958 4.9709 1.30571 4.99837 1.41306L4.53577 1.32277L4.51997 1.32001C4.49669 1.31632 4.42645 1.30571 4.32685 1.30571C4.11278 1.30571 3.70375 1.35731 3.36867 1.70149C3.18998 1.88395 3.10669 2.0756 3.07226 2.24561C2.96059 2.1802 2.89821 2.04657 2.89821 2.04657L2.64878 1.46466L2.24069 1.96043C2.19087 2.02445 1.94472 2.36312 2.01172 2.78882C2.01871 2.83122 2.02987 2.87267 2.04198 2.91369C1.96473 2.88926 1.87444 2.8713 1.77348 2.8713C1.54265 2.8713 1.32953 2.96345 1.15688 3.13761C0.917666 3.3795 0.711051 3.40668 0.712935 3.40668C0.712935 3.40668 0.494673 3.44536 0.156832 3.43936L0.385314 3.94389C0.512372 4.22356 0.829716 4.41845 1.15688 4.41845C1.18155 4.41845 1.20527 4.41519 1.22948 4.4129C0.912102 4.64143 0.584023 4.65064 0.544457 4.6511L0 4.63361L0.164739 5.145C0.247579 5.40856 0.524446 5.84533 1.05498 5.89231C0.997254 6.1319 0.869283 6.40005 0.588219 6.51569L0.182894 6.68108L0.403925 7.06211C0.528643 7.26761 0.821353 7.5081 1.23829 7.5081C1.32859 7.50764 1.41559 7.49888 1.49938 7.4814C1.52079 7.57538 1.54776 7.66938 1.57942 7.76242C1.70365 8.12824 1.59663 8.38349 1.59523 8.38626L1.39513 8.80138L1.84187 8.91795C1.84747 8.91979 1.9824 8.95618 2.15134 8.95618C2.22813 8.95618 2.30117 8.94836 2.37006 8.93225C2.42215 8.92024 2.47197 8.90413 2.51989 8.88477C2.57759 8.9875 2.64786 9.08105 2.72977 9.16488C3.01597 9.45562 3.4213 9.60305 3.93503 9.60305H3.93689L4.3036 9.59844L3.54599 9.9099L4.12118 10.185C4.33012 10.2859 4.57814 10.4052 4.83037 10.4964L4.7587 10.6909L4.95694 10.7802C4.97461 10.788 5.35574 10.9571 5.98958 10.9931C5.98958 10.9931 6.14267 11 6.22688 11C6.31111 11 6.46234 10.9926 6.46234 10.9926C7.092 10.9558 7.4703 10.7885 7.48801 10.7802L7.68669 10.6904L7.6141 10.4955C7.87378 10.4015 8.13063 10.2776 8.33074 10.1808L8.89521 9.90944L8.13993 9.59755L8.50804 9.60215C9.02227 9.60215 9.42806 9.45471 9.71375 9.16353C9.7952 9.08013 9.86549 8.98661 9.92366 8.88385C9.9716 8.90322 10.0218 8.91933 10.074 8.93131C10.1424 8.94742 10.2154 8.95528 10.2922 8.95528C10.4583 8.95528 10.5947 8.91889 10.5984 8.91795L11.047 8.80048L10.8515 8.39318C10.8469 8.38257 10.7399 8.12779 10.8641 7.76151C10.8958 7.66799 10.9223 7.574 10.9437 7.48046C11.0279 7.49797 11.1159 7.50718 11.2066 7.50718C11.7376 7.50718 11.9921 7.13721 12.0415 7.05705L12.2602 6.68019L11.8549 6.51523C11.5733 6.39957 11.4458 6.13096 11.3886 5.89188C11.9116 5.84762 12.1927 5.41085 12.2783 5.14546ZM5.0337 1.58953L5.02815 1.59092L5.0328 1.58493L5.0337 1.58953Z" fill="white"/>
<path d="M6.22128 1.56689C5.79221 1.56735 5.47068 1.70649 5.40039 1.87005L6.22128 2.19074L7.04216 1.87005C6.97235 1.70649 6.6508 1.56735 6.22128 1.56689Z" fill="white"/>
<path d="M6.22984 10.056H6.2289H6.22191H6.21399H6.21353C5.95339 10.0578 5.59554 10.0048 5.42289 9.95508L5.21533 10.5112C5.35217 10.5596 5.81566 10.6517 6.22191 10.6517C6.62723 10.6517 7.09119 10.5591 7.22754 10.5112L7.02044 9.95508C6.84735 10.0053 6.48994 10.0578 6.22984 10.056Z" fill="white"/>
<path d="M7.80049 9.50305C7.64599 9.58968 7.30116 9.71959 7.10059 9.77995L7.26905 10.2393C7.57942 10.1554 7.83536 10.0573 8.04713 9.95226L7.69763 9.83706L7.80049 9.50305Z" fill="white"/>
<path d="M4.64264 9.50305L4.74593 9.83706L4.396 9.95226C4.60726 10.0573 4.8646 10.1554 5.17359 10.2393L5.34205 9.77995C5.1424 9.71959 4.79711 9.5892 4.64264 9.50305Z" fill="white"/>
<path d="M6.2213 1.03515C6.54472 1.03515 6.86209 1.11163 7.10592 1.24619C7.12828 1.17199 7.15944 1.08215 7.20179 0.988159L7.10967 0.999219L7.01286 1.00937L6.97189 0.922287L6.84858 0.664285L6.62382 0.780362L6.53634 0.8246L6.46654 0.756426L6.22222 0.516846L5.97838 0.756426L5.90858 0.8246L5.8211 0.780362L5.59493 0.664285L5.473 0.922287L5.43114 1.00937L5.33433 0.999219L5.24219 0.988159C5.28456 1.0826 5.31526 1.17199 5.33806 1.24619C5.58237 1.11163 5.8988 1.03515 6.2213 1.03515Z" fill="white"/>
<path d="M11.1592 4.0172C11.2011 4.03148 11.2439 4.03792 11.2863 4.03792C11.4691 4.03792 11.646 3.92091 11.7069 3.78682C11.7069 3.78682 11.3714 3.76656 11.0108 3.40395C10.8958 3.28646 10.7744 3.25146 10.6701 3.25146C10.5082 3.25146 10.3867 3.33623 10.3867 3.33623C10.8223 3.56568 10.9112 3.93427 11.1592 4.0172Z" fill="white"/>
<path d="M1.15655 4.03792C1.19889 4.03792 1.24171 4.03148 1.28267 4.0172C1.53162 3.93427 1.62097 3.56568 2.05655 3.33623C2.05655 3.33623 1.9346 3.25146 1.7736 3.25146C1.6689 3.25146 1.54743 3.28646 1.43202 3.40395C1.07186 3.76656 0.736328 3.78682 0.736328 3.78682C0.796361 3.92091 0.97366 4.03792 1.15655 4.03792Z" fill="white"/>
<path d="M11.2775 5.51498C11.2849 5.51541 11.2915 5.51541 11.2994 5.51541C11.7559 5.51541 11.9109 5.03116 11.9109 5.03116H11.902C11.8182 5.03116 11.1393 5.01184 10.6595 4.40781C10.3435 4.01068 10.0848 3.66143 9.57334 3.52412L9.52311 3.51536L9.51193 3.46469C9.49797 3.38728 9.55149 3.31496 9.67296 3.23663C10.3784 2.77914 9.89957 2.19583 9.89957 2.19583C9.89957 2.19583 9.69808 2.66256 9.24716 2.66256C9.23644 2.66256 9.22481 2.66208 9.21365 2.66208C9.16247 2.65933 9.11314 2.65748 9.06332 2.64691L8.98003 2.63076C8.98003 2.63076 9.10849 2.28476 8.79855 1.96685C8.56493 1.72682 8.28061 1.68628 8.11634 1.68628C8.03349 1.68628 7.98091 1.69685 7.98091 1.69685C8.13681 1.89865 8.24942 2.23316 8.06935 2.43956C7.91393 2.61694 7.53418 2.62569 7.53418 2.89015C7.53418 3.00212 7.63982 3.13297 7.82967 3.25044C8.40068 3.60659 8.96747 4.07884 9.20293 4.71191C9.49751 5.5016 9.16572 6.02547 8.69199 6.32586C8.69199 6.32586 8.84043 6.4613 9.05591 6.47835C9.09963 6.4825 9.14246 6.48433 9.18248 6.48433C9.63712 6.48433 9.87213 6.27331 9.87213 6.27331C9.87213 6.27331 9.83348 6.56495 9.59662 6.83587C9.37838 7.08605 9.09172 7.23304 8.65475 7.23948C8.65475 7.23948 8.64079 7.44035 8.83439 7.61405C8.95815 7.72371 9.24436 7.75964 9.24436 7.75964C9.24436 7.75964 8.70873 7.86698 8.64964 8.65025C8.61751 9.07456 8.50816 9.222 8.50816 9.222H8.51796C9.76089 9.222 9.72878 8.16648 9.72878 8.16648C9.72878 8.16648 9.81534 8.47884 10.162 8.5604C10.2039 8.57147 10.2486 8.57561 10.2914 8.57561C10.4031 8.57561 10.4999 8.54981 10.4999 8.54981C10.4999 8.54981 10.3184 8.17063 10.4985 7.64032C10.6479 7.20032 10.6237 6.87412 10.6237 6.87412C10.6237 6.87412 10.7912 7.12476 11.2063 7.12707H11.2105C11.5562 7.12707 11.707 6.86768 11.707 6.86768C10.8782 6.52718 10.9601 5.4279 10.9601 5.4279C10.9601 5.4279 11.0676 5.50712 11.2775 5.51498ZM11.028 6.66308C10.6911 6.49863 10.478 6.06186 10.4264 5.90426C10.3705 6.77044 9.94331 7.37171 9.44398 7.95038C9.18478 8.25031 9.09453 8.54195 9.09453 8.54195C9.09453 8.54195 9.1443 8.21163 9.36859 7.94256C9.83443 7.38828 10.277 6.69858 10.31 5.90106C10.3328 5.34448 10.1881 4.89297 9.96241 4.52117C10.0885 4.90865 10.0708 5.38318 9.64223 5.82593C9.64223 5.82593 10.4952 4.81371 9.30253 3.77615C8.82507 3.38132 8.30294 3.13758 8.03399 2.96481C9.00563 3.27856 9.47984 2.933 9.47984 2.933C9.16942 3.19929 8.76784 3.19469 8.51886 3.15646C8.58634 3.18919 8.65663 3.22327 8.73247 3.26335C9.55149 3.70383 10.2877 4.42854 10.4133 5.4325V5.42464C10.6041 6.41015 11.028 6.66308 11.028 6.66308Z" fill="white"/>
<path d="M3.19821 7.75964C3.19821 7.75964 3.48441 7.72417 3.6082 7.61405C3.8013 7.44035 3.78784 7.23948 3.78784 7.23948C3.35041 7.23348 3.0642 7.08605 2.84457 6.83635C2.60954 6.56543 2.57046 6.27377 2.57046 6.27377C2.57046 6.27377 2.80544 6.48481 3.25965 6.48481C3.30061 6.48481 3.34296 6.48296 3.38668 6.47881C3.60215 6.46176 3.75106 6.3263 3.75106 6.3263C3.27731 6.02591 2.94508 5.5016 3.23917 4.71191C3.47512 4.07929 4.04143 3.60659 4.61245 3.25044C4.80231 3.13297 4.90793 3.00256 4.90793 2.89015C4.90793 2.62569 4.52866 2.61694 4.37322 2.43956C4.19317 2.23316 4.30624 1.8982 4.46166 1.69685C4.46166 1.69685 4.41 1.68628 4.32669 1.68628C4.1629 1.68628 3.87856 1.72682 3.64496 1.96685C3.3341 2.28476 3.46302 2.63076 3.46302 2.63076L3.37971 2.64691C3.32994 2.65748 3.28012 2.65933 3.2294 2.66208C3.21778 2.66208 3.20752 2.66256 3.19637 2.66256C2.74451 2.66256 2.54394 2.19629 2.54394 2.19629C2.54394 2.19629 2.06509 2.7796 2.77009 3.23708C2.89156 3.31541 2.94462 3.38774 2.93066 3.46515L2.91946 3.51584L2.86828 3.5246C2.3578 3.66189 2.0986 4.01112 1.78263 4.40826C1.30377 5.01138 0.625741 5.03116 0.541077 5.03116H0.531738C0.531738 5.03116 0.686717 5.51541 1.14322 5.51541C1.15067 5.51541 1.15718 5.51541 1.16509 5.51498C1.37496 5.50758 1.48292 5.4279 1.48292 5.4279C1.48292 5.4279 1.56391 6.5267 0.736043 6.86768C0.736043 6.86768 0.886825 7.12707 1.23257 7.12707H1.23677C1.65231 7.12476 1.81939 6.87412 1.81939 6.87412C1.81939 6.87412 1.79518 7.20032 1.94411 7.64032C2.12418 8.17063 1.94362 8.54981 1.94362 8.54981C1.94362 8.54981 2.04042 8.57561 2.15164 8.57561C2.19491 8.57561 2.23913 8.57147 2.28055 8.5604C2.62675 8.47884 2.71378 8.16648 2.71378 8.16648C2.71378 8.16648 2.68213 9.222 3.92511 9.222H3.93392C3.93392 9.222 3.82506 9.07456 3.79341 8.65025C3.73386 7.86698 3.19821 7.75964 3.19821 7.75964ZM2.99861 7.95038C2.49927 7.37171 2.07254 6.77044 2.01622 5.90426C1.96458 6.0614 1.75237 6.49863 1.41547 6.66308C1.41547 6.66308 1.83892 6.41015 2.02926 5.42464V5.4325C2.15538 4.42903 2.8911 3.70383 3.71056 3.26335C3.7855 3.22281 3.85668 3.18873 3.92371 3.15646C3.67475 3.19469 3.27315 3.19929 2.96275 2.933C2.96275 2.933 3.43694 3.27856 4.40814 2.96481C4.13918 3.13758 3.6175 3.38132 3.14004 3.77615C1.94688 4.81371 2.80034 5.82593 2.80034 5.82593C2.3713 5.3827 2.35409 4.90865 2.48018 4.52117C2.25403 4.89343 2.10976 5.34448 2.13303 5.90106C2.1656 6.69858 2.60814 7.38828 3.07304 7.94256C3.29783 8.21117 3.34854 8.54195 3.34854 8.54195C3.34854 8.54195 3.2573 8.25031 2.99861 7.95038Z" fill="white"/>
<path d="M5.30239 3.90052C5.32284 3.92215 5.34285 3.94569 5.36196 3.96916C5.36661 3.9747 5.37077 3.97977 5.37542 3.98623C5.39313 4.0097 5.41128 4.03461 5.4285 4.05993C5.43221 4.06499 5.43596 4.071 5.44012 4.07696C5.46107 4.10831 5.48063 4.14057 5.50015 4.17376C5.67931 4.48011 5.96645 4.66303 6.22098 4.66349C6.476 4.66303 6.7622 4.48011 6.9423 4.17376C6.96231 4.13963 6.98232 4.10647 7.00323 4.0756C7.00649 4.071 7.00978 4.06685 7.01254 4.06224C7.03023 4.03598 7.04886 4.01018 7.06841 3.98529C7.07258 3.97977 7.0763 3.97516 7.08003 3.97055C7.10004 3.94613 7.12051 3.92218 7.14147 3.90004C7.14517 3.89637 7.14795 3.89314 7.15122 3.89039C7.24242 3.79779 7.35133 3.72727 7.4937 3.68813L7.43043 3.65174H7.42673L7.17447 3.50661L6.9153 3.35962L6.22285 3.73282L6.22098 3.73142L6.21958 3.73282L5.52667 3.35962L5.26796 3.50613L5.01527 3.65126H5.01246L4.94824 3.68767C5.0911 3.72681 5.19953 3.79639 5.29121 3.88899C5.29537 3.89268 5.29818 3.89683 5.30239 3.90052ZM5.94083 3.87057H6.234H6.52672V4.0696C6.45787 3.98623 6.32385 4.00328 6.32385 4.00328V4.29031C6.32385 4.29031 6.32895 4.43129 6.37873 4.49255H6.234H6.08882C6.13954 4.43175 6.14421 4.29031 6.14421 4.29031V4.00328C6.14421 4.00328 6.01064 3.98623 5.94083 4.0696V3.87057Z" fill="white"/>
<path d="M6.16132 3.48439V2.31922L5.41211 2.06763L5.60987 3.1969L6.16132 3.48439ZM6.00032 2.60533V2.79238L5.96402 2.77579C5.96216 2.77441 5.90912 2.76243 5.81603 2.68962C5.66248 2.57169 5.65969 2.46295 5.65969 2.46295L6.00032 2.60533Z" fill="white"/>
<path d="M6.83316 3.1969L7.03 2.06763L6.28125 2.31922V3.48439L6.83316 3.1969ZM6.44228 2.60533L6.78288 2.46341C6.78288 2.46341 6.78012 2.57215 6.62608 2.69008C6.53348 2.76288 6.47996 2.77485 6.47809 2.77624L6.44177 2.79281V2.60533H6.44228Z" fill="white"/>
<path d="M5.10194 6.18592C5.17502 6.21216 5.26343 6.21771 5.30856 6.21771C5.31045 6.21216 5.31275 6.20524 5.31509 6.19697C5.31926 6.18361 5.323 6.17071 5.32581 6.15595C5.33837 6.09148 5.34302 6.01822 5.34394 5.97122C5.31321 5.95231 5.26994 5.91867 5.24577 5.86846C5.21784 5.81041 5.17828 5.78369 5.12009 5.78369C5.04471 5.78369 4.96375 5.82838 4.92929 5.8496C4.90188 6.01036 5.02144 6.15643 5.10194 6.18592Z" fill="white"/>
<path d="M6.75886 5.56738C6.61973 5.71712 6.34749 5.97791 6.33399 5.99127L6.3177 6.00786L5.45728 5.99448C5.4568 6.07881 5.44283 6.15068 5.42936 6.20321C5.42703 6.21196 5.42471 6.22117 5.42236 6.23038L6.44614 6.41239C6.55271 6.33867 6.84588 6.12671 6.95943 6.0438C6.87658 5.92401 6.86867 5.78209 6.88728 5.68213C6.83332 5.64757 6.79189 5.60886 6.75886 5.56738Z" fill="white"/>
<path d="M6.87554 4.5429C6.67727 4.73779 6.48696 4.80965 6.31712 4.82624C6.28639 4.82947 6.25523 4.83129 6.22358 4.83129H6.22123H6.21937C6.18774 4.83129 6.15609 4.82947 6.12536 4.82624C6.0956 4.82347 6.06443 4.81886 6.03327 4.81197C6.02206 4.85571 6.0081 4.9474 6.04812 5.03403C6.08396 5.11282 6.15703 5.17132 6.2636 5.21005L6.29941 5.22385L6.29989 5.2621C6.29989 5.2736 6.30827 5.52149 6.58143 5.59012C6.6261 5.54452 6.66658 5.50352 6.69639 5.4694C6.64052 5.33949 6.66982 5.2068 6.75081 5.14183C6.7471 5.15565 6.71173 5.48095 6.97514 5.60163L7.0184 5.62193L7.00536 5.66754C7.00115 5.68136 6.91322 5.99605 7.23199 6.11306L7.2883 6.13426L7.26316 6.18864C7.25759 6.2006 7.13242 6.48628 7.42699 6.64844H8.06589V6.14624C7.83883 6.11858 7.74248 5.938 7.71782 5.8099C7.6122 5.79193 7.53029 5.74678 7.47442 5.67306C7.34039 5.49844 7.45581 5.33857 7.45722 5.32981C7.45676 5.33121 7.45722 5.50167 7.56332 5.60672C7.6159 5.65739 7.67828 5.69657 7.77272 5.70533L7.81925 5.70947L7.82346 5.75648C7.82436 5.76658 7.84998 5.99696 8.06636 6.03336L8.06589 5.00777C8.06589 4.84882 8.11291 4.68895 8.16922 4.5415H6.87554V4.5429Z" fill="white"/>
<path d="M5.15637 5.01271L5.13916 5.66604L5.21405 5.67711L5.39742 5.0505L5.30435 4.85791L5.15637 5.01271Z" fill="white"/>
<path d="M7.17766 8.00889C7.18325 8.00889 7.18976 8.00983 7.19581 8.0112C7.30982 8.04347 7.33869 8.45075 7.53878 8.48714C7.55833 8.49128 7.57647 8.4922 7.5923 8.4922C7.65001 8.4922 7.68444 8.46777 7.72166 8.42448C7.72166 8.42448 7.62114 8.26782 7.54577 8.16234C7.44571 8.02411 7.36802 7.85684 7.18187 7.85684C7.17766 7.85684 7.17209 7.85684 7.16745 7.85734C7.10601 7.86055 7.06831 7.89002 7.06831 7.89002C6.99291 7.84304 6.92267 7.82691 6.85889 7.82691C6.74211 7.82691 6.65137 7.87991 6.6062 7.87991H6.60436L6.18831 7.83937C6.12317 7.83337 6.072 7.7684 6.05339 7.74308C6.04872 7.73614 6.0464 7.73201 6.0464 7.73201C6.0464 7.72094 6.0464 7.70944 6.04548 7.69928C6.03151 7.3625 5.76813 7.21829 5.67458 7.21597C5.67458 7.21597 5.68574 7.15194 5.66016 7.12754L5.56848 7.23763L5.26739 7.08789L5.48193 7.33624L5.29996 7.53848C5.27715 7.56156 5.27995 7.59288 5.28927 7.60576L5.36791 7.67442L5.4675 7.61452C5.47261 7.61085 5.48147 7.60991 5.49262 7.60991C5.52008 7.60991 5.56151 7.61681 5.59873 7.61681C5.63921 7.61681 5.67458 7.60805 5.67877 7.57026C5.66621 7.69514 5.54941 7.91213 5.62619 8.08261L5.68298 8.21117L5.31533 8.15863L5.14314 8.4466C5.0901 8.54243 5.08173 8.64609 5.13291 8.7023L5.1971 8.78203C5.1971 8.78203 5.28741 8.68708 5.30788 8.62489L5.27855 8.5931C5.25389 8.56638 5.2553 8.54243 5.2702 8.51342L5.37814 8.336L5.81231 8.43738L5.83511 8.39868C5.86443 8.3503 5.9068 8.33554 5.95333 8.33554C5.9724 8.33554 5.99195 8.33786 6.01242 8.34109C6.09295 8.35676 6.22557 8.37794 6.3582 8.37794C6.50384 8.37794 6.6481 8.35216 6.72486 8.26693C6.88216 8.49775 7.20094 8.5346 7.1758 8.65161L7.09205 9.04695C7.14744 9.04463 7.20094 9.04094 7.25165 9.03402L7.33124 8.62257C7.34009 8.57789 7.34844 8.51752 7.34844 8.51752C7.31773 8.48668 7.24328 8.42125 7.20142 8.34201C7.14509 8.2351 7.1758 8.17937 7.12321 8.04022C7.12508 8.04116 7.1409 8.00889 7.17766 8.00889ZM5.5536 7.43114C5.53218 7.43068 5.51682 7.41271 5.51774 7.39154C5.51962 7.37126 5.53683 7.35512 5.55776 7.35696C5.57917 7.3579 5.59454 7.37632 5.59362 7.3966C5.59173 7.41686 5.57407 7.43254 5.5536 7.43114Z" fill="white"/>
<path d="M4.96095 8.38306C4.96095 8.38306 5.10473 8.32455 5.11775 8.28262L5.09868 8.23516C5.08518 8.20429 5.08704 8.17065 5.1131 8.15224L5.26852 8.0458L5.5282 8.09509C5.5282 8.09509 5.48119 8.03704 5.48586 7.95917L5.2383 7.9071L5.00467 8.04809C4.90462 8.12227 4.89717 8.24343 4.93022 8.3153L4.96095 8.38306Z" fill="white"/>
<path d="M6.7959 9.05296C6.84243 9.05112 6.89361 9.05021 6.94994 9.05021C6.94994 9.05021 7.0835 8.66365 7.09091 8.65123C7.01602 8.6185 6.86058 8.53692 6.80054 8.49963C6.84011 8.55814 6.93643 8.6254 6.91737 8.67701L6.7959 9.05296Z" fill="white"/>
<path d="M8.06714 6.76038H4.37549V8.13519C4.37549 8.69729 4.78643 9.04932 5.39276 9.04932C5.89954 9.04932 6.03306 9.06863 6.22156 9.25387C6.3514 9.12579 6.4589 9.07785 6.67946 9.05988L6.68457 9.0387L6.80091 8.68256C6.7944 8.67472 6.60409 8.46049 6.60409 8.46049C6.52869 8.48538 6.46541 8.48953 6.35885 8.48953C6.24948 8.48953 6.12617 8.47706 5.9926 8.4522C5.9791 8.44899 5.96654 8.44805 5.95396 8.44805C5.93768 8.44805 5.9363 8.44943 5.93211 8.45726L5.90883 8.49503L5.86649 8.56415L5.78693 8.54618L5.43278 8.4637L5.38436 8.54297L5.39181 8.55124L5.4351 8.59825L5.41603 8.65953C5.38995 8.73969 5.30526 8.83321 5.27968 8.85904L5.19124 8.95302L5.11076 8.85212L5.05027 8.77702C4.98649 8.70653 4.97163 8.59825 5.00744 8.48492C5.0065 8.48582 5.0051 8.48628 5.00374 8.48628L4.90369 8.5273L4.85851 8.43052L4.82688 8.36191C4.77246 8.24118 4.79243 8.06472 4.93906 7.95828L5.22432 7.79887L5.49562 7.85187C5.50213 7.82605 5.51188 7.7339 5.51979 7.71043C5.51469 7.70997 5.50958 7.70858 5.50443 7.70858L5.34809 7.76617L5.19729 7.66297C5.19729 7.66297 5.1382 7.60673 5.1917 7.55054L5.33783 7.33171L4.96788 6.87187L5.53654 7.10319L5.57426 7.05664L5.65101 6.96587L5.73805 7.04789C5.76271 7.07138 5.77667 7.10039 5.78364 7.12943C5.94046 7.18979 6.22107 7.3681 6.24573 7.65788L6.1578 7.6929V7.69522C6.17781 7.71871 6.19455 7.7284 6.19966 7.72929L6.60547 7.76894C6.6157 7.76708 6.62874 7.76248 6.64317 7.75833C6.69342 7.7413 6.76928 7.71687 6.85908 7.71687C6.93215 7.71687 7.00286 7.73344 7.0708 7.76479C7.09594 7.75558 7.12667 7.74866 7.16205 7.74637L7.18155 7.74591C7.39889 7.74591 7.50683 7.90667 7.59343 8.0348C7.60783 8.05686 7.62225 8.07808 7.63716 8.0988C7.71299 8.20479 7.8121 8.36005 7.81631 8.36651L7.86098 8.43563L7.80606 8.49874C7.76373 8.5471 7.70043 8.60379 7.59155 8.60379C7.56921 8.60379 7.54456 8.60148 7.51804 8.59639C7.49478 8.59227 7.47383 8.58532 7.45336 8.57705C7.45009 8.59825 7.4459 8.62359 7.4417 8.64523L7.37051 9.0129C7.7963 8.90925 8.06668 8.59087 8.06668 8.13567L8.06714 6.76038Z" fill="#FFDD2D"/>
<path d="M4.37579 6.64984H7.24656C7.10322 6.50334 7.1051 6.31767 7.14186 6.19694C7.09997 6.17712 7.06554 6.15315 7.03483 6.12737C6.92268 6.20936 6.58017 6.45634 6.49083 6.51805L6.47177 6.53098L5.34513 6.32917H5.32233C5.29535 6.32917 5.25579 6.32823 5.2125 6.32317C5.2004 6.3734 5.15668 6.40796 5.1064 6.40796C5.10081 6.40796 5.0943 6.4075 5.08825 6.4061C5.05892 6.40104 5.03337 6.38628 5.01614 6.36187C4.99845 6.33793 4.99149 6.30935 4.99659 6.27988L5.00078 6.25591C4.88444 6.17483 4.77741 5.99374 4.82487 5.803L4.82951 5.78275L4.84582 5.77122C4.84814 5.76939 4.86767 5.75648 4.89654 5.73989L4.81463 5.72745C4.78392 5.72193 4.76345 5.69381 4.76812 5.66388C4.77323 5.63347 4.80207 5.61179 4.83232 5.61779L5.0273 5.6482L5.04499 4.96815L5.33537 4.66407L5.51639 5.04144L5.32512 5.69566L5.49733 5.72238C5.52755 5.72699 5.5485 5.75509 5.54386 5.78595C5.53919 5.81313 5.51593 5.83204 5.48847 5.83204C5.48566 5.83204 5.48242 5.83204 5.47961 5.83158L5.33954 5.80901C5.34142 5.81313 5.34418 5.81543 5.34607 5.82003C5.36095 5.85047 5.394 5.87258 5.41353 5.88179L6.2726 5.89515C6.30887 5.86014 6.39918 5.77259 6.49178 5.67999C6.28051 5.60074 6.20371 5.42014 6.19067 5.30033C6.07249 5.25058 5.99104 5.17596 5.94592 5.07872C5.89099 4.9585 5.91054 4.83824 5.92496 4.77973C5.81049 4.73825 5.68998 4.66272 5.56711 4.54199H4.27344C4.32882 4.68939 4.37579 4.8493 4.37579 5.00825V6.64984Z" fill="#FFDD2D"/>
<path d="M5.55817 7.35696C5.53722 7.3551 5.51956 7.37121 5.51815 7.39149C5.51675 7.41267 5.53257 7.43063 5.55399 7.43109C5.57444 7.43295 5.59261 7.41727 5.59445 7.39656C5.59445 7.37628 5.57959 7.35742 5.55817 7.35696Z" fill="black"/>
<path d="M8.06233 9.84995L7.84966 9.76931L7.90829 9.55185L7.97297 9.31458C7.97297 9.31458 7.59602 9.51686 7.06507 9.66891C6.91429 9.71174 6.80028 9.73109 6.80028 9.73109V9.89233C6.80028 9.89233 6.51642 9.94119 6.2293 9.94119H6.22601H6.22185H6.21626H6.21299C5.92589 9.94119 5.64201 9.89233 5.64201 9.89233V9.73109C5.64201 9.73109 5.52751 9.71174 5.37722 9.66891C4.84624 9.51686 4.46978 9.31458 4.46978 9.31458L4.53352 9.55185L4.59355 9.76931L4.38043 9.84995L4.14404 9.93747C4.41534 10.067 4.79086 10.2559 5.13479 10.3489L5.05381 10.5682C5.05381 10.5682 5.48984 10.765 6.21626 10.7668V10.7673H6.2186H6.22185H6.22465H6.22649V10.7668C6.95386 10.765 7.38941 10.5682 7.38941 10.5682L7.30796 10.3489C7.65185 10.2559 8.02835 10.067 8.29825 9.93747L8.06233 9.84995ZM4.39625 9.95223L4.74619 9.83707L4.64289 9.50302C4.79691 9.58964 5.1427 9.71956 5.34277 9.77992L5.17387 10.2393C4.86485 10.155 4.60751 10.0568 4.39625 9.95223ZM6.22185 10.6516C5.81558 10.6516 5.35162 10.559 5.2153 10.5111L5.42281 9.955C5.595 10.0048 5.95333 10.0577 6.21345 10.0559H6.21393H6.22185H6.22882H6.22976C6.4899 10.0577 6.84727 10.0048 7.0204 9.955L7.22745 10.5111C7.09113 10.5595 6.62763 10.6516 6.22185 10.6516ZM7.26888 10.2393L7.10044 9.77992C7.30099 9.71956 7.6458 9.58964 7.80032 9.50302L7.69748 9.83707L8.04696 9.95223C7.83521 10.0568 7.57926 10.155 7.26888 10.2393Z" fill="black"/>
<path d="M6.22114 1.16982C6.65393 1.16982 7.00012 1.31174 7.19139 1.46333C7.19139 1.46333 7.24816 1.12467 7.44222 0.825673L7.09366 0.864819L6.91126 0.481041L6.56084 0.659811L6.22114 0.327148L5.88236 0.659811L5.5315 0.481041L5.34953 0.864819L5.00098 0.825673C5.19501 1.12467 5.2518 1.46333 5.2518 1.46333C5.44352 1.31174 5.78881 1.16982 6.22114 1.16982ZM5.33369 0.999352L5.4305 1.0095L5.47238 0.92242L5.59429 0.664415L5.82046 0.780039L5.90796 0.824277L5.97776 0.756103L6.2216 0.516523L6.46592 0.756103L6.53572 0.824277L6.6232 0.780039L6.84799 0.664415L6.9713 0.92242L7.01224 1.0095L7.10903 0.999352L7.20117 0.988292C7.15882 1.08277 7.12763 1.17212 7.10528 1.24632C6.86144 1.11179 6.54407 1.03529 6.22068 1.03529C5.89866 1.03529 5.58173 1.11179 5.33695 1.24632C5.31418 1.17212 5.28345 1.08228 5.24108 0.988292L5.33369 0.999352Z" fill="black"/>
<path d="M11.2988 5.66331C11.8587 5.66331 12.0457 5.0994 12.0536 5.07542L12.116 4.87683L11.9061 4.88329H11.9052C11.8312 4.88329 11.2137 4.86716 10.7758 4.31613L10.7344 4.265C10.4482 3.9047 10.1769 3.56237 9.69198 3.40617C9.70594 3.39375 9.72595 3.37808 9.75342 3.36057C10.0108 3.19287 10.1606 2.98921 10.1983 2.75287C10.2532 2.39718 10.0243 2.11382 10.014 2.1023L9.85812 1.91157L9.76087 2.13779C9.75436 2.15206 9.59052 2.51421 9.24618 2.51421H9.22057C9.19686 2.51281 9.1745 2.5119 9.15217 2.51004C9.16429 2.34834 9.13448 2.09815 8.90555 1.86363C8.6305 1.58121 8.29266 1.53882 8.11586 1.53882C8.02137 1.53882 7.95855 1.55033 7.95202 1.55127L7.71658 1.59733L7.86176 1.7867C7.97578 1.93275 8.07908 2.20229 7.95666 2.34328C7.91759 2.38796 7.83711 2.42436 7.75984 2.46075C7.60116 2.53307 7.38477 2.63352 7.38477 2.8897C7.38477 3.05557 7.51461 3.2288 7.75007 3.37622C8.44719 3.81024 8.87715 4.26314 9.06283 4.76302C9.34996 5.53202 8.97534 5.97062 8.61144 6.20146L8.44808 6.30557L8.59097 6.43548C8.61003 6.4521 8.78503 6.60458 9.04328 6.62672C9.09214 6.62993 9.13913 6.63268 9.1829 6.63268C9.34855 6.63268 9.48957 6.6069 9.60403 6.57232C9.57238 6.62716 9.53376 6.68291 9.4849 6.73913C9.2769 6.97776 9.02095 7.08652 8.65286 7.09204L8.51603 7.09436L8.50533 7.23026C8.50393 7.25743 8.49372 7.50947 8.73475 7.72372C8.77152 7.75686 8.81619 7.78408 8.86272 7.80665C8.69939 7.95224 8.53323 8.20563 8.50117 8.64011C8.47417 9.0027 8.38667 9.13678 8.38575 9.13814L8.23452 9.36666L8.50768 9.37037C8.95908 9.37037 9.3048 9.2469 9.54445 9.0027C9.68593 8.85803 9.76692 8.69493 9.81485 8.55028C9.8935 8.6166 9.99495 8.67465 10.1271 8.70552C10.1774 8.71704 10.2323 8.72348 10.2914 8.72348C10.4189 8.72348 10.5254 8.69676 10.5375 8.69401L10.712 8.64793L10.6348 8.48666C10.6292 8.47378 10.4836 8.15034 10.6404 7.68868C10.7078 7.48919 10.7423 7.31042 10.759 7.17129C10.8689 7.22794 11.0159 7.27494 11.2062 7.2754C11.6381 7.2754 11.8284 6.95613 11.8373 6.94277L11.9224 6.79624L11.7647 6.73175C11.25 6.52027 11.136 5.95217 11.1132 5.64442C11.1597 5.65318 11.2128 5.66147 11.2728 5.66331H11.2988ZM11.7069 6.86764C11.7069 6.86764 11.5562 7.12706 11.2104 7.12706H11.2062C10.7911 7.12475 10.6236 6.87411 10.6236 6.87411C10.6236 6.87411 10.6478 7.20033 10.498 7.6403C10.3179 8.17062 10.4994 8.54982 10.4994 8.54982C10.4994 8.54982 10.4026 8.5756 10.2909 8.5756C10.2481 8.5756 10.2034 8.57145 10.1615 8.56038C9.81485 8.47885 9.7283 8.16647 9.7283 8.16647C9.7283 8.16647 9.76039 9.22201 8.51743 9.22201H8.50768C8.50768 9.22201 8.61703 9.07457 8.6496 8.65022C8.70869 7.86699 9.24433 7.75965 9.24433 7.75965C9.24433 7.75965 8.95857 7.72418 8.8348 7.61406C8.6412 7.44035 8.6547 7.23947 8.6547 7.23947C9.09214 7.23349 9.37834 7.08606 9.59657 6.83588C9.833 6.56496 9.87208 6.27332 9.87208 6.27332C9.87208 6.27332 9.63706 6.48434 9.18244 6.48434C9.14242 6.48434 9.09959 6.48248 9.05584 6.47834C8.84085 6.46131 8.69194 6.32583 8.69194 6.32583C9.16519 6.02543 9.49746 5.50112 9.20291 4.71142C8.96696 4.07885 8.40017 3.60614 7.82965 3.25C7.63978 3.1325 7.53413 3.00213 7.53413 2.8897C7.53413 2.62524 7.91388 2.61695 8.06978 2.43909C8.24938 2.23269 8.13676 1.89775 7.98088 1.69641C7.98088 1.69641 8.03347 1.6858 8.11629 1.6858C8.28057 1.6858 8.56491 1.7268 8.7985 1.96638C9.1089 2.28429 8.97998 2.63031 8.97998 2.63031L9.06329 2.64644C9.11309 2.65703 9.16243 2.65888 9.21361 2.66118C9.22476 2.66118 9.23594 2.66163 9.2471 2.66163C9.69803 2.66163 9.89954 2.1949 9.89954 2.1949C9.89954 2.1949 10.3789 2.77867 9.67337 3.2357C9.55191 3.31403 9.49838 3.38635 9.51237 3.46376L9.52355 3.51446L9.57378 3.52321C10.0852 3.6605 10.3439 4.00975 10.6599 4.40688C11.1397 5.01091 11.8187 5.03028 11.9024 5.03028H11.9113C11.9113 5.03028 11.7563 5.51448 11.2998 5.51448C11.2923 5.51448 11.2858 5.51448 11.2779 5.51405C11.068 5.50665 10.9605 5.42697 10.9605 5.42697C10.9605 5.42697 10.8782 6.52671 11.7069 6.86764Z" fill="black"/>
<path d="M10.3156 3.46704C10.5245 3.57713 10.646 3.72457 10.7526 3.8554C10.8573 3.98303 10.9568 4.10604 11.1122 4.15719C11.1676 4.1761 11.2263 4.18485 11.2858 4.18485C11.5194 4.18485 11.754 4.04339 11.8429 3.84759L11.9322 3.65131L11.7158 3.63841C11.7056 3.63795 11.4273 3.61306 11.1174 3.29931C10.9899 3.17079 10.8358 3.10303 10.6697 3.10303C10.4668 3.10303 10.3165 3.20347 10.2998 3.21362L10.1006 3.35231L10.3156 3.46704ZM10.6702 3.25141C10.7744 3.25141 10.8959 3.28641 11.0108 3.4039C11.3714 3.76651 11.707 3.78677 11.707 3.78677C11.646 3.92037 11.4692 4.03787 11.2863 4.03787C11.244 4.03787 11.2016 4.03143 11.1593 4.01715C10.9112 3.93421 10.8223 3.56562 10.3863 3.33616C10.3863 3.33616 10.5083 3.25141 10.6702 3.25141Z" fill="black"/>
<path d="M10.413 5.42471V5.43212C10.2874 4.42864 9.55121 3.7039 8.73219 3.26298C8.65635 3.22288 8.58655 3.1888 8.5186 3.15608C8.76802 3.19433 9.16962 3.19893 9.47954 2.93262C9.47954 2.93262 9.00535 3.27818 8.03369 2.96443C8.30269 3.13719 8.82527 3.38094 9.30225 3.77577C10.495 4.81332 9.64149 5.82555 9.64149 5.82555C10.0701 5.38282 10.0878 4.90826 9.96167 4.52079C10.1874 4.89259 10.3316 5.34409 10.3093 5.90067C10.2763 6.69819 9.83369 7.38792 9.36785 7.94218C9.14402 8.21124 9.09379 8.54159 9.09379 8.54159C9.09379 8.54159 9.18405 8.24995 9.44324 7.94999C9.94258 7.37135 10.3693 6.77006 10.4251 5.90388C10.4768 6.06102 10.6895 6.49824 11.0268 6.66272C11.0278 6.66318 10.6038 6.41024 10.413 5.42471Z" fill="black"/>
<path d="M4.05683 9.13765C4.05637 9.13627 3.96982 9.00219 3.94192 8.63958C3.90935 8.20512 3.74365 7.95171 3.57986 7.80612C3.62733 7.78401 3.67106 7.75683 3.70784 7.72321C3.94843 7.50894 3.93817 7.25695 3.93677 7.22977L3.92748 7.09385L3.78972 7.09153C3.42258 7.08553 3.16614 6.97681 2.95814 6.73859C2.90975 6.6824 2.87067 6.62665 2.83902 6.57183C2.95347 6.60636 3.09355 6.63219 3.25968 6.63219C3.30438 6.63219 3.35045 6.6294 3.3993 6.62619C3.65756 6.60407 3.83255 6.45202 3.85208 6.43499L3.99494 6.30508L3.83161 6.20092C3.4663 5.96965 3.09309 5.53102 3.37975 4.76254C3.56542 4.26263 3.99494 3.80973 4.69298 3.37571C4.92846 3.22826 5.05734 3.05506 5.05734 2.88919C5.05734 2.63303 4.84142 2.53213 4.68274 2.46024C4.60548 2.42384 4.525 2.38745 4.48592 2.34276C4.36305 2.20223 4.46681 1.93226 4.58036 1.78618L4.72649 1.59684L4.49008 1.55075C4.48311 1.54984 4.42122 1.53833 4.32629 1.53833C4.14944 1.53833 3.81254 1.58072 3.53703 1.86314C3.30762 2.09812 3.2774 2.34829 3.28901 2.50953C3.26668 2.51139 3.24434 2.51233 3.22107 2.51368H3.19595C2.85066 2.51368 2.68733 2.15157 2.68082 2.13727L2.58352 1.91105L2.42624 2.10179C2.41741 2.11333 2.18753 2.39712 2.24337 2.75235C2.28059 2.98869 2.43043 3.19233 2.68776 3.36006C2.71569 3.37757 2.73524 3.39322 2.7492 3.40569C2.26478 3.56184 1.99393 3.90465 1.70773 4.26492L1.66631 4.31607C1.2289 4.8671 0.609967 4.88326 0.535977 4.88326L0.325195 4.8768L0.389394 5.07535C0.396844 5.09932 0.583449 5.66325 1.14372 5.66325L1.17072 5.66236C1.22981 5.6605 1.28288 5.65266 1.33035 5.64345C1.30706 5.95074 1.19305 6.51885 0.677906 6.73078L0.520617 6.79529L0.605802 6.9418C0.614165 6.95516 0.804966 7.27445 1.23772 7.27445C1.42667 7.27397 1.57371 7.22697 1.68401 7.17032C1.70077 7.30945 1.73519 7.48822 1.80268 7.68771C1.95951 8.14937 1.81338 8.47281 1.80778 8.48571L1.73054 8.64698L1.90553 8.69304C1.91715 8.69579 2.02465 8.72251 2.15168 8.72251C2.21125 8.72251 2.26618 8.71607 2.31551 8.70455C2.44814 8.67368 2.55049 8.61565 2.62819 8.54929C2.67566 8.69394 2.75711 8.85706 2.89813 9.00173C3.13822 9.24591 3.48351 9.36938 3.93491 9.36938L4.20855 9.36571L4.05683 9.13765ZM3.92467 9.22196C2.68171 9.22196 2.71339 8.16642 2.71339 8.16642C2.71339 8.16642 2.62683 8.47879 2.28013 8.56035C2.23871 8.5714 2.1945 8.57557 2.15122 8.57557C2.03955 8.57557 1.94321 8.54974 1.94321 8.54974C1.94321 8.54974 2.12376 8.17056 1.94366 7.64027C1.79477 7.20025 1.81898 6.87408 1.81898 6.87408C1.81898 6.87408 1.6519 7.12472 1.23635 7.12701H1.23216C0.886408 7.12701 0.735627 6.86761 0.735627 6.86761C1.56394 6.52714 1.4825 5.42783 1.4825 5.42783C1.4825 5.42783 1.37503 5.50707 1.16467 5.51491C1.15722 5.51537 1.15026 5.51537 1.14281 5.51537C0.685813 5.51537 0.531324 5.03114 0.531324 5.03114H0.540628C0.62487 5.03114 1.30289 5.01178 1.78266 4.40776C2.09864 4.01062 2.35783 3.66182 2.86832 3.5241L2.9195 3.51534L2.9307 3.46465C2.94466 3.38724 2.8916 3.31491 2.77015 3.23658C2.06467 2.77907 2.54398 2.19578 2.54398 2.19578C2.54398 2.19578 2.74455 2.66206 3.19641 2.66206C3.20756 2.66206 3.21782 2.66158 3.22944 2.66158C3.28016 2.65881 3.33044 2.65698 3.37975 2.64639L3.46306 2.63025C3.46306 2.63025 3.33414 2.28425 3.645 1.96635C3.87862 1.72631 4.16294 1.68577 4.32673 1.68577C4.41004 1.68577 4.4617 1.69634 4.4617 1.69634C4.30628 1.89814 4.19367 2.23265 4.37326 2.43906C4.5287 2.61644 4.90797 2.62519 4.90797 2.88965C4.90797 3.0016 4.80235 3.13247 4.61249 3.24994C4.04147 3.60609 3.4747 4.07879 3.23921 4.71139C2.94512 5.50109 3.27691 6.02492 3.7511 6.3258C3.7511 6.3258 3.60219 6.46123 3.38674 6.47831C3.34299 6.48245 3.30065 6.48429 3.25968 6.48429C2.80551 6.48429 2.5705 6.27325 2.5705 6.27325C2.5705 6.27325 2.60958 6.56493 2.84461 6.83583C3.06424 7.08599 3.35045 7.23343 3.78788 7.23944C3.78788 7.23944 3.80184 7.44032 3.60824 7.61399C3.48401 7.72364 3.19825 7.75958 3.19825 7.75958C3.19825 7.75958 3.73436 7.86694 3.79299 8.65019C3.8251 9.07451 3.93353 9.22196 3.93353 9.22196H3.92467Z" fill="black"/>
<path d="M1.15668 4.18535C1.21672 4.18535 1.27535 4.17657 1.3307 4.15767C1.48707 4.10654 1.58618 3.98352 1.69089 3.8559C1.79794 3.72505 1.91846 3.57762 2.12739 3.46751L2.3424 3.35325L2.14274 3.21455C2.12599 3.20397 1.97615 3.104 1.77373 3.104C1.60714 3.104 1.45265 3.17126 1.32559 3.30024C1.01567 3.61356 0.737856 3.63888 0.727606 3.63936L0.51123 3.65178L0.600123 3.84852C0.689441 4.0434 0.923518 4.18535 1.15668 4.18535ZM1.43215 3.4044C1.54756 3.28688 1.66903 3.25188 1.77373 3.25188C1.93473 3.25188 2.05665 3.33663 2.05665 3.33663C1.6211 3.56655 1.53175 3.93471 1.28277 4.01762C1.24183 4.0319 1.19902 4.03836 1.15668 4.03836C0.973787 4.03836 0.796945 3.92133 0.736457 3.78726C0.736457 3.78681 1.0715 3.7665 1.43215 3.4044Z" fill="black"/>
<path d="M2.13308 5.90116C2.10982 5.34458 2.25409 4.89305 2.48024 4.52125C2.35412 4.90873 2.37135 5.38329 2.80041 5.82606C2.80041 5.82606 1.94694 4.81383 3.14009 3.77626C3.61757 3.3814 4.1397 3.13766 4.40821 2.96489C3.43701 3.27864 2.9628 2.93311 2.9628 2.93311C3.27272 3.19942 3.67434 3.19481 3.92378 3.15613C3.8563 3.18881 3.78555 3.22291 3.71061 3.26299C2.89069 3.70391 2.15495 4.42865 2.02883 5.43212V5.42431C1.83852 6.40982 1.41504 6.66275 1.41504 6.66275C1.75197 6.49825 1.96418 6.06148 2.01582 5.90393C2.07214 6.77011 2.49884 7.37135 2.99817 7.95005C3.25737 8.24996 3.3486 8.54162 3.3486 8.54162C3.3486 8.54162 3.29788 8.21125 3.07311 7.94218C2.60821 7.38886 2.16566 6.69868 2.13308 5.90116Z" fill="black"/>
<path d="M5.94092 3.87061V4.06964C6.01027 3.98624 6.14429 4.00332 6.14429 4.00332V4.29035C6.14429 4.29035 6.13962 4.43133 6.08891 4.49259H6.23409H6.37881C6.32904 4.43179 6.32389 4.29035 6.32389 4.29035V4.00332C6.32389 4.00332 6.45791 3.98624 6.5268 4.06964V3.87061H6.23409H5.94092Z" fill="black"/>
<path d="M5.81601 2.69029C5.90861 2.76312 5.96213 2.77508 5.964 2.77648L6.00029 2.79305V2.60552L5.65967 2.46362C5.65967 2.46408 5.66291 2.57234 5.81601 2.69029Z" fill="black"/>
<path d="M6.62618 2.69029C6.78022 2.57234 6.78301 2.46362 6.78301 2.46362L6.44238 2.60552V2.79305L6.47819 2.77648C6.48054 2.77508 6.53358 2.76312 6.62618 2.69029Z" fill="black"/>
<path d="M7.24 1.92669C7.24 1.64242 6.75649 1.38672 6.22273 1.38672H6.22227H6.22089H6.21949C5.68572 1.38672 5.20222 1.64242 5.20222 1.92669L5.21293 1.99672L5.42604 3.20798L5.21201 3.331L4.65822 3.65122H4.6601C4.6601 3.65122 4.53539 3.71433 4.47766 3.75349C4.26688 3.89865 4.22221 4.1101 4.34457 4.19764C4.37484 4.02533 4.51257 3.84472 4.77037 3.84472C4.95606 3.84472 5.09751 3.93962 5.21201 4.082C5.24132 4.11794 5.26924 4.15618 5.2953 4.19764C5.32739 4.24968 5.3595 4.29533 5.39163 4.33956H3.96533C4.07003 4.54827 4.1696 4.76943 4.1696 5.00946V8.13507C4.1696 8.89159 4.75735 9.25281 5.39301 9.25281C5.88443 9.25281 5.95053 9.23069 6.22183 9.4979C6.49173 9.23023 6.55781 9.25281 7.04969 9.25281C7.68581 9.25281 8.27263 8.89159 8.27263 8.13507V5.00946C8.27263 4.76943 8.37223 4.54827 8.47739 4.33956H7.05061C7.08226 4.29577 7.11437 4.24968 7.14645 4.19764C7.173 4.15618 7.20044 4.11794 7.2293 4.082C7.3447 3.93919 7.4857 3.84472 7.67138 3.84472C7.92918 3.84472 8.06647 4.02487 8.09718 4.19764C8.21959 4.1101 8.17536 3.89865 7.96315 3.75349C7.90639 3.71433 7.78165 3.65122 7.78165 3.65122H7.78354L7.22976 3.331L7.01663 3.20798L7.22976 1.99672L7.24 1.92669ZM5.41208 2.06768L6.16132 2.31923V3.48443L5.60989 3.19648L5.41208 2.06768ZM5.56706 4.54272C5.68993 4.66388 5.81046 4.739 5.92491 4.78046C5.91001 4.83899 5.8905 4.95971 5.94586 5.07993C5.99099 5.17669 6.0729 5.25135 6.19062 5.3011C6.20366 5.42091 6.27998 5.60103 6.49173 5.68076C6.39912 5.77334 6.30882 5.86043 6.27207 5.8959L5.41348 5.88254C5.39395 5.87285 5.3609 5.85122 5.34604 5.82035C5.34416 5.8162 5.34137 5.81388 5.33999 5.80928L5.48002 5.83185C5.48331 5.83231 5.48607 5.83231 5.48888 5.83231C5.51588 5.83231 5.5396 5.81388 5.54427 5.78625C5.54891 5.75538 5.52798 5.72726 5.49773 5.72265L5.32555 5.69593L5.5168 5.04214L5.33578 4.66482L5.04542 4.96892L5.02771 5.64893L4.83275 5.61854C4.80248 5.61254 4.77364 5.63468 4.76853 5.66461C4.76386 5.69458 4.78433 5.72265 4.81504 5.7282L4.89695 5.74062C4.86764 5.75723 4.84857 5.77011 4.84623 5.77195L4.82946 5.78347L4.82481 5.80378C4.77736 5.99451 4.88485 6.17558 5.00075 6.25666L4.99654 6.2806C4.99189 6.31012 4.9984 6.33865 5.01609 6.36262C5.03284 6.38705 5.0589 6.40179 5.08774 6.40685C5.09381 6.40777 5.1003 6.40823 5.10591 6.40823C5.15614 6.40823 5.19992 6.37367 5.21247 6.32348C5.25574 6.32852 5.2953 6.32944 5.32228 6.32944H5.3451L6.47172 6.53079L6.49078 6.51837C6.58058 6.45615 6.92263 6.20922 7.03478 6.12764C7.06549 6.15392 7.09992 6.17789 7.14181 6.19767C7.10551 6.31837 7.10319 6.50407 7.24699 6.6506H4.37576V5.00992C4.37576 4.85097 4.32877 4.69111 4.27339 4.54366H5.56706V4.54272ZM6.95938 6.04381C6.84539 6.12674 6.55222 6.33865 6.44612 6.41238L5.42234 6.23039C5.42468 6.22118 5.42698 6.21243 5.42933 6.20322C5.44281 6.15067 5.45631 6.0788 5.45725 5.99451L6.31768 6.00833L6.33396 5.99172C6.347 5.97884 6.6197 5.71805 6.75884 5.56785C6.79187 5.60885 6.83327 5.64804 6.88725 5.68257C6.86865 5.7821 6.87656 5.924 6.95938 6.04381ZM5.2455 5.86824C5.2697 5.91848 5.31343 5.95212 5.3437 5.971C5.34275 6.01798 5.33811 6.09124 5.32555 6.15576C5.32274 6.17003 5.31904 6.18339 5.31483 6.19675C5.31253 6.20507 5.31018 6.21197 5.30832 6.21749C5.26319 6.21749 5.17429 6.21197 5.1017 6.18571C5.02122 6.15621 4.90115 6.01017 4.92906 5.84938C4.96397 5.82816 5.04447 5.78347 5.11987 5.78347C5.17804 5.78302 5.21758 5.81019 5.2455 5.86824ZM5.13894 5.666L5.15614 5.01313L5.30413 4.85787L5.39722 5.05046L5.21385 5.67705L5.13894 5.666ZM6.95009 9.05054C6.89425 9.05054 6.84259 9.05146 6.79605 9.05332L6.91798 8.6778C6.93707 8.62574 6.84072 8.55893 6.80116 8.50043C6.86119 8.53776 7.01663 8.6193 7.09157 8.65202C7.08366 8.66398 6.95009 9.05054 6.95009 9.05054ZM7.3326 8.6239L7.25304 9.03489C7.20232 9.04179 7.14834 9.04546 7.09295 9.04777L7.17672 8.65248C7.20184 8.53496 6.88309 8.49857 6.72581 8.26776C6.64901 8.35344 6.50429 8.37881 6.3591 8.37881C6.22648 8.37881 6.09385 8.35759 6.01333 8.34194C5.99286 8.33873 5.9733 8.33641 5.95424 8.33641C5.90771 8.33641 5.86534 8.35069 5.83603 8.39953L5.81276 8.43823L5.37861 8.33687L5.27064 8.51379C5.25528 8.54237 5.25434 8.56679 5.27902 8.59347L5.30832 8.6253C5.28831 8.68796 5.19805 8.78239 5.19805 8.78239L5.13337 8.70267C5.08215 8.64602 5.09055 8.54282 5.14407 8.44699L5.31623 8.15902L5.68388 8.21154L5.62663 8.08254C5.54985 7.91207 5.66665 7.69507 5.67921 7.57019C5.67503 7.60798 5.64011 7.61628 5.59917 7.61628C5.56195 7.61628 5.52053 7.60936 5.49306 7.60936C5.48237 7.60936 5.47305 7.61028 5.46795 7.61397L5.36835 7.67387L5.28971 7.60521C5.2804 7.59185 5.27715 7.56098 5.30041 7.53795L5.48237 7.33615L5.2674 7.08782L5.56846 7.23756L5.66012 7.12744C5.68529 7.15187 5.67457 7.2159 5.67457 7.2159C5.76857 7.21819 6.03193 7.36243 6.04592 7.69876C6.04684 7.70886 6.04684 7.72041 6.04684 7.73144C6.04684 7.73144 6.04919 7.73561 6.05383 7.74251C6.07244 7.76787 6.12362 7.83282 6.18876 7.8388L6.6048 7.87936H6.60664C6.65227 7.87936 6.74301 7.82638 6.85933 7.82638C6.92263 7.82638 6.99336 7.84249 7.06876 7.88949C7.06876 7.88949 7.10643 7.86 7.16787 7.85677C7.17251 7.85631 7.17767 7.85631 7.18231 7.85631C7.36892 7.85631 7.44616 8.02312 7.54621 8.16179C7.62161 8.2673 7.72212 8.42396 7.72212 8.42396C7.68489 8.4677 7.65043 8.49167 7.59274 8.49167C7.57694 8.49167 7.55877 8.49028 7.53922 8.48661C7.33911 8.4502 7.31029 8.04292 7.19627 8.01065C7.19022 8.00882 7.18371 8.00836 7.17813 8.00836C7.14135 8.00836 7.12508 8.04063 7.12508 8.04063C7.17716 8.17927 7.14694 8.23551 7.20278 8.3424C7.24464 8.42164 7.3191 8.48707 7.34983 8.51794C7.34983 8.51885 7.34146 8.57876 7.3326 8.6239ZM5.09846 8.23503L5.11753 8.28251C5.10497 8.32397 4.96073 8.38293 4.96073 8.38293L4.92951 8.31565C4.89649 8.24378 4.90345 8.12262 5.00399 8.04844L5.23759 7.90746L5.48518 7.9595C5.48051 8.03737 5.5275 8.09545 5.5275 8.09545L5.26784 8.04615L5.11242 8.15258C5.08636 8.17054 5.0845 8.20418 5.09846 8.23503ZM7.3717 9.01232L7.44291 8.64462C7.44662 8.62299 7.45126 8.59764 7.45453 8.57644C7.47454 8.58476 7.49595 8.59166 7.51921 8.59581C7.54573 8.60087 7.57039 8.60316 7.59274 8.60316C7.70165 8.60316 7.76493 8.54649 7.80727 8.49811L7.8622 8.435L7.81751 8.36591C7.81332 8.35899 7.71467 8.20418 7.63835 8.0982C7.62345 8.07748 7.609 8.05674 7.59461 8.03417C7.50805 7.90606 7.39963 7.7453 7.18231 7.7453L7.16276 7.74576C7.12692 7.74805 7.09622 7.75495 7.07156 7.76416C7.00313 7.73238 6.93286 7.71627 6.85979 7.71627C6.76999 7.71627 6.69414 7.74069 6.64388 7.75772C6.62946 7.76187 6.61644 7.76648 6.6062 7.76833L6.19993 7.72869C6.19483 7.72779 6.17806 7.71812 6.15805 7.69415V7.69229L6.24601 7.65728C6.22135 7.3675 5.94028 7.18918 5.78345 7.12882C5.77648 7.09978 5.76252 7.07075 5.73787 7.04728L5.65037 6.96526L5.57357 7.0565L5.53589 7.10304L4.96724 6.87172L5.33719 7.33154L5.19106 7.5504C5.13754 7.60661 5.19665 7.66282 5.19665 7.66282L5.3474 7.76556L5.50378 7.70797C5.50935 7.70797 5.51402 7.70937 5.51913 7.7098C5.5117 7.73329 5.50192 7.82544 5.49539 7.85124L5.22409 7.79826L4.93883 7.95769C4.79224 8.06412 4.77223 8.24058 4.8267 8.3613L4.85833 8.42991L4.90345 8.52669L5.00305 8.48567C5.00445 8.48521 5.00586 8.48475 5.00675 8.48386C4.97094 8.59718 4.98538 8.70498 5.04958 8.77596L5.11007 8.85151L5.1906 8.95241L5.27902 8.85841C5.30508 8.83261 5.38931 8.73911 5.41537 8.65892L5.43444 8.59762L5.39117 8.55064L5.38418 8.54237L5.4326 8.4631L5.7867 8.54557L5.86628 8.56354L5.90863 8.49442L5.9319 8.45663C5.93609 8.44882 5.93747 8.44742 5.95378 8.44742C5.96634 8.44742 5.97889 8.44882 5.9924 8.45159C6.12594 8.47646 6.24925 8.48892 6.35862 8.48892C6.46472 8.48892 6.528 8.48475 6.60386 8.45989C6.60386 8.45989 6.79419 8.67366 6.8007 8.68195L6.68438 9.03764L6.67925 9.0593C6.45867 9.07678 6.35119 9.12472 6.22135 9.25326C6.03288 9.06803 5.89931 9.04871 5.39257 9.04871C4.7862 9.04871 4.3753 8.69671 4.3753 8.13461V6.76025H8.06647L8.06742 8.13461C8.06785 8.59072 7.7975 8.90862 7.3717 9.01232ZM8.16977 4.54272C8.11349 4.69017 8.06647 4.85005 8.06647 5.00901L8.06696 6.0346C7.85054 5.99866 7.82496 5.7678 7.82402 5.75769L7.81983 5.71069L7.7733 5.70654C7.6793 5.69779 7.61694 5.65814 7.56436 5.6075C7.45826 5.50245 7.45777 5.33197 7.45826 5.33057C7.45688 5.33933 7.34146 5.49919 7.47548 5.67382C7.53177 5.74754 7.61321 5.79271 7.71886 5.81068C7.74352 5.93876 7.83984 6.11934 8.06696 6.147V6.6492H7.42847C7.13389 6.48704 7.25861 6.20136 7.26466 6.1894L7.2898 6.13502L7.23349 6.11382C6.91472 5.99681 7.00221 5.68166 7.00686 5.66829L7.01988 5.62221L6.97661 5.60195C6.7132 5.48123 6.74906 5.15551 6.75233 5.14215C6.67134 5.2071 6.64202 5.33978 6.69786 5.46972C6.66762 5.50382 6.62716 5.54528 6.58293 5.59042C6.31023 5.52181 6.30188 5.27346 6.30188 5.26196L6.30137 5.22369L6.26556 5.20987C6.15899 5.17071 6.08592 5.1122 6.05008 5.03339C6.00962 4.94635 6.02402 4.85512 6.03522 4.81133C6.06639 4.81825 6.09756 4.82333 6.12734 4.82563C6.15805 4.82883 6.1897 4.83069 6.22135 4.83069H6.22321H6.22553C6.25718 4.83069 6.28837 4.82883 6.31908 4.82563C6.48892 4.80903 6.67925 4.73671 6.8775 4.54226H8.16977V4.54272ZM7.17486 3.50606L7.42707 3.65122H7.43079L7.49409 3.68761C7.35169 3.72677 7.2428 3.79726 7.15161 3.88987C7.14834 3.89264 7.1451 3.89633 7.14181 3.89954C7.12088 3.92166 7.09992 3.94563 7.08039 3.97006C7.07667 3.97466 7.07294 3.97973 7.06876 3.98479C7.0492 4.00966 7.03108 4.03502 7.01337 4.06172C7.01059 4.06635 7.00732 4.07096 7.00408 4.07508C6.98312 4.10595 6.96313 4.13913 6.94312 4.17321C6.76348 4.47961 6.47682 4.66253 6.22183 4.66299C5.96728 4.66253 5.68062 4.47961 5.50098 4.17321C5.48143 4.14003 5.4619 4.10781 5.44094 4.07646C5.43676 4.07048 5.43303 4.06449 5.42933 4.05941C5.41164 4.03408 5.39395 4.0092 5.37581 3.98573C5.37116 3.97927 5.36695 3.97418 5.3623 3.96866C5.34275 3.94514 5.32274 3.92166 5.30273 3.9C5.29857 3.89679 5.29576 3.89264 5.29158 3.88895C5.19992 3.79635 5.09147 3.72631 4.94861 3.68761L5.01283 3.65122H5.01561L5.26784 3.50606L5.52704 3.35912L6.21949 3.73229L6.22089 3.73092L6.22273 3.73229L6.91518 3.35912L7.17486 3.50606ZM6.83327 3.19692L6.28138 3.48489V2.31923L7.03014 2.06768L6.83327 3.19692ZM6.22135 2.19115L5.40046 1.87003C5.47027 1.70647 5.79229 1.56731 6.22135 1.56685C6.65087 1.56731 6.97289 1.70647 7.04224 1.87003L6.22135 2.19115Z" fill="black"/>
<path d="M16.3863 7.06733V5.22249H17.4793V4.55117H14.4976V5.22249H15.5905V7.06733H16.3863ZM18.5671 6.01541V4.55117H17.7978V7.06733H18.4769L19.8033 5.60309V7.06733H20.5726V4.55117H19.8935L18.5671 6.01541ZM23.1607 6.13171V7.06733H23.9301V4.55117H23.1607V5.47093H21.9245V4.55117H21.1552V7.06733H21.9245V6.13171H23.1607ZM26.0724 7.06733C26.2475 7.06733 26.4066 7.0515 26.5552 7.00919C26.9534 6.89821 27.213 6.57572 27.213 6.13698C27.213 5.7194 26.9904 5.42867 26.635 5.29649C26.4648 5.23308 26.2636 5.22779 26.0724 5.22779H25.2819V4.55117H24.5127V7.06733H26.0724ZM25.9397 5.81984C26.046 5.81984 26.1467 5.81984 26.2369 5.85156C26.3643 5.89384 26.4386 5.99955 26.4386 6.12642C26.4386 6.25858 26.3643 6.36959 26.2422 6.42243C26.1573 6.45944 26.0724 6.45944 25.9397 6.45944H25.2819V5.81984H25.9397ZM28.5924 6.11585L29.5104 7.06733H30.5342L29.2558 5.75638L30.4866 4.55117H29.521L28.5924 5.49738H28.3804V4.55117H27.6112V7.06733H28.3804V6.11585H28.5924ZM32.1171 4.48247C31.0825 4.48247 30.462 5.06391 30.462 5.81452C30.462 6.56518 31.0825 7.14665 32.1171 7.14665C33.1466 7.14665 33.7674 6.56518 33.7674 5.81452C33.7674 5.06391 33.1466 4.48247 32.1171 4.48247ZM32.1171 6.53346C31.6026 6.53346 31.2739 6.22686 31.2739 5.81452C31.2739 5.40225 31.6026 5.10092 32.1171 5.10092C32.6266 5.10092 32.9608 5.40225 32.9608 5.81452C32.9608 6.22686 32.6266 6.53346 32.1171 6.53346ZM36.3295 4.40845H35.5601V4.66216C34.5946 4.68331 34.0161 5.09033 34.0161 5.80925C34.0161 6.52815 34.5946 6.90348 35.5601 6.92463V7.17836H36.3295V6.92463C37.3002 6.90348 37.8787 6.52815 37.8787 5.80925C37.8787 5.09033 37.3002 4.68331 36.3295 4.66216V4.40845ZM35.5601 6.38545C35.0295 6.36429 34.7961 6.14757 34.7961 5.80925C34.7961 5.47093 35.0295 5.22779 35.5601 5.20666V6.38545ZM36.3295 5.20666C36.8655 5.22779 37.0934 5.47093 37.0934 5.80925C37.0934 6.14757 36.8655 6.36429 36.3295 6.38545V5.20666ZM40.438 4.40845H39.6686V4.66216C38.703 4.68331 38.125 5.09033 38.125 5.80925C38.125 6.52815 38.703 6.90348 39.6686 6.92463V7.17836H40.438V6.92463C41.4091 6.90348 41.9873 6.52815 41.9873 5.80925C41.9873 5.09033 41.4091 4.68331 40.438 4.66216V4.40845ZM39.6686 6.38545C39.1382 6.36429 38.9047 6.14757 38.9047 5.80925C38.9047 5.47093 39.1382 5.22779 39.6686 5.20666V6.38545ZM40.438 5.20666C40.9739 5.22779 41.2021 5.47093 41.2021 5.80925C41.2021 6.14757 40.9739 6.36429 40.438 6.38545V5.20666Z" fill="black"/>
</g>
<defs>
<clipPath id="clip0_7232_2703">
<rect width="42" height="11" fill="white"/>
</clipPath>
</defs>
</svg>
