<svg width="43" height="13" viewBox="0 0 43 13" fill="none" xmlns="http://www.w3.org/2000/svg">
<path fill-rule="evenodd" clip-rule="evenodd" d="M30.924 0.529425C30.2419 0.274238 29.1728 0 27.8371 0C24.4338 0 22.0356 1.7086 22.0155 4.15569C21.9968 5.96656 23.7269 6.97478 25.0339 7.5784C26.3742 8.19456 26.8254 8.58862 26.8184 9.13961C26.8098 9.98388 25.7483 10.3694 24.7583 10.3694C23.3793 10.3694 22.6473 10.1794 21.5159 9.70914L21.0717 9.5086L20.5882 12.3282C21.3936 12.6791 22.8803 12.9845 24.4252 13C28.0464 13 30.3973 11.3115 30.4235 8.69742C30.436 7.26456 29.5189 6.17412 27.5323 5.27621C26.3274 4.69314 25.5904 4.30359 25.5984 3.714C25.5984 3.19159 26.2217 2.63058 27.57 2.63058C28.6979 2.61303 29.5129 2.8582 30.1483 3.11388L30.4577 3.25827L30.924 0.529425ZM14.9886 12.813L17.1423 0.219613H20.5864L18.4317 12.813H14.9886ZM37.0961 0.231929H39.7579L42.5454 12.8163H39.3489C39.3489 12.8163 39.0334 11.3704 38.9303 10.9297C38.6639 10.9297 37.5512 10.9283 36.5056 10.927C35.5786 10.9258 34.7043 10.9247 34.5188 10.9247C34.3849 11.2651 33.7938 12.8163 33.7938 12.8163H30.1762L35.2915 1.27624C35.6547 0.455531 36.271 0.231929 37.0961 0.231929ZM35.5097 8.34883C35.7949 7.62338 36.8826 4.82785 36.8826 4.82785C36.8725 4.84423 36.9394 4.67111 37.0308 4.43465L37.031 4.43414C37.1269 4.18585 37.2498 3.86788 37.3389 3.62612L37.5713 4.71204C37.5713 4.71204 38.2314 7.71763 38.3697 8.34883H35.5097ZM8.72771 8.81641L12.0994 0.22879H15.7477L10.3255 12.7976L6.68066 12.8026L3.59778 1.78799C5.78417 2.87892 7.74066 5.05879 8.368 7.07121L8.72771 8.81641Z" fill="#1A1F71"/>
<path fill-rule="evenodd" clip-rule="evenodd" d="M5.5988 0.220459H0.0437681L0 0.482164C4.32148 1.52547 7.18099 4.04425 8.36777 7.0714L7.15987 1.28332C6.95159 0.485673 6.34638 0.248033 5.5988 0.220459Z" fill="#F9A51A"/>
</svg>
