<svg width="44" height="8" viewBox="0 0 44 8" fill="none" xmlns="http://www.w3.org/2000/svg">
<path fill-rule="evenodd" clip-rule="evenodd" d="M12.9346 5.93803C12.5463 5.93803 12.1666 5.82444 11.8436 5.61161C11.5207 5.39877 11.2688 5.09623 11.1199 4.74221C10.971 4.38817 10.9317 3.99853 11.007 3.62249C11.0824 3.24646 11.2689 2.90086 11.5431 2.6294C11.8172 2.35791 12.1668 2.17272 12.5475 2.09721C12.9282 2.02167 13.3231 2.0592 13.6822 2.20505C14.0414 2.35092 14.3487 2.59855 14.5653 2.91666C14.782 3.2348 14.8983 3.60915 14.8995 3.99249C14.9007 4.24742 14.8509 4.50007 14.753 4.73597C14.655 4.97186 14.5109 5.18632 14.3287 5.36709C14.1466 5.54785 13.9301 5.69134 13.6917 5.78931C13.4532 5.88729 13.1975 5.93783 12.9393 5.93803H12.9346ZM12.9346 0.000263363C12.2527 -0.00164324 11.5814 0.166322 10.9827 0.488603C10.3841 0.810885 9.87754 1.27706 9.50997 1.84396C9.14238 2.41086 8.92567 3.06015 8.8799 3.73168C8.83414 4.40322 8.9608 5.07529 9.24815 5.68569C9.5355 6.29607 9.97426 6.825 10.5238 7.22352C11.0733 7.62201 11.7158 7.87723 12.3918 7.96546C13.0678 8.05372 13.7554 7.97217 14.391 7.72835C15.0266 7.48456 15.5896 7.08638 16.0278 6.57071C15.7752 7.05014 15.394 7.45182 14.9259 7.73193V7.93873H16.9761V3.9833C16.9724 2.92803 16.5461 1.91706 15.7901 1.17087C15.0341 0.424704 14.0099 0.00389783 12.9408 0.000263363H12.9346ZM32.3862 5.97479H29.712V4.67879H32.3289C32.6561 4.67879 33.0379 4.98517 33.0379 5.32834C33.0361 5.4997 32.9659 5.66342 32.8429 5.78431C32.7198 5.90521 32.5537 5.9736 32.38 5.97479H32.3862ZM29.712 2.02548H31.9531C32.1213 2.03775 32.2791 2.10969 32.3974 2.22798C32.5158 2.34628 32.5868 2.5029 32.5972 2.6689C32.5951 2.75734 32.5753 2.84451 32.5388 2.92536C32.5023 3.00624 32.4501 3.07921 32.3852 3.14012C32.32 3.20102 32.2436 3.24868 32.1599 3.28031C32.0762 3.31197 31.987 3.32699 31.8973 3.32456H29.712V2.02548ZM34.202 3.75963C34.443 3.39424 34.5783 2.97093 34.5935 2.53529C34.6088 2.09962 34.5035 1.66809 34.2889 1.28708C34.0693 0.917243 33.7561 0.609932 33.3803 0.395138C33.0043 0.180347 32.5784 0.0654093 32.144 0.0615417H27.6617V7.93873H32.6765C33.318 7.94691 33.9368 7.70336 34.3966 7.2616C34.8563 6.81981 35.1197 6.21592 35.1286 5.58262C35.1325 5.22782 35.0498 4.87733 34.8879 4.56062C34.7257 4.2439 34.4889 3.97027 34.1973 3.76269L34.202 3.75963ZM25.6349 2.96761C26.3085 4.75998 26.3427 6.38536 26.3427 7.93873H24.2598C24.2598 6.67949 24.2147 5.53208 23.9493 4.49342C23.5908 3.10395 22.9235 2.09288 22.3042 2.09288C21.685 2.09288 21.0176 3.10395 20.6591 4.49342C20.3921 5.53208 20.3487 6.64884 20.3487 7.93873H18.2643C18.2643 6.52476 18.2984 4.75998 18.972 2.96761C19.5928 1.2978 20.7708 0.000263363 22.3027 0.000263363C23.8345 0.000263363 25.014 1.2978 25.6349 2.96761ZM6.00169 0.0661372H8.08297V0.894913C8.08359 1.49041 7.94942 2.0785 7.69031 2.61626C7.43118 3.15405 7.05365 3.62788 6.58526 4.00319C7.05362 4.37822 7.43115 4.85179 7.69029 5.38929C7.9494 5.92682 8.08357 6.51471 8.08297 7.10998V7.93873H6.00169V6.90162C5.98733 6.39811 5.77461 5.91995 5.40871 5.56881C5.04281 5.21767 4.5526 5.02123 4.04226 5.02123C3.53194 5.02123 3.04173 5.21767 2.6758 5.56881C2.30991 5.91995 2.09719 6.39811 2.08282 6.90162V7.93873H0V7.10998C1.30389e-05 6.51442 0.134603 5.92638 0.393961 5.38867C0.65332 4.85096 1.03092 4.37713 1.49925 4.00166C1.03096 3.62653 0.653362 3.15296 0.393994 2.61549C0.134627 2.07804 2.60778e-05 1.49023 0 0.894913V0.0661372H2.08282V1.10173C2.07526 1.35591 2.11852 1.60905 2.21016 1.84673C2.3018 2.08438 2.44001 2.30188 2.61684 2.48679C2.7937 2.67168 3.00577 2.82037 3.24089 2.92433C3.476 3.02826 3.72956 3.08546 3.9871 3.09261C4.24462 3.09976 4.50105 3.0567 4.74169 2.96596C4.98236 2.87524 5.20254 2.73854 5.38965 2.56376C5.57676 2.38895 5.72712 2.17946 5.83214 1.94724C5.93715 1.71506 5.99478 1.46468 6.00169 1.21048C6.00169 1.17372 6.00169 1.13849 6.00169 1.10173V0.0661372ZM39.9538 5.93803C39.5652 5.93925 39.185 5.82669 38.8611 5.61458C38.5375 5.40248 38.2845 5.10037 38.1348 4.74646C37.9849 4.39254 37.9447 4.0027 38.0193 3.62627C38.0939 3.24982 38.2801 2.90365 38.5539 2.63157C38.8277 2.35949 39.1774 2.17368 39.5582 2.09767C39.9392 2.02164 40.3342 2.05882 40.6938 2.20448C41.0535 2.35014 41.3609 2.59777 41.5779 2.91604C41.7949 3.23431 41.9114 3.60889 41.9125 3.99249C41.9135 4.24678 41.8637 4.49875 41.7662 4.73407C41.6686 4.9694 41.5249 5.18342 41.3434 5.36395C41.1619 5.54446 40.9463 5.68795 40.7087 5.78618C40.4711 5.88441 40.2161 5.9355 39.9585 5.93651L39.9538 5.93803ZM43.9937 3.97716C43.9888 3.0381 43.649 2.13075 43.0341 1.4142C42.4192 0.697605 41.5685 0.217513 40.6307 0.0580652C39.6932 -0.101383 38.7289 0.0699892 37.9064 0.542141C37.0839 1.0143 36.4562 1.7571 36.1331 2.64033C35.81 3.52359 35.8121 4.4909 36.1391 5.37276C36.4661 6.25459 37.0972 6.9947 37.9218 7.46329C38.7461 7.93192 39.7115 8.09913 40.6482 7.93565C41.5852 7.77216 42.4338 7.28841 43.0455 6.56918C42.7921 7.04843 42.4111 7.45042 41.9435 7.73193V7.9372H44V3.9833L43.9937 3.97716Z" fill="#FF4E50"/>
</svg>
