<svg width="80" height="80" viewBox="0 0 80 80" fill="none" xmlns="http://www.w3.org/2000/svg">
<path d="M36 31C36 33.4525 34.7994 36.0837 32.9342 38.6141C31.2519 40.8964 29.0938 43.0083 27.0118 44.7097C24.9929 43.0035 22.8339 40.8913 21.1316 38.6095C19.2387 36.072 18 33.444 18 31C18 26.0294 22.0294 22 27 22C31.9706 22 36 26.0294 36 31Z" stroke="#393939" stroke-width="2"/>
<circle cx="27" cy="30" r="3.5" stroke="#393939"/>
<path d="M63 31C63 33.4525 61.7994 36.0837 59.9342 38.6141C58.2519 40.8964 56.0938 43.0083 54.0118 44.7097C51.9929 43.0035 49.8339 40.8913 48.1316 38.6095C46.2387 36.072 45 33.444 45 31C45 26.0294 49.0294 22 54 22C58.9706 22 63 26.0294 63 31Z" stroke="#393939" stroke-width="2"/>
<circle cx="54" cy="30" r="3.5" stroke="#393939"/>
<circle cx="27" cy="55" r="3" stroke="#393939" stroke-width="2"/>
<circle cx="54" cy="55" r="3" stroke="#393939" stroke-width="2"/>
<path d="M31 55L51 55" stroke="#393939" stroke-width="2" stroke-linecap="round"/>
</svg>
