<svg width="145" height="38" viewBox="0 0 145 38" fill="none" xmlns="http://www.w3.org/2000/svg">
<g clip-path="url(#clip0_7223_572)">
<mask id="mask0_7223_572" style="mask-type:luminance" maskUnits="userSpaceOnUse" x="0" y="0" width="145" height="38">
<path d="M144.033 0H0.743042V38H144.033V0Z" fill="white"/>
</mask>
<g mask="url(#mask0_7223_572)">
<path d="M42.6326 17.7752L43.1835 16.0071L41.3609 16.0642C41.2069 16.0642 40.0876 16.0325 39.0018 15.243C39.0827 15.251 39.1636 15.2621 39.2462 15.2621C40.3639 15.2621 41.445 14.5872 41.8785 13.6227L42.6628 11.8799C41.6801 11.8927 40.7814 11.7685 40.7814 11.7685C40.7734 11.7669 40.0654 11.6762 39.2462 10.8373C38.6587 10.2358 37.9317 9.91737 37.1441 9.91737C36.7997 9.91737 36.4916 9.97943 36.2265 10.0639C36.2679 9.92218 36.3074 9.77892 36.3298 9.63085C36.5805 7.99944 35.5328 6.75482 35.5328 6.75646L34.1626 5.05504L33.3133 7.05407C33.31 7.06046 33.0957 7.52843 32.7116 7.75757C32.5957 7.17028 32.3115 6.50978 31.7034 5.87787C30.5571 4.68733 29.1616 4.51064 28.4313 4.51064C28.0931 4.51064 27.8519 4.54728 27.793 4.5568L26.1388 4.88316C26.234 4.51232 26.4372 3.86764 26.8087 3.28671L27.7216 1.86066L25.4243 2.12328L24.6924 0.565021L23.2763 1.2972L21.9665 0L20.6598 1.2972L19.2389 0.565021L18.5086 2.12328L16.213 1.86066L17.1273 3.28671C17.4989 3.86764 17.7021 4.51064 17.7958 4.88149L16.2176 4.56957L16.1637 4.56005C16.0842 4.54728 15.8446 4.51064 15.5048 4.51064C14.7745 4.51064 13.379 4.6889 12.2358 5.87787C11.6262 6.5082 11.342 7.17028 11.2246 7.75757C10.8436 7.5316 10.6308 7.06996 10.6308 7.06996L9.7798 5.05975L8.38751 6.77242C8.21759 6.99358 7.37776 8.16348 7.60634 9.63414C7.6302 9.78057 7.66832 9.92376 7.70958 10.0655C7.44606 9.98108 7.13803 9.91901 6.79356 9.91901C6.00606 9.91901 5.27896 10.2373 4.68994 10.8391C3.87381 11.6746 3.16891 11.7685 3.17534 11.7685C3.17534 11.7685 2.4307 11.9022 1.2781 11.8814L2.0576 13.6243C2.49109 14.5905 3.57376 15.2637 4.68994 15.2637C4.77409 15.2637 4.85501 15.2525 4.9376 15.2446C3.85483 16.034 2.73554 16.0658 2.60055 16.0674L0.743042 16.0071L1.30508 17.7736C1.5877 18.6842 2.53228 20.1929 4.34226 20.3553C4.14534 21.1829 3.70874 22.1093 2.74985 22.5087L1.36702 23.0801L2.1211 24.3964C2.5466 25.1063 3.54522 25.9371 4.96769 25.9371C5.27574 25.9355 5.57257 25.9052 5.85841 25.8448C5.93146 26.1695 6.02349 26.4942 6.1315 26.8156C6.55534 28.0794 6.19022 28.9611 6.18545 28.9708L5.50275 30.4047L7.0269 30.8075C7.04599 30.8138 7.50636 30.9395 8.08267 30.9395C8.34469 30.9395 8.59387 30.9125 8.8289 30.8569C9.00665 30.8154 9.17657 30.7597 9.34004 30.6929C9.53694 31.0478 9.77667 31.3709 10.0561 31.6605C11.0325 32.6649 12.4154 33.1741 14.168 33.1741H14.1744L15.4255 33.1582L12.8407 34.2342L14.8032 35.1845C15.516 35.533 16.3621 35.9452 17.2227 36.2603L16.9781 36.9321L17.6545 37.2408C17.7148 37.2678 19.015 37.852 21.1775 37.9761C21.1775 37.9761 21.6998 38 21.9871 38C22.2744 38 22.7904 37.9746 22.7904 37.9746C24.9386 37.8472 26.2292 37.2695 26.2897 37.2408L26.9675 36.9304L26.7198 36.2572C27.6058 35.9325 28.4821 35.5043 29.1648 35.1701L31.0906 34.2326L28.5138 33.1552L29.7696 33.1711C31.5241 33.1711 32.9085 32.6617 33.8831 31.6558C34.161 31.3677 34.4008 31.0447 34.5993 30.6897C34.7628 30.7566 34.9342 30.8122 35.112 30.8537C35.3454 30.9093 35.5947 30.9364 35.8566 30.9364C36.4234 30.9364 36.8886 30.8107 36.9013 30.8075L38.4318 30.4016L37.7649 28.9946C37.7491 28.958 37.3839 28.0778 37.8078 26.8125C37.9157 26.4894 38.0062 26.1648 38.0792 25.8416C38.3667 25.9021 38.6667 25.9339 38.9764 25.9339C40.7878 25.9339 41.6562 24.6558 41.8245 24.3789L42.5707 23.077L41.1879 22.5071C40.2274 22.1076 39.7924 21.1797 39.5971 20.3538C41.3815 20.2009 42.3405 18.6921 42.6326 17.7752ZM17.9164 5.4911L17.8975 5.49591L17.9133 5.4752L17.9164 5.4911Z" fill="white"/>
<path d="M21.9681 5.41321C20.5043 5.41477 19.4073 5.89543 19.1675 6.46048L21.9681 7.5683L24.7687 6.46048C24.5305 5.89543 23.4335 5.41477 21.9681 5.41321Z" fill="white"/>
<path d="M21.9965 34.7387H21.9933H21.9694H21.9424H21.9409C21.0533 34.7451 19.8325 34.562 19.2434 34.3901L18.5353 36.3112C19.0021 36.4784 20.5835 36.7966 21.9694 36.7966C23.3523 36.7966 24.9351 36.4768 25.4003 36.3112L24.6937 34.3901C24.1033 34.5636 22.8839 34.7451 21.9965 34.7387Z" fill="white"/>
<path d="M27.3551 32.8289C26.828 33.1281 25.6515 33.5769 24.9672 33.7854L25.542 35.3723C26.6009 35.0825 27.474 34.7436 28.1965 34.3807L27.0041 33.9827L27.3551 32.8289Z" fill="white"/>
<path d="M16.5829 32.8289L16.9353 33.9827L15.7415 34.3807C16.4622 34.7436 17.3402 35.0825 18.3944 35.3723L18.9691 33.7854C18.2879 33.5769 17.11 33.1265 16.5829 32.8289Z" fill="white"/>
<path d="M21.9682 3.57629C23.0716 3.57629 24.1543 3.84048 24.9862 4.30533C25.0625 4.04899 25.1689 3.73864 25.3133 3.41394L24.9991 3.45215L24.6687 3.48721L24.529 3.18638L24.1083 2.2951L23.3415 2.69609L23.043 2.84892L22.8049 2.61341L21.9714 1.78577L21.1395 2.61341L20.9013 2.84892L20.6029 2.69609L19.8313 2.2951L19.4153 3.18638L19.2724 3.48721L18.9422 3.45215L18.6278 3.41394C18.7724 3.7402 18.8771 4.04899 18.9549 4.30533C19.7884 3.84048 20.8679 3.57629 21.9682 3.57629Z" fill="white"/>
<path d="M38.8145 13.8774C38.9575 13.9268 39.1035 13.949 39.248 13.949C39.8719 13.949 40.4752 13.5448 40.6831 13.0816C40.6831 13.0816 39.5385 13.0116 38.308 11.7589C37.916 11.353 37.5016 11.2322 37.1459 11.2322C36.5934 11.2322 36.179 11.525 36.179 11.525C37.6651 12.3176 37.9682 13.5909 38.8145 13.8774Z" fill="white"/>
<path d="M4.68898 13.949C4.83341 13.949 4.97949 13.9268 5.11925 13.8774C5.96858 13.5909 6.27341 12.3176 7.75946 11.525C7.75946 11.525 7.34342 11.2322 6.79415 11.2322C6.43692 11.2322 6.02253 11.353 5.62878 11.7589C4.40003 13.0116 3.25531 13.0816 3.25531 13.0816C3.46012 13.5448 4.06501 13.949 4.68898 13.949Z" fill="white"/>
<path d="M39.2181 19.0517C39.2435 19.0533 39.2658 19.0533 39.2928 19.0533C40.8501 19.0533 41.3789 17.3804 41.3789 17.3804H41.3487C41.063 17.3804 38.7466 17.3136 37.1097 15.227C36.0318 13.855 35.1489 12.6485 33.4041 12.1742L33.2327 12.144L33.1946 11.9689C33.147 11.7015 33.3296 11.4517 33.744 11.1811C36.1508 9.60063 34.5171 7.58562 34.5171 7.58562C34.5171 7.58562 33.8296 9.19796 32.2913 9.19796C32.2547 9.19796 32.215 9.19625 32.177 9.19625C32.0023 9.18675 31.8341 9.18035 31.6641 9.14387L31.38 9.08807C31.38 9.08807 31.8182 7.89278 30.7608 6.79458C29.9637 5.96537 28.9938 5.82532 28.4333 5.82532C28.1507 5.82532 27.9713 5.86184 27.9713 5.86184C28.5031 6.55898 28.8873 7.71456 28.273 8.42757C27.7428 9.04032 26.4472 9.07053 26.4472 9.98411C26.4472 10.371 26.8076 10.823 27.4553 11.2288C29.4034 12.4591 31.3371 14.0905 32.1404 16.2775C33.1454 19.0055 32.0134 20.8153 30.3972 21.853C30.3972 21.853 30.9037 22.3208 31.6388 22.3797C31.788 22.3941 31.9341 22.4004 32.0707 22.4004C33.6217 22.4004 34.4235 21.6715 34.4235 21.6715C34.4235 21.6715 34.2916 22.6789 33.4835 23.6148C32.739 24.4791 31.761 24.9868 30.2702 25.0091C30.2702 25.0091 30.2226 25.703 30.883 26.3031C31.3053 26.6819 32.2817 26.806 32.2817 26.806C32.2817 26.806 30.4543 27.1768 30.2527 29.8827C30.1431 31.3485 29.7701 31.8578 29.7701 31.8578H29.8035C34.044 31.8578 33.9345 28.2114 33.9345 28.2114C33.9345 28.2114 34.2297 29.2905 35.4125 29.5723C35.5553 29.6105 35.7078 29.6249 35.8538 29.6249C36.235 29.6249 36.5651 29.5357 36.5651 29.5357C36.5651 29.5357 35.946 28.2258 36.5603 26.3938C37.07 24.8738 36.9874 23.747 36.9874 23.747C36.9874 23.747 37.559 24.6128 38.9753 24.6208H38.9894C40.1691 24.6208 40.6834 23.7247 40.6834 23.7247C37.8559 22.5484 38.1354 18.7509 38.1354 18.7509C38.1354 18.7509 38.5021 19.0246 39.2181 19.0517ZM38.3671 23.0179C37.2177 22.4498 36.4905 20.941 36.3143 20.3966C36.1238 23.3888 34.6663 25.4659 32.9628 27.4649C32.0785 28.5011 31.7706 29.5085 31.7706 29.5085C31.7706 29.5085 31.9404 28.3674 32.7056 27.438C34.2948 25.5231 35.8048 23.1405 35.9174 20.3855C35.9952 18.4627 35.5014 16.903 34.7315 15.6186C35.1616 16.9571 35.1014 18.5964 33.6391 20.1259C33.6391 20.1259 36.5493 16.6292 32.4802 13.0449C30.8513 11.6809 29.0699 10.8389 28.1524 10.2421C31.4673 11.326 33.0851 10.1322 33.0851 10.1322C32.0261 11.0521 30.656 11.0362 29.8065 10.9042C30.0368 11.0172 30.2766 11.1349 30.5354 11.2734C33.3296 12.795 35.8412 15.2986 36.2698 18.7668V18.7396C36.9208 22.1441 38.3671 23.0179 38.3671 23.0179Z" fill="white"/>
<path d="M11.6547 26.806C11.6547 26.806 12.6311 26.6835 13.0534 26.3031C13.7122 25.703 13.6663 25.0091 13.6663 25.0091C12.1739 24.9883 11.1975 24.4791 10.4481 23.6165C9.64631 22.6805 9.51302 21.673 9.51302 21.673C9.51302 21.673 10.3147 22.4021 11.8643 22.4021C12.004 22.4021 12.1485 22.3957 12.2977 22.3813C13.0328 22.3224 13.5408 21.8545 13.5408 21.8545C11.9245 20.8168 10.791 19.0055 11.7944 16.2775C12.5994 14.0921 14.5315 12.4591 16.4796 11.2288C17.1273 10.823 17.4877 10.3725 17.4877 9.98411C17.4877 9.07053 16.1937 9.04032 15.6634 8.42757C15.0491 7.71456 15.4349 6.5574 15.9652 5.86184C15.9652 5.86184 15.7889 5.82532 15.5047 5.82532C14.9459 5.82532 13.9758 5.96537 13.1788 6.79458C12.1183 7.89278 12.5581 9.08807 12.5581 9.08807L12.2739 9.14387C12.1041 9.18035 11.9341 9.18675 11.761 9.19625C11.7214 9.19625 11.6864 9.19796 11.6484 9.19796C10.1068 9.19796 9.42255 7.58714 9.42255 7.58714C9.42255 7.58714 7.78884 9.60221 10.1941 11.1826C10.6085 11.4533 10.7895 11.7031 10.7419 11.9705L10.7036 12.1456L10.529 12.1759C8.78745 12.6501 7.90316 13.8566 6.82517 15.2286C5.19145 17.312 2.87826 17.3804 2.58941 17.3804H2.55756C2.55756 17.3804 3.08629 19.0533 4.64373 19.0533C4.66916 19.0533 4.69136 19.0533 4.71834 19.0517C5.43434 19.0261 5.80266 18.7509 5.80266 18.7509C5.80266 18.7509 6.07896 22.5468 3.25457 23.7247C3.25457 23.7247 3.76899 24.6208 4.94857 24.6208H4.96288C6.38057 24.6128 6.95063 23.747 6.95063 23.747C6.95063 23.747 6.86799 24.8738 7.37612 26.3938C7.99044 28.2258 7.37443 29.5357 7.37443 29.5357C7.37443 29.5357 7.70469 29.6249 8.0841 29.6249C8.23173 29.6249 8.38262 29.6105 8.52393 29.5723C9.70504 29.2905 10.002 28.2114 10.002 28.2114C10.002 28.2114 9.89399 31.8578 14.1346 31.8578H14.1647C14.1647 31.8578 13.7933 31.3485 13.6853 29.8827C13.4821 27.1768 11.6547 26.806 11.6547 26.806ZM10.9737 27.4649C9.27016 25.4659 7.81426 23.3888 7.62211 20.3966C7.44593 20.9394 6.72192 22.4498 5.57255 23.0179C5.57255 23.0179 7.01719 22.1441 7.66663 18.7396V18.7668C8.09687 15.3003 10.6069 12.795 13.4026 11.2734C13.6583 11.1333 13.9011 11.0156 14.1298 10.9042C13.2804 11.0362 11.9103 11.0521 10.8513 10.1322C10.8513 10.1322 12.4692 11.326 15.7825 10.2421C14.8649 10.8389 13.0852 11.6809 11.4562 13.0449C7.38551 16.6292 10.2973 20.1259 10.2973 20.1259C8.83353 18.5948 8.7748 16.9571 9.20498 15.6186C8.43346 16.9045 7.94123 18.4627 8.02062 20.3855C8.13175 23.1405 9.64155 25.5231 11.2276 27.438C11.9945 28.3659 12.1676 29.5085 12.1676 29.5085C12.1676 29.5085 11.8563 28.5011 10.9737 27.4649Z" fill="white"/>
<path d="M18.833 13.4747C18.9028 13.5495 18.971 13.6308 19.0363 13.7118C19.0521 13.731 19.0663 13.7485 19.0822 13.7708C19.1426 13.8519 19.2045 13.9379 19.2633 14.0254C19.2759 14.043 19.2887 14.0637 19.3029 14.0842C19.3744 14.1925 19.4411 14.304 19.5077 14.4186C20.119 15.4769 21.0986 16.1089 21.967 16.1105C22.837 16.1089 23.8134 15.4769 24.4279 14.4186C24.4961 14.3008 24.5644 14.1862 24.6357 14.0796C24.6469 14.0637 24.6581 14.0493 24.6675 14.0335C24.7278 13.9427 24.7914 13.8536 24.8581 13.7676C24.8723 13.7485 24.885 13.7326 24.8978 13.7167C24.966 13.6323 25.0359 13.5496 25.1073 13.4731C25.12 13.4604 25.1295 13.4493 25.1406 13.4398C25.4518 13.1199 25.8233 12.8762 26.3091 12.741L26.0932 12.6153H26.0806L25.2199 12.1139L24.3357 11.6062L21.9733 12.8954L21.967 12.8906L21.9622 12.8954L19.5982 11.6062L18.7155 12.1123L17.8535 12.6136H17.8439L17.6248 12.7394C18.1122 12.8746 18.4821 13.115 18.7949 13.435C18.8091 13.4477 18.8186 13.462 18.833 13.4747ZM21.0112 13.3713H22.0114H23.01V14.0588C22.7751 13.7708 22.3179 13.8297 22.3179 13.8297V14.8213C22.3179 14.8213 22.3353 15.3084 22.5051 15.5199H22.0114H21.5161C21.6891 15.3099 21.705 14.8213 21.705 14.8213V13.8297C21.705 13.8297 21.2494 13.7708 21.0112 14.0588V13.3713Z" fill="white"/>
<path d="M21.7636 12.0374V8.01225L19.2075 7.14307L19.8823 11.0442L21.7636 12.0374ZM21.2143 9.00063V9.64676L21.0905 9.58944C21.0841 9.58469 20.9032 9.54334 20.5856 9.29178C20.0617 8.88442 20.0522 8.50879 20.0522 8.50879L21.2143 9.00063Z" fill="white"/>
<path d="M24.0564 11.0442L24.7279 7.14307L22.1734 8.01225V12.0374L24.0564 11.0442ZM22.7228 9.00063L23.8848 8.51037C23.8848 8.51037 23.8754 8.886 23.3498 9.29336C23.0339 9.54492 22.8513 9.58621 22.8449 9.59103L22.721 9.64828V9.00063H22.7228Z" fill="white"/>
<path d="M18.1486 21.3693C18.3979 21.4599 18.6995 21.479 18.8535 21.479C18.8599 21.4599 18.8678 21.436 18.8758 21.4074C18.89 21.3612 18.9028 21.3167 18.9123 21.2657C18.9552 21.043 18.971 20.7899 18.9741 20.6276C18.8693 20.5622 18.7217 20.446 18.6392 20.2726C18.5439 20.072 18.409 19.9797 18.2105 19.9797C17.9533 19.9797 17.6771 20.1341 17.5596 20.2074C17.466 20.7628 17.8739 21.2674 18.1486 21.3693Z" fill="white"/>
<path d="M23.8019 19.233C23.3272 19.7503 22.3984 20.6513 22.3523 20.6974L22.2967 20.7547L19.3613 20.7084C19.3596 20.9998 19.312 21.248 19.266 21.4295C19.258 21.4598 19.2501 21.4916 19.2421 21.5234L22.7349 22.1521C23.0985 21.8975 24.0987 21.1653 24.4861 20.8788C24.2034 20.4651 24.1764 19.9747 24.2399 19.6294C24.0559 19.5101 23.9145 19.3764 23.8019 19.233Z" fill="white"/>
<path d="M24.2006 15.6936C23.5242 16.3668 22.8748 16.6151 22.2955 16.6724C22.1906 16.6836 22.0843 16.6898 21.9763 16.6898H21.9683H21.9619C21.854 16.6898 21.7461 16.6836 21.6412 16.6724C21.5397 16.6628 21.4333 16.6469 21.327 16.6231C21.2888 16.7742 21.2411 17.0909 21.3777 17.3902C21.5 17.6624 21.7493 17.8645 22.1128 17.9983L22.235 18.0459L22.2367 18.178C22.2367 18.2178 22.2652 19.0741 23.1972 19.3113C23.3495 19.1537 23.4877 19.0121 23.5893 18.8942C23.3988 18.4454 23.4987 17.987 23.775 17.7626C23.7624 17.8103 23.6417 18.9341 24.5404 19.351L24.688 19.4211L24.6435 19.5787C24.6291 19.6264 24.3291 20.7135 25.4167 21.1178L25.6088 21.191L25.523 21.3788C25.504 21.4202 25.077 22.4071 26.082 22.9672H28.2617V21.2324C27.487 21.1368 27.1583 20.513 27.0741 20.0704C26.7138 20.0084 26.4344 19.8524 26.2438 19.5978C25.7865 18.9945 26.1803 18.4423 26.1851 18.412C26.1835 18.4168 26.1851 19.0057 26.547 19.3686C26.7265 19.5436 26.9393 19.679 27.2615 19.7092L27.4202 19.7236L27.4346 19.8859C27.4376 19.9208 27.525 20.7167 28.2633 20.8424L28.2617 17.2995C28.2617 16.7504 28.422 16.1981 28.6142 15.6887H24.2006V15.6936Z" fill="white"/>
<path d="M18.3345 17.3165L18.2758 19.5735L18.5313 19.6117L19.1568 17.4471L18.8394 16.7817L18.3345 17.3165Z" fill="white"/>
<path d="M25.231 27.6672C25.25 27.6672 25.2723 27.6704 25.2929 27.6752C25.6819 27.7867 25.7804 29.1936 26.463 29.3193C26.5297 29.3337 26.5916 29.3369 26.6456 29.3369C26.8425 29.3369 26.9599 29.2524 27.0869 29.1029C27.0869 29.1029 26.744 28.5617 26.4869 28.1973C26.1455 27.7198 25.8805 27.1419 25.2453 27.1419C25.231 27.1419 25.212 27.1419 25.1961 27.1437C24.9866 27.1548 24.8579 27.2566 24.8579 27.2566C24.6007 27.0943 24.3611 27.0386 24.1434 27.0386C23.7451 27.0386 23.4355 27.2217 23.2814 27.2217H23.2751L21.8556 27.0816C21.6335 27.0609 21.4588 26.8365 21.3954 26.7489C21.3794 26.725 21.3715 26.7107 21.3715 26.7107C21.3715 26.6725 21.3715 26.6327 21.3684 26.5977C21.3207 25.4343 20.4222 24.936 20.103 24.928C20.103 24.928 20.141 24.7069 20.0538 24.6225L19.741 25.0028L18.7138 24.4856L19.4457 25.3435L18.825 26.0421C18.7471 26.1219 18.7566 26.2301 18.7884 26.2746L19.0567 26.5118L19.3965 26.3048C19.4139 26.2922 19.4442 26.2889 19.4822 26.2889C19.5759 26.2889 19.7172 26.3128 19.8442 26.3128C19.9823 26.3128 20.103 26.2825 20.1173 26.152C20.0744 26.5833 19.676 27.333 19.9379 27.9219L20.1317 28.366L18.8774 28.1845L18.2899 29.1793C18.109 29.5104 18.0804 29.8684 18.255 30.0627L18.474 30.338C18.474 30.338 18.7821 30.0101 18.8519 29.7952L18.7519 29.6854C18.6677 29.5931 18.6726 29.5104 18.7234 29.4101L19.0917 28.7973L20.5729 29.1475L20.6507 29.0137C20.7507 28.8467 20.8952 28.7957 21.054 28.7957C21.1191 28.7957 21.1857 28.8037 21.2556 28.8148C21.5303 28.869 21.9828 28.9421 22.4353 28.9421C22.9321 28.9421 23.4243 28.8531 23.6862 28.5586C24.2229 29.356 25.3104 29.4833 25.2246 29.8875L24.9389 31.2532C25.1279 31.2452 25.3104 31.2325 25.4834 31.2086L25.755 29.7872C25.7852 29.6328 25.8136 29.4243 25.8136 29.4243C25.7089 29.3177 25.4549 29.0918 25.3121 28.818C25.1199 28.4487 25.2246 28.2561 25.0453 27.7754C25.0516 27.7787 25.1056 27.6672 25.231 27.6672ZM19.6903 25.6713C19.6172 25.6697 19.5647 25.6077 19.5679 25.5345C19.5743 25.4645 19.633 25.4087 19.7044 25.4151C19.7775 25.4183 19.8299 25.482 19.8268 25.5521C19.8204 25.622 19.7601 25.6762 19.6903 25.6713Z" fill="white"/>
<path d="M17.6678 28.9595C17.6678 28.9595 18.1583 28.7574 18.2027 28.6125L18.1376 28.4486C18.0916 28.3419 18.0979 28.2257 18.1868 28.1621L18.7171 27.7944L19.6031 27.9647C19.6031 27.9647 19.4427 27.7642 19.4586 27.4952L18.614 27.3153L17.817 27.8023C17.4756 28.0586 17.4501 28.4772 17.563 28.7254L17.6678 28.9595Z" fill="white"/>
<path d="M23.9289 31.2738C24.0877 31.2674 24.2623 31.2643 24.4544 31.2643C24.4544 31.2643 24.9102 29.9289 24.9354 29.8859C24.6799 29.7729 24.1496 29.4911 23.9448 29.3623C24.0797 29.5644 24.4084 29.7968 24.3434 29.9751L23.9289 31.2738Z" fill="white"/>
<path d="M28.2661 23.354H15.6714V28.1034C15.6714 30.0452 17.0734 31.2612 19.142 31.2612C20.871 31.2612 21.3265 31.328 21.9696 31.9678C22.4126 31.5254 22.7793 31.3598 23.5318 31.2977L23.5492 31.2246L23.9461 29.9943C23.924 29.9671 23.2746 29.2271 23.2746 29.2271C23.0175 29.3131 22.8016 29.3274 22.438 29.3274C22.0649 29.3274 21.6442 29.2843 21.1885 29.1985C21.1424 29.1874 21.0996 29.1842 21.0567 29.1842C21.0011 29.1842 20.9964 29.1889 20.9821 29.2159L20.9027 29.3464L20.7582 29.5852L20.4868 29.5231L19.2786 29.2382L19.1134 29.512L19.1388 29.5406L19.2865 29.703L19.2214 29.9147C19.1325 30.1916 18.8435 30.5147 18.7562 30.6039L18.4545 30.9285L18.1799 30.58L17.9736 30.3205C17.7559 30.077 17.7053 29.703 17.8274 29.3115C17.8242 29.3146 17.8194 29.3162 17.8148 29.3162L17.4735 29.4579L17.3194 29.1235L17.2114 28.8866C17.0258 28.4695 17.0939 27.8599 17.5942 27.4922L18.5673 26.9415L19.493 27.1246C19.5151 27.0354 19.5484 26.7171 19.5754 26.636C19.558 26.6344 19.5406 26.6296 19.523 26.6296L18.9896 26.8285L18.4752 26.472C18.4752 26.472 18.2736 26.2778 18.4561 26.0837L18.9546 25.3277L17.6925 23.7391L19.6326 24.5382L19.7612 24.3775L20.0231 24.0638L20.32 24.3472C20.4042 24.4283 20.4518 24.5286 20.4756 24.6289C21.0106 24.8374 21.9679 25.4534 22.0521 26.4545L21.7521 26.5755V26.5834C21.8204 26.6646 21.8775 26.6981 21.8949 26.7012L23.2794 26.8381C23.3143 26.8317 23.3588 26.8158 23.408 26.8014C23.5794 26.7427 23.8383 26.6582 24.1446 26.6582C24.3939 26.6582 24.6351 26.7155 24.867 26.8238C24.9527 26.7919 25.0576 26.768 25.1783 26.7601L25.2448 26.7586C25.9863 26.7586 26.3546 27.3139 26.65 27.7565C26.6991 27.8327 26.7483 27.9061 26.7991 27.9777C27.0579 28.3438 27.3961 28.8802 27.4104 28.9024L27.5628 29.1412L27.3754 29.3593C27.231 29.5263 27.015 29.7222 26.6436 29.7222C26.5674 29.7222 26.4832 29.7141 26.3927 29.6966C26.3134 29.6823 26.2419 29.6583 26.1721 29.6298C26.161 29.703 26.1467 29.7906 26.1323 29.8653L25.8894 31.1355C27.3421 30.7774 28.2646 29.6775 28.2646 28.105L28.2661 23.354Z" fill="#FFDD2D"/>
<path d="M15.6717 22.9721H25.4658C24.9768 22.466 24.9832 21.8246 25.1086 21.4075C24.9657 21.3391 24.8482 21.2562 24.7435 21.1672C24.3608 21.4504 23.1923 22.3036 22.8875 22.5168L22.8225 22.5615L18.9787 21.8643H18.901C18.8089 21.8643 18.674 21.8611 18.5263 21.8436C18.485 22.0171 18.3359 22.1365 18.1643 22.1365C18.1452 22.1365 18.123 22.1349 18.1024 22.1301C18.0023 22.1126 17.9151 22.0616 17.8563 21.9773C17.7961 21.8946 17.7723 21.7958 17.7897 21.694L17.8039 21.6112C17.4071 21.3311 17.0419 20.7055 17.2038 20.0466L17.2197 19.9766L17.2753 19.9369C17.2832 19.9305 17.3498 19.8859 17.4483 19.8286L17.1689 19.7856C17.0641 19.7666 16.9943 19.6694 17.0102 19.566C17.0277 19.461 17.126 19.3861 17.2292 19.4068L17.8944 19.5119L17.9548 17.1626L18.9455 16.1122L19.5631 17.4158L18.9105 19.6758L19.498 19.7681C19.6011 19.784 19.6726 19.8811 19.6568 19.9877C19.6408 20.0816 19.5615 20.1469 19.4678 20.1469C19.4583 20.1469 19.4472 20.1469 19.4376 20.1454L18.9597 20.0674C18.9661 20.0816 18.9755 20.0896 18.982 20.1055C19.0328 20.2106 19.1455 20.287 19.2121 20.3188L22.143 20.365C22.2668 20.244 22.5749 19.9416 22.8908 19.6217C22.17 19.3479 21.9079 18.724 21.8635 18.3101C21.4603 18.1383 21.1824 17.8805 21.0285 17.5446C20.841 17.1293 20.9078 16.7138 20.957 16.5117C20.5664 16.3684 20.1553 16.1075 19.7361 15.6904H15.3225C15.5115 16.1996 15.6717 16.752 15.6717 17.3011V22.9721Z" fill="#FFDD2D"/>
<path d="M19.7059 25.4148C19.6344 25.4084 19.5741 25.4641 19.5694 25.5341C19.5646 25.6073 19.6186 25.6693 19.6917 25.6709C19.7614 25.6773 19.8234 25.6232 19.8297 25.5516C19.8297 25.4816 19.779 25.4164 19.7059 25.4148Z" fill="black"/>
<path d="M28.2491 34.027L27.5236 33.7484L27.7236 32.9972L27.9442 32.1775C27.9442 32.1775 26.6582 32.8763 24.8468 33.4016C24.3324 33.5495 23.9434 33.6164 23.9434 33.6164V34.1734C23.9434 34.1734 22.975 34.3422 21.9954 34.3422H21.9842H21.97H21.9509H21.9398C20.9603 34.3422 19.9918 34.1734 19.9918 34.1734V33.6164C19.9918 33.6164 19.6012 33.5495 19.0884 33.4016C17.2769 32.8763 15.9925 32.1775 15.9925 32.1775L16.21 32.9972L16.4148 33.7484L15.6877 34.027L14.8812 34.3294C15.8068 34.7766 17.0879 35.4293 18.2613 35.7507L17.985 36.5083C17.985 36.5083 19.4726 37.188 21.9509 37.1944V37.196H21.9589H21.97H21.9795H21.9858V37.1944C24.4674 37.188 25.9533 36.5083 25.9533 36.5083L25.6755 35.7507C26.8487 35.4293 28.1332 34.7766 29.054 34.3294L28.2491 34.027ZM15.7417 34.3804L16.9355 33.9825L16.5831 32.8285C17.1085 33.1277 18.2883 33.5765 18.9709 33.7851L18.3946 35.3719C17.3404 35.0807 16.4624 34.7417 15.7417 34.3804ZM21.97 36.7964C20.5839 36.7964 19.0011 36.4765 18.5359 36.3111L19.2439 34.3899C19.8314 34.5619 21.0539 34.7448 21.9414 34.7384H21.943H21.97H21.9938H21.997C22.8845 34.7448 24.1037 34.5619 24.6944 34.3899L25.4008 36.3111C24.9357 36.4781 23.3544 36.7964 21.97 36.7964ZM25.5421 35.3719L24.9675 33.7851C25.6517 33.5765 26.828 33.1277 27.3552 32.8285L27.0043 33.9825L28.1967 34.3804C27.4743 34.7417 26.601 35.0807 25.5421 35.3719Z" fill="black"/>
<path d="M21.9684 4.04104C23.4449 4.04104 24.626 4.53133 25.2786 5.055C25.2786 5.055 25.4722 3.88508 26.1343 2.85218L24.9451 2.98741L24.3229 1.66163L23.1273 2.2792L21.9684 1.13L20.8126 2.2792L19.6156 1.66163L18.9947 2.98741L17.8056 2.85218C18.4676 3.88508 18.6613 5.055 18.6613 5.055C19.3154 4.53133 20.4934 4.04104 21.9684 4.04104ZM18.9407 3.45216L19.271 3.48722L19.4139 3.1864L19.8297 2.29511L20.6014 2.69453L20.8999 2.84736L21.1381 2.61185L21.97 1.78421L22.8035 2.61185L23.0416 2.84736L23.3401 2.69453L24.107 2.29511L24.5276 3.1864L24.6673 3.48722L24.9975 3.45216L25.3119 3.41396C25.1674 3.74032 25.061 4.049 24.9848 4.30534C24.1529 3.8406 23.0701 3.5763 21.9668 3.5763C20.8682 3.5763 19.7869 3.8406 18.9518 4.30534C18.8741 4.049 18.7693 3.73864 18.6248 3.41396L18.9407 3.45216Z" fill="black"/>
<path d="M39.2909 19.5642C41.2009 19.5642 41.839 17.6161 41.8661 17.5333L42.0788 16.8472L41.3627 16.8695H41.3597C41.1072 16.8695 39.0004 16.8138 37.5065 14.9103L37.3652 14.7336C36.3888 13.489 35.4632 12.3064 33.8089 11.7668C33.8565 11.7239 33.9247 11.6697 34.0185 11.6093C34.8964 11.0299 35.4076 10.3264 35.5362 9.50988C35.7235 8.28115 34.9424 7.30227 34.9076 7.2625L34.3757 6.60358L34.0439 7.38511C34.0217 7.43439 33.4628 8.68547 32.2879 8.68547H32.2006C32.1197 8.68066 32.0434 8.67749 31.9672 8.67103C32.0085 8.11243 31.9069 7.24819 31.1258 6.43803C30.1874 5.46236 29.0349 5.31592 28.4316 5.31592C28.1093 5.31592 27.895 5.3557 27.8727 5.35895L27.0695 5.51805L27.5648 6.17225C27.9538 6.67679 28.3062 7.60792 27.8885 8.09495C27.7552 8.24936 27.4806 8.37508 27.217 8.50079C26.6757 8.75064 25.9374 9.09758 25.9374 9.9826C25.9374 10.5556 26.3804 11.154 27.1837 11.6633C29.562 13.1626 31.0289 14.7272 31.6624 16.4541C32.642 19.1106 31.3639 20.6258 30.1224 21.4232L29.5651 21.7829L30.0526 22.2316C30.1176 22.2891 30.7146 22.8158 31.5957 22.8923C31.7624 22.9034 31.9227 22.9129 32.072 22.9129C32.6372 22.9129 33.1183 22.8238 33.5088 22.7044C33.4008 22.8938 33.269 23.0865 33.1024 23.2806C32.3928 24.105 31.5195 24.4807 30.2637 24.4998L29.7969 24.5078L29.7604 24.9773C29.7556 25.0711 29.7208 25.9418 30.5431 26.682C30.6686 26.7964 30.821 26.8904 30.9797 26.9684C30.4225 27.4714 29.8556 28.3467 29.7462 29.8477C29.6541 31.1002 29.3556 31.5634 29.3524 31.5681L28.8365 32.3576L29.7684 32.3704C31.3085 32.3704 32.4879 31.9438 33.3055 31.1002C33.7883 30.6005 34.0645 30.037 34.2281 29.5373C34.4964 29.7664 34.8425 29.967 35.2932 30.0736C35.4648 30.1134 35.6522 30.1356 35.8538 30.1356C36.2888 30.1356 36.6524 30.0434 36.6937 30.0339L37.289 29.8747L37.0254 29.3176C37.0063 29.2731 36.5095 28.1557 37.0444 26.5609C37.2747 25.8717 37.3921 25.2542 37.4492 24.7735C37.824 24.9692 38.3257 25.1316 38.975 25.1332C40.4483 25.1332 41.0976 24.0303 41.1279 23.9841L41.4184 23.4779L40.8802 23.2551C39.1243 22.5246 38.7353 20.5621 38.6575 19.4989C38.8162 19.5292 38.9973 19.5578 39.202 19.5642H39.2909ZM40.6832 23.7246C40.6832 23.7246 40.1689 24.6208 38.9893 24.6208H38.975C37.5588 24.6128 36.9873 23.7469 36.9873 23.7469C36.9873 23.7469 37.0698 24.8739 36.5587 26.3938C35.9443 28.2258 36.5634 29.5358 36.5634 29.5358C36.5634 29.5358 36.2332 29.6248 35.8522 29.6248C35.7061 29.6248 35.5537 29.6105 35.4108 29.5722C34.2281 29.2906 33.9328 28.2115 33.9328 28.2115C33.9328 28.2115 34.0423 31.8579 29.8017 31.8579H29.7684C29.7684 31.8579 30.1415 31.3485 30.2526 29.8826C30.4542 27.1769 32.2816 26.8061 32.2816 26.8061C32.2816 26.8061 31.3067 26.6835 30.8845 26.3031C30.2239 25.7031 30.27 25.0091 30.27 25.0091C31.7624 24.9884 32.7388 24.4792 33.4834 23.6148C34.29 22.679 34.4233 21.6715 34.4233 21.6715C34.4233 21.6715 33.6215 22.4004 32.0705 22.4004C31.9339 22.4004 31.7878 22.394 31.6386 22.3797C30.9051 22.3209 30.3971 21.8529 30.3971 21.8529C32.0116 20.8151 33.1452 19.0039 32.1403 16.2758C31.3354 14.0906 29.4016 12.4576 27.4552 11.2273C26.8074 10.8214 26.447 10.371 26.447 9.9826C26.447 9.06902 27.7426 9.04039 28.2744 8.42593C28.8872 7.71293 28.503 6.55589 27.9712 5.86033C27.9712 5.86033 28.1505 5.82369 28.4331 5.82369C28.9936 5.82369 29.9637 5.96531 30.7606 6.79295C31.8196 7.89115 31.3798 9.0865 31.3798 9.0865L31.664 9.14223C31.8339 9.17884 32.0022 9.18524 32.1768 9.19315C32.2148 9.19315 32.253 9.19474 32.291 9.19474C33.8295 9.19474 34.517 7.5824 34.517 7.5824C34.517 7.5824 36.1523 9.59906 33.7454 11.1779C33.331 11.4485 33.1484 11.6983 33.1961 11.9658L33.2342 12.1409L33.4056 12.1711C35.1504 12.6454 36.0332 13.8519 37.1112 15.2238C38.748 17.3105 41.0644 17.3773 41.3501 17.3773H41.3803C41.3803 17.3773 40.8516 19.05 39.2941 19.05C39.2687 19.05 39.2465 19.05 39.2195 19.0485C38.5035 19.023 38.1367 18.7477 38.1367 18.7477C38.1367 18.7477 37.8558 22.5469 40.6832 23.7246Z" fill="black"/>
<path d="M35.9362 11.9771C36.6489 12.3574 37.0633 12.8667 37.4269 13.3187C37.7841 13.7596 38.1239 14.1846 38.654 14.3613C38.843 14.4266 39.043 14.4568 39.2463 14.4568C40.0432 14.4568 40.8435 13.9681 41.1466 13.2917L41.4515 12.6137L40.7133 12.5691C40.6783 12.5675 39.7289 12.4815 38.6716 11.3977C38.2366 10.9537 37.7111 10.7196 37.1443 10.7196C36.4521 10.7196 35.9392 11.0665 35.8821 11.1016L35.2026 11.5807L35.9362 11.9771ZM37.1459 11.2322C37.5014 11.2322 37.9158 11.3531 38.308 11.759C39.5384 13.0116 40.6831 13.0816 40.6831 13.0816C40.4752 13.5431 39.8719 13.949 39.2478 13.949C39.1035 13.949 38.9589 13.9268 38.8144 13.8775C37.9683 13.5909 37.665 12.3176 36.1774 11.525C36.1774 11.525 36.5934 11.2322 37.1459 11.2322Z" fill="black"/>
<path d="M36.2691 18.7397V18.7653C35.8405 15.2987 33.3289 12.795 30.5346 11.2719C30.2759 11.1334 30.0378 11.0156 29.8059 10.9026C30.6569 11.0347 32.027 11.0507 33.0844 10.1306C33.0844 10.1306 31.4666 11.3244 28.1516 10.2405C29.0693 10.8374 30.8522 11.6794 32.4795 13.0434C36.5486 16.6276 33.6369 20.1244 33.6369 20.1244C35.0991 18.595 35.1594 16.9556 34.7292 15.6171C35.4992 16.9015 35.9913 18.4612 35.9151 20.3839C35.8025 23.139 34.2926 25.5217 32.7033 27.4364C31.9397 28.3659 31.7683 29.5071 31.7683 29.5071C31.7683 29.5071 32.0762 28.4996 32.9605 27.4634C34.664 25.4644 36.1199 23.3873 36.3104 20.395C36.4866 20.9379 37.2122 22.4483 38.3632 23.0164C38.3663 23.018 36.9201 22.1443 36.2691 18.7397Z" fill="black"/>
<path d="M14.584 31.5665C14.5824 31.5618 14.2871 31.0985 14.192 29.8459C14.0808 28.3451 13.5155 27.4697 12.9568 26.9667C13.1187 26.8903 13.2679 26.7964 13.3933 26.6803C14.2142 25.94 14.1792 25.0695 14.1744 24.9757L14.1427 24.5061L13.6727 24.4981C12.4201 24.4774 11.5452 24.1018 10.8356 23.2789C10.6705 23.0848 10.5372 22.8921 10.4292 22.7028C10.8197 22.8221 11.2976 22.9113 11.8644 22.9113C12.0169 22.9113 12.1741 22.9016 12.3407 22.8905C13.2218 22.8142 13.8188 22.2889 13.8854 22.2301L14.3728 21.7813L13.8156 21.4215C12.5693 20.6225 11.2961 19.1073 12.274 16.4525C12.9075 14.7255 14.3728 13.161 16.7543 11.6617C17.5577 11.1523 17.9974 10.554 17.9974 9.98093C17.9974 9.09603 17.2608 8.74745 16.7194 8.49912C16.4558 8.3734 16.1812 8.24768 16.0479 8.09328C15.6287 7.60783 15.9827 6.67518 16.3701 6.17055L16.8687 5.51645L16.0621 5.35725C16.0384 5.3541 15.8272 5.31433 15.5033 5.31433C14.8999 5.31433 13.7506 5.46076 12.8106 6.43641C12.028 7.24816 11.9248 8.11234 11.9645 8.66936C11.8883 8.67582 11.8121 8.67905 11.7326 8.68373H11.647C10.4689 8.68373 9.91172 7.43277 9.88949 7.38337L9.55754 6.6019L9.02098 7.26082C8.9908 7.30072 8.20657 8.28106 8.39709 9.50821C8.52406 10.3247 9.03526 11.0281 9.91322 11.6076C10.0084 11.6681 10.0752 11.7221 10.1228 11.7652C8.47009 12.3046 7.54611 13.4889 6.56966 14.7335L6.42834 14.9102C4.93605 16.8137 2.82445 16.8696 2.57202 16.8696L1.85291 16.8472L2.07193 17.5331C2.09734 17.6159 2.73398 19.5641 4.64543 19.5641L4.73757 19.561C4.93916 19.5546 5.12021 19.5275 5.28217 19.4957C5.2027 20.5572 4.81373 22.5197 3.05623 23.2519L2.51962 23.4747L2.81024 23.9808C2.83877 24.027 3.48972 25.13 4.96614 25.13C5.61076 25.1284 6.11241 24.966 6.48873 24.7703C6.5459 25.2509 6.66334 25.8685 6.8936 26.5577C7.42865 28.1525 6.9301 29.2698 6.91101 29.3144L6.64747 29.8715L7.24446 30.0306C7.28409 30.0401 7.65085 30.1324 8.08423 30.1324C8.28752 30.1324 8.47491 30.1102 8.6432 30.0703C9.09567 29.9637 9.44484 29.7633 9.70993 29.534C9.8719 30.0337 10.1498 30.5972 10.6309 31.097C11.45 31.9405 12.628 32.367 14.168 32.367L15.1016 32.3544L14.584 31.5665ZM14.1331 31.8578C9.89256 31.8578 10.0006 28.2114 10.0006 28.2114C10.0006 28.2114 9.70529 29.2905 8.52249 29.5722C8.38118 29.6104 8.23036 29.6248 8.08266 29.6248C7.70169 29.6248 7.373 29.5356 7.373 29.5356C7.373 29.5356 7.989 28.2257 7.37456 26.3938C6.86662 24.8737 6.9492 23.7469 6.9492 23.7469C6.9492 23.7469 6.37916 24.6128 4.96147 24.6207H4.94715C3.76757 24.6207 3.25316 23.7246 3.25316 23.7246C6.0791 22.5484 5.80125 18.7508 5.80125 18.7508C5.80125 18.7508 5.43459 19.0245 4.71692 19.0516C4.69151 19.0532 4.66774 19.0532 4.64232 19.0532C3.08322 19.0532 2.55614 17.3804 2.55614 17.3804H2.58789C2.87529 17.3804 5.18848 17.3135 6.82529 15.2269C7.90329 13.855 8.78758 12.65 10.5292 12.1742L10.7038 12.144L10.742 11.9689C10.7897 11.7014 10.6086 11.4516 10.1943 11.181C7.7874 9.60055 9.42268 7.58553 9.42268 7.58553C9.42268 7.58553 10.1069 9.19629 11.6485 9.19629C11.6866 9.19629 11.7216 9.19464 11.7612 9.19464C11.9342 9.18508 12.1058 9.17875 12.274 9.14214L12.5582 9.08641C12.5582 9.08641 12.1184 7.89118 13.1789 6.79292C13.976 5.96372 14.946 5.82366 15.5048 5.82366C15.789 5.82366 15.9653 5.8602 15.9653 5.8602C15.4351 6.55732 15.0508 7.7129 15.6636 8.42597C16.1939 9.03872 17.4878 9.06893 17.4878 9.98251C17.4878 10.3692 17.1274 10.8214 16.4797 11.2272C14.5316 12.4575 12.5979 14.0905 11.7945 16.2758C10.7912 19.0039 11.9232 20.8135 13.541 21.8528C13.541 21.8528 13.0329 22.3207 12.2979 22.3797C12.1486 22.394 12.0042 22.4003 11.8644 22.4003C10.3149 22.4003 9.51315 21.6713 9.51315 21.6713C9.51315 21.6713 9.64644 22.6789 10.4483 23.6148C11.1976 24.4789 12.1741 24.9883 13.6664 25.009C13.6664 25.009 13.7141 25.703 13.0535 26.3029C12.6297 26.6818 11.6548 26.8059 11.6548 26.8059C11.6548 26.8059 13.4839 27.1768 13.6838 29.8825C13.7934 31.3484 14.1633 31.8578 14.1633 31.8578H14.1331Z" fill="black"/>
<path d="M4.6887 14.4587C4.89351 14.4587 5.09354 14.4283 5.28238 14.363C5.81588 14.1864 6.15401 13.7614 6.51123 13.3206C6.87644 12.8685 7.28766 12.3592 8.00039 11.9789L8.73398 11.5842L8.0528 11.105C7.99564 11.0684 7.48444 10.7231 6.79386 10.7231C6.22551 10.7231 5.69843 10.9555 5.26495 11.401C4.2076 12.4834 3.2598 12.5708 3.22483 12.5725L2.48663 12.6154L2.7899 13.295C3.09463 13.9683 3.89322 14.4587 4.6887 14.4587ZM5.6285 11.7609C6.02225 11.3549 6.43664 11.234 6.79386 11.234C7.34313 11.234 7.7591 11.5267 7.7591 11.5267C6.27312 12.321 5.9683 13.5928 5.11887 13.8792C4.97921 13.9286 4.83313 13.9509 4.6887 13.9509C4.06472 13.9509 3.46139 13.5466 3.25503 13.0835C3.25503 13.0819 4.39808 13.0118 5.6285 11.7609Z" fill="black"/>
<path d="M8.02095 20.3856C7.94162 18.4629 8.43379 16.903 9.20532 15.6186C8.77507 16.9572 8.83386 18.5966 10.2977 20.1262C10.2977 20.1262 7.38591 16.6294 11.4565 13.045C13.0856 11.681 14.8668 10.839 15.7829 10.2421C12.4695 11.326 10.8517 10.1323 10.8517 10.1323C11.909 11.0523 13.2792 11.0364 14.1302 10.9028C13.9 11.0157 13.6586 11.1335 13.403 11.2719C10.6057 12.7951 8.09558 15.2987 7.66527 18.7653V18.7383C7.01602 22.1428 5.57123 23.0165 5.57123 23.0165C6.72072 22.4483 7.4447 20.9395 7.62088 20.3952C7.81303 23.3874 9.2688 25.4644 10.9724 27.4636C11.8567 28.4996 12.1679 29.5072 12.1679 29.5072C12.1679 29.5072 11.9948 28.3659 11.228 27.4364C9.64195 25.5249 8.13208 23.1407 8.02095 20.3856Z" fill="black"/>
<path d="M21.0109 13.3713V14.0589C21.2475 13.7708 21.7048 13.8297 21.7048 13.8297V14.8214C21.7048 14.8214 21.6889 15.3084 21.5158 15.52H22.0111H22.5049C22.335 15.31 22.3175 14.8214 22.3175 14.8214V13.8297C22.3175 13.8297 22.7747 13.7708 23.0098 14.0589V13.3713H22.0111H21.0109Z" fill="black"/>
<path d="M20.5853 9.29355C20.9012 9.54511 21.0838 9.58647 21.0902 9.59128L21.214 9.64853V9.0007L20.0519 8.5105C20.0519 8.51208 20.063 8.88606 20.5853 9.29355Z" fill="black"/>
<path d="M23.3495 9.29355C23.875 8.88606 23.8846 8.5105 23.8846 8.5105L22.7224 9.0007V9.64853L22.8446 9.59128C22.8526 9.58647 23.0336 9.54511 23.3495 9.29355Z" fill="black"/>
<path d="M25.4431 6.65616C25.4431 5.67411 23.7935 4.79077 21.9725 4.79077H21.9709H21.9662H21.9615C20.1404 4.79077 18.4909 5.67411 18.4909 6.65616L18.5274 6.89803L19.2545 11.0824L18.5243 11.5074L16.6349 12.6136H16.6414C16.6414 12.6136 16.2159 12.8316 16.0189 12.9669C15.2998 13.4684 15.1474 14.1988 15.5649 14.5013C15.6682 13.906 16.138 13.2821 17.0176 13.2821C17.6511 13.2821 18.1336 13.6099 18.5243 14.1018C18.6243 14.2259 18.7195 14.358 18.8084 14.5013C18.9179 14.681 19.0274 14.8387 19.1371 14.9915H14.2711C14.6282 15.7125 14.968 16.4765 14.968 17.3057V28.1032C14.968 30.7167 16.9731 31.9645 19.1418 31.9645C20.8184 31.9645 21.0439 31.8882 21.9695 32.8112C22.8903 31.8866 23.1157 31.9645 24.7938 31.9645C26.964 31.9645 28.9661 30.7167 28.9661 28.1032V17.3057C28.9661 16.4765 29.3059 15.7125 29.6647 14.9915H24.797C24.905 14.8402 25.0145 14.681 25.124 14.5013C25.2145 14.358 25.3082 14.2259 25.4066 14.1018C25.8003 13.6084 26.2813 13.2821 26.9148 13.2821C27.7943 13.2821 28.2628 13.9044 28.3675 14.5013C28.7851 14.1988 28.6342 13.4684 27.9102 12.9669C27.7166 12.8316 27.291 12.6136 27.291 12.6136H27.2975L25.4082 11.5074L24.6811 11.0824L25.4082 6.89803L25.4431 6.65616ZM19.2069 7.14319L21.763 8.01219V12.0374L19.8817 11.0427L19.2069 7.14319ZM19.7356 15.6933C20.1548 16.1119 20.566 16.3714 20.9565 16.5146C20.9056 16.7168 20.8391 17.1338 21.028 17.5492C21.1819 17.8834 21.4614 18.1413 21.863 18.3132C21.9074 18.727 22.1678 19.3493 22.8903 19.6247C22.5743 19.9446 22.2663 20.2454 22.1408 20.368L19.2116 20.3218C19.145 20.2883 19.0323 20.2136 18.9815 20.107C18.9751 20.0926 18.9656 20.0846 18.9609 20.0687L19.4387 20.1467C19.4499 20.1483 19.4593 20.1483 19.4689 20.1483C19.561 20.1483 19.6419 20.0846 19.6578 19.9892C19.6737 19.8825 19.6023 19.7853 19.4991 19.7695L18.9116 19.6772L19.5641 17.4186L18.9465 16.1151L17.956 17.1657L17.8955 19.5148L17.2304 19.4098C17.1271 19.3891 17.0287 19.4655 17.0113 19.5689C16.9954 19.6725 17.0652 19.7695 17.17 19.7886L17.4494 19.8315C17.3494 19.8889 17.2844 19.9334 17.2763 19.9398L17.2192 19.9796L17.2033 20.0497C17.0414 20.7086 17.4081 21.3341 17.8035 21.6142L17.7892 21.6969C17.7733 21.7989 17.7956 21.8975 17.8558 21.9803C17.913 22.0647 18.0019 22.1156 18.1003 22.1331C18.1211 22.1362 18.1432 22.1378 18.1623 22.1378C18.3337 22.1378 18.483 22.0184 18.5259 21.8451C18.6735 21.8625 18.8084 21.8657 18.9005 21.8657H18.9784L22.822 22.5612L22.887 22.5183C23.1934 22.3034 24.3603 21.4503 24.743 21.1685C24.8477 21.2593 24.9652 21.3421 25.1081 21.4104C24.9843 21.8274 24.9763 22.4689 25.4669 22.9751H15.6713V17.3073C15.6713 16.7582 15.511 16.2059 15.322 15.6965H19.7356V15.6933ZM24.4857 20.8789C24.0969 21.1654 23.0966 21.8975 22.7346 22.1521L19.2419 21.5235C19.2498 21.4917 19.2577 21.4614 19.2657 21.4296C19.3117 21.248 19.3578 20.9998 19.361 20.7086L22.2964 20.7564L22.352 20.6989C22.3965 20.6545 23.3268 19.7536 23.8015 19.2347C23.9142 19.3763 24.0555 19.5117 24.2397 19.631C24.1762 19.9748 24.2032 20.465 24.4857 20.8789ZM18.6386 20.2724C18.7211 20.4459 18.8703 20.5621 18.9735 20.6274C18.9703 20.7897 18.9545 21.0428 18.9116 21.2656C18.902 21.315 18.8895 21.3611 18.8751 21.4073C18.8672 21.436 18.8592 21.4598 18.8529 21.4789C18.6989 21.4789 18.3956 21.4598 18.148 21.3691C17.8734 21.2672 17.4637 20.7627 17.559 20.2073C17.678 20.1339 17.9527 19.9796 18.21 19.9796C18.4084 19.978 18.5433 20.0719 18.6386 20.2724ZM18.275 19.5738L18.3337 17.3184L18.8386 16.782L19.1562 17.4473L18.5306 19.6119L18.275 19.5738ZM24.454 31.2658C24.2635 31.2658 24.0873 31.269 23.9285 31.2754L24.3445 29.9782C24.4096 29.7983 24.0809 29.5675 23.9459 29.3654C24.1508 29.4944 24.6811 29.7761 24.9367 29.8891C24.9097 29.9304 24.454 31.2658 24.454 31.2658ZM25.759 29.792L25.4876 31.2117C25.3145 31.2356 25.1304 31.2482 24.9415 31.2562L25.2272 29.8907C25.3129 29.4847 24.2255 29.359 23.6888 28.5616C23.4268 28.8577 22.9331 28.9452 22.4378 28.9452C21.9853 28.9452 21.5329 28.872 21.2581 28.8179C21.1883 28.8068 21.1216 28.7988 21.0565 28.7988C20.8978 28.7988 20.7532 28.8482 20.6533 29.0168L20.5738 29.1505L19.0927 28.8004L18.7244 29.4116C18.6719 29.5103 18.6687 29.5947 18.7529 29.6868L18.8529 29.7968C18.7846 30.0132 18.4767 30.3395 18.4767 30.3395L18.256 30.064C18.0812 29.8683 18.1099 29.5119 18.2925 29.1808L18.8799 28.1859L20.1342 28.3674L19.9388 27.9218C19.6769 27.3328 20.0754 26.5832 20.1182 26.1519C20.1039 26.2824 19.9848 26.3111 19.8451 26.3111C19.7182 26.3111 19.5768 26.2871 19.4832 26.2871C19.4467 26.2871 19.4149 26.2903 19.3975 26.303L19.0577 26.51L18.7894 26.2728C18.7576 26.2267 18.7465 26.1201 18.8258 26.0405L19.4467 25.3434L18.7133 24.4855L19.7404 25.0028L20.0531 24.6224C20.1389 24.7067 20.1024 24.928 20.1024 24.928C20.4231 24.9359 21.3216 25.4342 21.3693 26.596C21.3724 26.6309 21.3724 26.6708 21.3724 26.7089C21.3724 26.7089 21.3805 26.7233 21.3963 26.7471C21.4598 26.8348 21.6344 27.0591 21.8566 27.0798L23.276 27.2199H23.2823C23.438 27.2199 23.7476 27.0369 24.1444 27.0369C24.3603 27.0369 24.6016 27.0926 24.8589 27.2549C24.8589 27.2549 24.9874 27.153 25.197 27.1418C25.2129 27.1402 25.2305 27.1402 25.2463 27.1402C25.883 27.1402 26.1464 27.7165 26.4878 28.1956C26.745 28.5601 27.0879 29.1012 27.0879 29.1012C26.9609 29.2524 26.8434 29.3351 26.6465 29.3351C26.5926 29.3351 26.5307 29.3303 26.464 29.3176C25.7812 29.1919 25.6829 27.7849 25.2939 27.6735C25.2733 27.6671 25.2511 27.6655 25.232 27.6655C25.1066 27.6655 25.0511 27.777 25.0511 27.777C25.2287 28.256 25.1256 28.4502 25.3161 28.8195C25.459 29.0933 25.713 29.3192 25.8178 29.4259C25.8178 29.4291 25.7892 29.636 25.759 29.792ZM18.1369 28.4486L18.2019 28.6126C18.1591 28.7558 17.667 28.9595 17.667 28.9595L17.5605 28.7271C17.4478 28.4788 17.4716 28.0603 17.8146 27.804L18.6115 27.3169L19.4562 27.4968C19.4403 27.7658 19.6006 27.9664 19.6006 27.9664L18.7148 27.7961L18.1845 28.1637C18.0956 28.2258 18.0892 28.342 18.1369 28.4486ZM25.8924 31.1337L26.1354 29.8635C26.148 29.7888 26.1639 29.7013 26.175 29.628C26.2433 29.6567 26.3163 29.6805 26.3957 29.6949C26.4861 29.7124 26.5703 29.7203 26.6465 29.7203C27.0181 29.7203 27.234 29.5246 27.3784 29.3574L27.5658 29.1394L27.4134 28.9007C27.3991 28.8768 27.0625 28.342 26.8022 27.9759C26.7513 27.9043 26.702 27.8327 26.6529 27.7546C26.3576 27.3121 25.9877 26.7568 25.2463 26.7568L25.1796 26.7584C25.0573 26.7663 24.9526 26.7901 24.8685 26.8219C24.635 26.7121 24.3953 26.6564 24.146 26.6564C23.8396 26.6564 23.5808 26.7409 23.4094 26.7997C23.3602 26.814 23.3157 26.8299 23.2808 26.8363L21.8947 26.6994C21.8773 26.6963 21.8201 26.6629 21.7519 26.5801V26.5737L22.0519 26.4527C21.9678 25.4517 21.0089 24.8357 20.4739 24.6271C20.4501 24.5268 20.4025 24.4265 20.3183 24.3455L20.0198 24.0621L19.7578 24.3773L19.6292 24.5381L17.6892 23.7389L18.9514 25.3274L18.4528 26.0835C18.2702 26.2777 18.4719 26.4718 18.4719 26.4718L18.9862 26.8267L19.5197 26.6278C19.5387 26.6278 19.5547 26.6326 19.5721 26.6342C19.5467 26.7153 19.5133 27.0337 19.4911 27.1228L18.5655 26.9397L17.5923 27.4905C17.0922 27.8581 17.0239 28.4677 17.2097 28.8848L17.3177 29.1218L17.4716 29.4562L17.8114 29.3144C17.8161 29.3128 17.821 29.3113 17.824 29.3081C17.7018 29.6997 17.7511 30.0721 17.9701 30.3172L18.1765 30.5782L18.4513 30.9268L18.7529 30.602C18.8418 30.5129 19.1292 30.1899 19.2181 29.9129L19.2831 29.7011L19.1355 29.5389L19.1116 29.5102L19.2769 29.2365L20.4849 29.5214L20.7564 29.5835L20.9009 29.3447L20.9803 29.2141C20.9946 29.1871 20.9993 29.1823 21.055 29.1823C21.0978 29.1823 21.1406 29.1871 21.1867 29.1967C21.6423 29.2826 22.063 29.3256 22.4361 29.3256C22.7981 29.3256 23.014 29.3113 23.2728 29.2254C23.2728 29.2254 23.9222 29.9638 23.9444 29.9925L23.5475 31.2212L23.53 31.2961C22.7775 31.3565 22.4108 31.5221 21.9678 31.9661C21.3248 31.3262 20.8691 31.2595 19.1403 31.2595C17.0715 31.2595 15.6697 30.0435 15.6697 28.1017V23.3539H28.2628L28.266 28.1017C28.2675 29.6773 27.3451 30.7755 25.8924 31.1337ZM28.6152 15.6933C28.4232 16.2027 28.2628 16.755 28.2628 17.3041L28.2644 20.8471C27.5261 20.7229 27.4388 19.9254 27.4356 19.8905L27.4213 19.7282L27.2626 19.7138C26.9419 19.6836 26.7291 19.5466 26.5497 19.3717C26.1877 19.0088 26.1861 18.4198 26.1877 18.415C26.183 18.4452 25.7892 18.9975 26.2465 19.6007C26.4385 19.8555 26.7164 20.0115 27.0768 20.0735C27.1609 20.516 27.4896 21.1399 28.2644 21.2354V22.9703H26.0861C25.0811 22.4101 25.5066 21.4231 25.5272 21.3819L25.613 21.194L25.4209 21.1207C24.3333 20.7165 24.6319 19.6278 24.6477 19.5817L24.6922 19.4225L24.5445 19.3525C23.6458 18.9354 23.7682 17.8102 23.7793 17.7641C23.503 17.9885 23.403 18.4468 23.5935 18.8957C23.4903 19.0135 23.3523 19.1567 23.2014 19.3127C22.271 19.0756 22.2425 18.2177 22.2425 18.178L22.2408 18.0458L22.1186 17.998C21.7551 17.8627 21.5057 17.6606 21.3835 17.3884C21.2455 17.0877 21.2946 16.7725 21.3328 16.6212C21.4391 16.6452 21.5455 16.6627 21.6471 16.6706C21.7519 16.6817 21.8599 16.6882 21.9678 16.6882H21.9742H21.9821C22.0901 16.6882 22.1965 16.6817 22.3012 16.6706C22.8807 16.6133 23.53 16.3635 24.2064 15.6917H28.6152V15.6933ZM25.2209 12.1121L26.0813 12.6136H26.094L26.31 12.7393C25.8242 12.8746 25.4527 13.1181 25.1416 13.438C25.1304 13.4476 25.1193 13.4604 25.1081 13.4715C25.0367 13.5478 24.9652 13.6306 24.8986 13.715C24.8859 13.7309 24.8732 13.7484 24.8589 13.766C24.7922 13.8518 24.7303 13.9395 24.6699 14.0317C24.6604 14.0477 24.6493 14.0636 24.6382 14.0779C24.5667 14.1845 24.4986 14.2991 24.4303 14.4168C23.8174 15.4753 22.8394 16.1072 21.9695 16.1088C21.101 16.1072 20.123 15.4753 19.5102 14.4168C19.4434 14.3022 19.3768 14.1909 19.3054 14.0826C19.291 14.0619 19.2783 14.0413 19.2657 14.0237C19.2054 13.9362 19.145 13.8503 19.0831 13.7692C19.0673 13.7468 19.0529 13.7293 19.037 13.7102C18.9703 13.629 18.902 13.5478 18.8338 13.473C18.8196 13.462 18.81 13.4476 18.7957 13.4349C18.483 13.115 18.113 12.873 17.6256 12.7393L17.8448 12.6136H17.8542L18.7148 12.1121L19.5991 11.6045L21.9615 12.8937L21.9662 12.8889L21.9725 12.8937L24.3349 11.6045L25.2209 12.1121ZM24.0555 11.0442L22.1727 12.039V8.01219L24.7271 7.14319L24.0555 11.0442ZM21.9678 7.56974L19.1672 6.4604C19.4054 5.89538 20.504 5.41462 21.9678 5.41305C23.4332 5.41462 24.5318 5.89538 24.7684 6.4604L21.9678 7.56974Z" fill="black"/>
<path d="M56.6488 24.4147V18.0417H60.3776V15.7225H50.205V18.0417H53.9336V24.4147H56.6488ZM64.0888 20.7808V15.7225H61.4642V24.4147H63.7814L68.3061 19.3565V24.4147H70.9307V15.7225H68.6142L64.0888 20.7808ZM79.761 21.1826V24.4147H82.3856V15.7225H79.761V18.8999H75.5431V15.7225H72.9185V24.4147H75.5431V21.1826H79.761ZM89.6945 24.4147C90.2918 24.4147 90.8346 24.36 91.3417 24.2139C92.6997 23.8305 93.5863 22.7164 93.5863 21.2008C93.5863 19.7582 92.8262 18.7539 91.6141 18.2973C91.0331 18.0782 90.3469 18.0599 89.6945 18.0599H86.9973V15.7225H84.3734V24.4147H89.6945ZM89.2419 20.1052C89.6044 20.1052 89.9481 20.1052 90.2555 20.2148C90.6906 20.3608 90.9436 20.7261 90.9436 21.1643C90.9436 21.6208 90.6906 22.0043 90.2736 22.1869C89.9844 22.3148 89.6945 22.3148 89.2419 22.3148H86.9973V20.1052H89.2419ZM98.2919 21.1278L101.424 24.4147H104.917L100.555 19.886L104.754 15.7225H101.46L98.2919 18.9912H97.5682V15.7225H94.9443V24.4147H97.5682V21.1278H98.2919ZM110.317 15.4852C106.787 15.4852 104.67 17.4938 104.67 20.0868C104.67 22.68 106.787 24.6887 110.317 24.6887C113.83 24.6887 115.948 22.68 115.948 20.0868C115.948 17.4938 113.83 15.4852 110.317 15.4852ZM110.317 22.5705C108.562 22.5705 107.44 21.5113 107.44 20.0868C107.44 18.6627 108.562 17.6217 110.317 17.6217C112.055 17.6217 113.195 18.6627 113.195 20.0868C113.195 21.5113 112.055 22.5705 110.317 22.5705ZM124.688 15.2295H122.063V16.106C118.769 16.179 116.796 17.5851 116.796 20.0687C116.796 22.5521 118.769 23.8487 122.063 23.9217V24.7983H124.688V23.9217C128 23.8487 129.973 22.5521 129.973 20.0687C129.973 17.5851 128 16.179 124.688 16.106V15.2295ZM122.063 22.0591C120.253 21.9861 119.457 21.2374 119.457 20.0687C119.457 18.8999 120.253 18.0599 122.063 17.987V22.0591ZM124.688 17.987C126.517 18.0599 127.294 18.8999 127.294 20.0687C127.294 21.2374 126.517 21.9861 124.688 22.0591V17.987ZM138.705 15.2295H136.08V16.106C132.786 16.179 130.814 17.5851 130.814 20.0687C130.814 22.5521 132.786 23.8487 136.08 23.9217V24.7983H138.705V23.9217C142.018 23.8487 143.991 22.5521 143.991 20.0687C143.991 17.5851 142.018 16.179 138.705 16.106V15.2295ZM136.08 22.0591C134.271 21.9861 133.474 21.2374 133.474 20.0687C133.474 18.8999 134.271 18.0599 136.08 17.987V22.0591ZM138.705 17.987C140.533 18.0599 141.312 18.8999 141.312 20.0687C141.312 21.2374 140.533 21.9861 138.705 22.0591V17.987Z" fill="black"/>
</g>
</g>
<defs>
<clipPath id="clip0_7223_572">
<rect width="144" height="38" fill="white" transform="translate(0.5)"/>
</clipPath>
</defs>
</svg>
