<svg width="10" height="10" viewBox="0 0 10 10" fill="none" xmlns="http://www.w3.org/2000/svg">
<path d="M4.01641 0.635706C4.41875 -0.211901 5.58125 -0.211902 5.98359 0.635704L6.67895 2.10059C6.83872 2.43717 7.14755 2.67047 7.50481 2.72444L9.05967 2.95935C9.95933 3.09527 10.3186 4.24477 9.66756 4.90454L8.54246 6.04479C8.28394 6.30679 8.16598 6.68427 8.22701 7.05421L8.49261 8.66427C8.64629 9.59588 7.70581 10.3063 6.90112 9.86647L5.51041 9.1063C5.19087 8.93164 4.80913 8.93164 4.48959 9.1063L3.09888 9.86647C2.2942 10.3063 1.35371 9.59588 1.50739 8.66427L1.77299 7.05421C1.83402 6.68427 1.71606 6.30679 1.45754 6.04479L0.332438 4.90454C-0.318567 4.24477 0.0406641 3.09527 0.94033 2.95935L2.49519 2.72444C2.85244 2.67047 3.16128 2.43717 3.32105 2.10059L4.01641 0.635706Z" fill="#FFA22A"/>
</svg>
