<svg width="44" height="44" viewBox="0 0 44 44" fill="none" xmlns="http://www.w3.org/2000/svg">
<path fill-rule="evenodd" clip-rule="evenodd" d="M22 1.95556C10.9472 1.95556 1.95556 10.9482 1.95556 22C1.95556 33.0538 10.9472 42.0444 22 42.0444C33.0528 42.0444 42.0444 33.0528 42.0444 22C42.0444 10.9492 33.0528 1.95556 22 1.95556ZM22 44C9.86969 44 0 34.1313 0 22C0 9.86871 9.86969 0 22 0C34.1313 0 44 9.86871 44 22C44 34.1313 34.1313 44 22 44Z" fill="black"/>
<path d="M28.825 16.71C29.0253 16.5217 29.2921 16.4206 29.5668 16.4291C29.8416 16.4375 30.1017 16.5548 30.29 16.755C30.4783 16.9552 30.5794 17.2221 30.5709 17.4968C30.5625 17.7715 30.4452 18.0317 30.245 18.22L19.274 28.54L13.754 23.349C13.6549 23.2558 13.5751 23.1439 13.5191 23.0198C13.4632 22.8957 13.4323 22.7618 13.4281 22.6258C13.4239 22.4898 13.4466 22.3542 13.4948 22.227C13.543 22.0997 13.6158 21.9831 13.709 21.884C13.8022 21.7848 13.9141 21.705 14.0382 21.6491C14.1623 21.5932 14.2962 21.5623 14.4322 21.5581C14.5682 21.5539 14.7038 21.5766 14.831 21.6248C14.9583 21.673 15.0749 21.7458 15.174 21.839L19.273 25.694L28.825 16.71V16.71Z" fill="#83C150"/>
</svg>
