<svg width="14" height="17" viewBox="0 0 14 17" fill="none" xmlns="http://www.w3.org/2000/svg">
<path fill-rule="evenodd" clip-rule="evenodd" d="M0.35941 7.78409C0.126314 8.48078 0 9.22592 0 10C0 13.8597 3.14034 17 7 17C10.8597 17 14 13.8597 14 10C14 6.14034 10.8597 3 7 3C6.20181 3 5.43439 3.1343 4.71914 3.3815L5.38675 5.31872C5.98167 5.11413 6.63585 5 7.33333 5C9.75891 5 12 7.24328 12 10.3333C12 12.7567 9.75891 15 7.33333 15C4.24109 15 2 12.7567 2 9.66667C2 9.23488 2.07114 8.80882 2.20557 8.40014L0.35941 7.78409ZM5.2703 8.99722C5.09871 9.29155 5 9.63386 5 10C5 11.0938 5.89062 12 7 12C8.09375 12 9 11.1094 9 10C9 8.89062 8.09375 8 7 8C6.63619 8 6.29313 8.09854 5.99726 8.27089C5.98371 8.12109 5.91992 7.97539 5.80588 7.86138L2.13782 4.19408C1.87501 3.93531 1.45294 3.93531 1.19412 4.19408C0.935295 4.45684 0.935295 4.87885 1.19412 5.13763L4.86218 8.80492C4.97427 8.92049 5.12025 8.98369 5.2703 8.99722ZM8.91087 2H5.08913C4.48913 2 4 1.5509 4 1C4 0.449102 4.48913 0 5.08913 0H8.91087C9.51087 0 10 0.449102 10 1C10 1.5509 9.51087 2 8.91087 2Z" fill="#7396D1"/>
</svg>
