<svg width="80" height="80" viewBox="0 0 80 80" fill="none" xmlns="http://www.w3.org/2000/svg">
<path d="M35.5 40V62.5M35.5 40L16 28.5M35.5 40L45.25 34.25L50.125 31.375M35.5 62.5L54.8983 51.5574C54.9611 51.5219 55 51.4554 55 51.3832V40V34.25M35.5 62.5L16.1017 51.5574C16.0389 51.5219 16 51.4554 16 51.3832V28.5M16 28.5L35.3984 17.0599C35.4611 17.0229 35.5389 17.0229 35.6016 17.0599L45.25 22.75L50.125 25.625" stroke="#A1A1A1" stroke-width="2" stroke-linecap="round" stroke-linejoin="round"/>
<path d="M60 33L59.13 32.2087C56.04 29.4093 54 27.5629 54 25.297C54 23.4507 55.452 22 57.3 22C58.344 22 59.346 22.4856 60 23.2529C60.654 22.4856 61.656 22 62.7 22C64.548 22 66 23.4507 66 25.297C66 27.5629 63.96 29.4093 60.87 32.2147L60 33Z" stroke="#A1A1A1"/>
<path d="M42 21L23.0964 32.4416C23.0366 32.4779 23 32.5428 23 32.6127V38.8813C23 38.9545 23.04 39.0218 23.1042 39.0569L28.2042 41.8387C28.3375 41.9114 28.5 41.8149 28.5 41.6631V36.1112C28.5 36.042 28.5357 35.9778 28.5944 35.9413L47 24.5" stroke="#A1A1A1" stroke-linecap="round" stroke-linejoin="round"/>
</svg>
