<svg width="50" height="50" viewBox="0 0 50 50" fill="none" xmlns="http://www.w3.org/2000/svg">
<path fill-rule="evenodd" clip-rule="evenodd" d="M14.9492 21.4734C14.0997 21.4511 13.5087 21.1212 13.1035 20.5838V14.1183H17.2871V20.4168C17.2327 20.4478 17.1845 20.4898 17.1469 20.543C16.7197 21.1413 15.89 21.4991 14.9492 21.4734ZM17.8403 20.4529V14.1183H22.3112V20.3901C22.241 20.4249 22.1793 20.477 22.1324 20.543C21.7234 21.1162 20.918 21.4729 20.0305 21.4729C19.1425 21.4729 18.3365 21.1168 17.927 20.543C17.9021 20.5082 17.8728 20.4782 17.8403 20.4529ZM22.8643 20.4848C22.8819 20.5028 22.8982 20.5222 22.9131 20.543C23.3216 21.1162 24.127 21.4729 25.015 21.4729C25.9024 21.4729 26.7084 21.1168 27.118 20.543C27.1715 20.4675 27.2463 20.4143 27.3298 20.3837V14.1183H22.8643V20.4848ZM27.8981 20.543C27.8932 20.5362 27.8882 20.5295 27.883 20.5231V14.1183H32.2853V20.409C32.2095 20.4398 32.1417 20.4896 32.0915 20.5586C31.6786 21.1235 30.8787 21.4723 30.0006 21.4723H29.9813C29.0889 21.4673 28.3104 21.1196 27.8981 20.543ZM32.8385 20.5259C32.8477 20.5363 32.8566 20.5472 32.865 20.5586C33.2993 21.1519 34.14 21.5136 35.0698 21.4729C35.911 21.4455 36.51 21.1162 36.9113 20.5838V14.1183H32.8385V20.5259ZM12.0776 21.0025C12.438 21.5675 13.0108 21.9936 13.702 22.2328C13.6748 22.2907 13.6599 22.3542 13.6599 22.4208V34.2093H12.5534C12.2174 34.2093 12.0002 34.4396 12.0002 34.7674V36.4418C12.0002 36.7697 12.2174 37 12.5534 37H37.4468C37.7834 37 38 36.7697 38 36.4418V34.7674C38 34.4396 37.7834 34.2093 37.4468 34.2093H36.3404V22.4208C36.3404 22.354 36.3253 22.2903 36.298 22.2322C36.9892 21.9928 37.5621 21.5667 37.9221 21.0025C37.9728 20.9233 37.9997 20.8312 37.9997 20.7374V13.4884C37.9997 13.2188 37.7839 13 37.518 13H12.4817C12.2158 13 12 13.2188 12 13.4884V20.7374C12 20.8312 12.027 20.9233 12.0776 21.0025ZM35.7821 35.3254L35.7873 35.3254L35.7924 35.3254H36.8936V35.8835H13.1066V35.3254H14.2079L14.213 35.3254L14.2182 35.3254H35.7821ZM35.2341 34.2093V22.4423C35.1898 22.4451 35.1453 22.4472 35.1007 22.4486C34.0761 22.4788 33.1303 22.159 32.4779 21.5679C31.8525 22.1322 30.9304 22.4447 29.9764 22.4486C29.008 22.4436 28.1233 22.1165 27.5083 21.5539C26.8873 22.1221 25.9944 22.4492 25.015 22.4492C24.0351 22.4492 23.1432 22.1221 22.5228 21.5545C21.9018 22.1221 21.0094 22.4492 20.0305 22.4492C19.0511 22.4492 18.1587 22.1221 17.5372 21.5545C16.9157 22.126 16.0255 22.4509 15.0433 22.4509C15.0037 22.4509 14.9646 22.4509 14.9244 22.4498C14.8714 22.4484 14.8186 22.446 14.7662 22.4427V34.2093H16.9789V34.2092V27.7946C16.9789 27.6384 17.1042 27.5116 17.261 27.5116H21.6756C21.8318 27.5116 21.9576 27.6384 21.9576 27.7946V34.2092V34.2093H35.2341ZM21.4207 34.2093L21.4044 34.2092L21.3935 28.0775H17.543L17.5321 34.2092L17.5158 34.2093H21.4207ZM23.6171 30.3022H32.4681V24.7209H23.6171V30.3022ZM23.6172 30.8604C23.4265 30.8604 23.2958 30.8365 23.2095 30.8208C23.1026 30.8012 23.064 30.7942 23.064 30.8604V24.1628C23.064 24.229 23.1026 24.2219 23.2095 24.2024C23.2958 24.1867 23.4265 24.1628 23.6172 24.1628H32.4681C32.6588 24.1628 32.7895 24.1867 32.8758 24.2024C32.9826 24.2219 33.0213 24.229 33.0213 24.1628V30.8604C33.0213 30.7942 32.9826 30.8012 32.8758 30.8208C32.7895 30.8365 32.6588 30.8604 32.4681 30.8604H23.6172Z" fill="#393939"/>
</svg>
