<svg width="24" height="24" viewBox="0 0 24 24" fill="none" xmlns="http://www.w3.org/2000/svg">
<path fill-rule="evenodd" clip-rule="evenodd" d="M7.6021 11.3072L5.96335 15.6148H5.48168H5V16.2649V16.915H7.47333H9.94667V16.2649V15.6148H9.57792C9.28793 15.6148 9.21028 15.6115 9.21436 15.5996C9.21722 15.5913 9.37883 15.1069 9.57351 14.5232L9.92746 13.4621L9.95165 13.5033C9.96495 13.526 10.43 14.322 10.985 15.2723C11.54 16.2225 11.9968 17 12 17C12.0032 17 12.46 16.2225 13.015 15.2723C13.57 14.322 14.0351 13.526 14.0484 13.5033L14.0725 13.4621L14.4265 14.5232C14.6212 15.1069 14.7828 15.5913 14.7856 15.5996C14.7897 15.6115 14.7121 15.6148 14.4221 15.6148H14.0533V16.2649V16.915H16.5267H19V16.2649V15.6148H18.5183H18.0367L16.4038 11.3073C15.5056 8.93823 14.7682 7 14.765 7.00015C14.7618 7.0003 14.1397 8.12938 13.3827 9.50922C12.6256 10.889 12.0032 12.018 11.9995 12.018C11.9958 12.018 11.3763 10.889 10.6227 9.50916C9.86908 8.12929 9.24988 7.00018 9.24667 7C9.24346 6.99983 8.50341 8.93808 7.6021 11.3072Z" fill="#3376BB"/>
</svg>
